<?xml version="1.0" encoding="UTF-8" standalone="no"?>
<!-- Created with Inkscape (http://www.inkscape.org/) -->

<svg
   xmlns:dc="http://purl.org/dc/elements/1.1/"
   xmlns:cc="http://creativecommons.org/ns#"
   xmlns:rdf="http://www.w3.org/1999/02/22-rdf-syntax-ns#"
   xmlns:svg="http://www.w3.org/2000/svg"
   xmlns="http://www.w3.org/2000/svg"
   xmlns:xlink="http://www.w3.org/1999/xlink"
   xmlns:sodipodi="http://sodipodi.sourceforge.net/DTD/sodipodi-0.dtd"
   xmlns:inkscape="http://www.inkscape.org/namespaces/inkscape"
   version="1.0"
   width="17"
   height="57"
   id="svg2"
   inkscape:version="0.47pre4 r22446"
   sodipodi:docname="kickoff.svg">
  <metadata
     id="metadata57">
    <rdf:RDF>
      <cc:Work
         rdf:about="">
        <dc:format>image/svg+xml</dc:format>
        <dc:type
           rdf:resource="http://purl.org/dc/dcmitype/StillImage" />
      </cc:Work>
    </rdf:RDF>
  </metadata>
  <sodipodi:namedview
     pagecolor="#ffffff"
     bordercolor="#666666"
     borderopacity="1"
     objecttolerance="10"
     gridtolerance="10"
     guidetolerance="10"
     inkscape:pageopacity="0"
     inkscape:pageshadow="2"
     inkscape:window-width="1024"
     inkscape:window-height="718"
     id="namedview55"
     showgrid="false"
     inkscape:zoom="8.8175139"
     inkscape:cx="-9.7198745"
     inkscape:cy="37.844262"
     inkscape:window-x="-10"
     inkscape:window-y="0"
     inkscape:window-maximized="1"
     inkscape:current-layer="svg2" />
  <defs
     id="defs5">
    <inkscape:perspective
       sodipodi:type="inkscape:persp3d"
       inkscape:vp_x="0 : 28.5 : 1"
       inkscape:vp_y="0 : 1000 : 0"
       inkscape:vp_z="17 : 28.5 : 1"
       inkscape:persp3d-origin="8.5 : 19 : 1"
       id="perspective59" />
    <linearGradient
       id="linearGradient3201">
      <stop
         id="stop3203"
         style="stop-color:#000000;stop-opacity:1"
         offset="0" />
      <stop
         id="stop3205"
         style="stop-color:#808080;stop-opacity:1"
         offset="1" />
    </linearGradient>
    <linearGradient
       id="linearGradient3195">
      <stop
         id="stop3197"
         style="stop-color:#000000;stop-opacity:1"
         offset="0" />
      <stop
         id="stop3199"
         style="stop-color:#808080;stop-opacity:1"
         offset="1" />
    </linearGradient>
    <linearGradient
       id="linearGradient4450">
      <stop
         id="stop4452"
         style="stop-color:#000000;stop-opacity:1"
         offset="0" />
      <stop
         id="stop4454"
         style="stop-color:#808080;stop-opacity:1"
         offset="1" />
    </linearGradient>
    <linearGradient
       x1="8"
       y1="21"
       x2="8"
       y2="32"
       id="linearGradient4460"
       xlink:href="#linearGradient3201"
       gradientUnits="userSpaceOnUse"
       gradientTransform="translate(0,-16.947115)" />
    <linearGradient
       x1="2"
       y1="21"
       x2="2"
       y2="32"
       id="linearGradient4492"
       xlink:href="#linearGradient4450"
       gradientUnits="userSpaceOnUse"
       gradientTransform="translate(0,-16.947115)" />
    <linearGradient
       x1="15"
       y1="21"
       x2="15"
       y2="32"
       id="linearGradient4500"
       xlink:href="#linearGradient3195"
       gradientUnits="userSpaceOnUse"
       gradientTransform="translate(0,-16.947115)" />
  </defs>
  <rect
     width="28.107492"
     height="47.973125"
     x="-5.1074924"
     y="-3"
     id="rect3440"
     style="opacity:1;fill:#0f0f0f;fill-opacity:1;fill-rule:nonzero;stroke:none;stroke-width:8.77499962;stroke-linecap:round;stroke-linejoin:round;stroke-miterlimit:4;stroke-dasharray:none;stroke-dashoffset:0;stroke-opacity:1" />
  <g
     transform="translate(-1558,-8.362187)"
     id="layer1"
     style="display:none" />
  <g
     transform="translate(-1558,-8.362187)"
     id="layer2"
     style="display:inline" />
  <g
     transform="translate(871.061,-1488.2416)"
     id="g2424"
     style="display:none" />
  <g
     transform="translate(871.061,-1488.2416)"
     id="g2426"
     style="display:inline" />
  <g
     transform="translate(917.0388,-519.37891)"
     id="g3429" />
  <g
     transform="translate(2703.3293,-135.92083)"
     id="g19758" />
  <g
     transform="translate(3808.1545,-1014.1902)"
     id="g3935" />
  <g
     transform="translate(1410.2848,-1029.5374)"
     id="g8459" />
  <g
     transform="translate(59.4673,299.07425)"
     id="g28391" />
  <g
     transform="translate(1164.2925,-579.19511)"
     id="g28393" />
  <g
     transform="translate(-1233.5772,-594.54231)"
     id="g28395" />
  <g
     transform="translate(2205.9673,291.07425)"
     id="g6598" />
  <g
     transform="translate(3310.7925,-587.19511)"
     id="g6640" />
  <g
     transform="translate(912.9228,-602.54234)"
     id="g6716" />
  <g
     transform="matrix(1,0,0,-1,-258,752.03125)"
     id="g6850"
     style="opacity:0.45945943" />
  <text
     x="-34"
     y="249"
     id="text6990"
     xml:space="preserve"
     style="font-size:14px;font-style:normal;font-variant:normal;font-weight:bold;font-stretch:normal;text-align:justify;line-height:125%;writing-mode:lr-tb;text-anchor:start;fill:#000000;fill-opacity:1;stroke:none;stroke-width:1px;stroke-linecap:butt;stroke-linejoin:miter;stroke-opacity:1;font-family:Gill Sans;-inkscape-font-specification:Bitstream Vera Sans Bold"><tspan
       x="-34"
       y="249"
       id="tspan6992" /></text>
  <rect
     width="2.0329318"
     height="2.077126"
     rx="0"
     ry="2.077126"
     x="-2.7400386"
     y="-1.3405813"
     id="hint-stretch-borders"
     style="opacity:1;fill:#4e9a06;fill-opacity:1;fill-rule:nonzero;stroke:none;stroke-width:6;stroke-linecap:round;stroke-linejoin:round;stroke-miterlimit:4;stroke-dasharray:none;stroke-dashoffset:0;stroke-opacity:1" />
  <text
     x="-10.722275"
     y="233.58058"
     id="text2705"
     xml:space="preserve"
     style="font-size:14px;font-style:normal;font-variant:normal;font-weight:bold;font-stretch:normal;text-align:justify;line-height:125%;writing-mode:lr-tb;text-anchor:start;fill:#000000;fill-opacity:1;stroke:none;stroke-width:1px;stroke-linecap:butt;stroke-linejoin:miter;stroke-opacity:1;font-family:Gill Sans"><tspan
       x="-10.722275"
       y="233.58058"
       id="tspan2707" /></text>
  <path
     d="M 2.9999995,4.052885 L 2.9999995,15.052885 L 13.999999,15.052885 L 13.999999,4.052885 L 2.9999995,4.052885 z"
     id="plain-center"
     style="opacity:0.3;fill:url(#linearGradient4460);fill-opacity:1;fill-rule:nonzero;stroke:none;stroke-width:0.59999996000000000;stroke-linecap:round;stroke-linejoin:round;stroke-miterlimit:4;stroke-dashoffset:0;stroke-opacity:1" />
  <path
     d="M 3,2.052838 L 3,4.052885 L 13.999999,4.052885 L 13.999999,2.052838 C 13.995886,2.052168 13.992293,2.052838 13.988146,2.052838 L 3.0118538,2.052838 C 3.0077076,2.052838 3.004114,2.052168 3,2.052838 z"
     id="plain-top"
     style="opacity:0.3;fill:#000000;fill-opacity:1;fill-rule:nonzero;stroke:none;stroke-width:0.59999996000000000;stroke-linecap:round;stroke-linejoin:round;stroke-miterlimit:4;stroke-dashoffset:0;stroke-opacity:1" />
  <path
     d="M 13.999999,2.052885 L 13.999999,4.052885 L 15.999999,4.052885 C 15.966391,2.961535 15.091355,2.086495 13.999999,2.052885 z"
     id="plain-topright"
     style="opacity:0.3;fill:#000000;fill-opacity:1;fill-rule:nonzero;stroke:none;stroke-width:0.59999996000000000;stroke-linecap:round;stroke-linejoin:round;stroke-miterlimit:4;stroke-dashoffset:0;stroke-opacity:1" />
  <path
     d="M 14,4.052885 L 14,15.052885 L 16,15.052885 C 16.000668,15.034532 16,15.018497 16,15 L 16,4.10577 C 16,4.087273 16.000668,4.071238 16,4.052885 L 14,4.052885 z"
     id="plain-right"
     style="opacity:0.3;fill:url(#linearGradient4500);fill-opacity:1;fill-rule:nonzero;stroke:none;stroke-width:0.59999996000000000;stroke-linecap:round;stroke-linejoin:round;stroke-miterlimit:4;stroke-dashoffset:0;stroke-opacity:1" />
  <path
     d="M 13.965229,15.05254 L 13.965229,17.05254 C 15.056583,17.01893 15.931621,16.14389 15.965229,15.05254 L 13.965229,15.05254 z"
     id="plain-bottomright"
     style="opacity:0.3;fill:#808080;fill-opacity:1;fill-rule:nonzero;stroke:none;stroke-width:0.59999996000000000;stroke-linecap:round;stroke-linejoin:round;stroke-miterlimit:4;stroke-dashoffset:0;stroke-opacity:1" />
  <path
     d="M 2.9881462,15.052539 L 2.9881462,17.052587 C 2.9922602,17.053257 2.9958538,17.052587 3,17.052587 L 13.976293,17.052587 C 13.98044,17.052587 13.984033,17.053257 13.988146,17.052587 L 13.988146,15.052539 L 2.9881462,15.052539 z"
     id="plain-bottom"
     style="opacity:0.3;fill:#808080;fill-opacity:1;fill-rule:nonzero;stroke:none;stroke-width:0.59999996000000000;stroke-linecap:round;stroke-linejoin:round;stroke-miterlimit:4;stroke-dashoffset:0;stroke-opacity:1" />
  <path
     d="M 1,15.052885 C 1.033608,16.144235 1.908646,17.019275 3,17.052885 L 3,15.052885 L 1,15.052885 z"
     id="plain-bottomleft"
     style="opacity:0.3;fill:#808080;fill-opacity:1;fill-rule:nonzero;stroke:none;stroke-width:0.59999996000000000;stroke-linecap:round;stroke-linejoin:round;stroke-miterlimit:4;stroke-dashoffset:0;stroke-opacity:1" />
  <path
     d="M 1.0002969,4.052885 C 0.99962889,4.071238 1.0002969,4.087273 1.0002969,4.10577 L 1.0002969,15 C 1.0002969,15.018497 0.99962889,15.034532 1.0002969,15.052885 L 3.0002969,15.052885 L 3.0002969,4.052885 L 1.0002969,4.052885 z"
     id="plain-left"
     style="opacity:0.3;fill:url(#linearGradient4492);fill-opacity:1;fill-rule:nonzero;stroke:none;stroke-width:0.59999996000000000;stroke-linecap:round;stroke-linejoin:round;stroke-miterlimit:4;stroke-dashoffset:0;stroke-opacity:1" />
  <path
     d="M 3,2.052885 C 1.908646,2.086495 1.033608,2.961535 1,4.052885 L 3,4.052885 L 3,2.052885 z"
     id="plain-topleft"
     style="opacity:0.3;fill:#000000;fill-opacity:1;fill-rule:nonzero;stroke:none;stroke-width:0.59999996000000000;stroke-linecap:round;stroke-linejoin:round;stroke-miterlimit:4;stroke-dashoffset:0;stroke-opacity:1" />
  <path
     d="M 2.999999,22.000345 L 2.999999,33.000345 L 13.999999,33.000345 L 13.999999,22.000345 L 2.999999,22.000345 z"
     id="borderview-center"
     style="opacity:1;fill:#ffffff;fill-opacity:1;fill-rule:nonzero;stroke:none;stroke-width:0.59999996;stroke-linecap:round;stroke-linejoin:round;stroke-miterlimit:4;stroke-dashoffset:0;stroke-opacity:1" />
  <path
     d="M 3,20.000298 L 3,22.000345 L 13.999999,22.000345 L 13.999999,20.000298 C 13.995886,19.999628 13.992293,20.000298 13.988146,20.000298 L 3.011854,20.000298 C 3.007707,20.000298 3.004114,19.999628 3,20.000298 z"
     id="borderview-top"
     style="opacity:1;fill:#ffffff;fill-opacity:1;fill-rule:nonzero;stroke:none;stroke-width:0.59999996;stroke-linecap:round;stroke-linejoin:round;stroke-miterlimit:4;stroke-dashoffset:0;stroke-opacity:1" />
  <path
     d="M 13.999999,20.000345 L 13.999999,22.000345 L 15.999999,22.000345 C 15.966391,20.908995 15.091355,20.033955 13.999999,20.000345 z"
     id="borderview-topright"
     style="opacity:1;fill:#ffffff;fill-opacity:1;fill-rule:nonzero;stroke:none;stroke-width:0.59999996;stroke-linecap:round;stroke-linejoin:round;stroke-miterlimit:4;stroke-dashoffset:0;stroke-opacity:1" />
  <path
     d="M 14,22.000345 L 14,33.000345 L 16,33.000345 C 16.000668,32.981992 16,32.965957 16,32.94746 L 16,22.05323 C 16,22.034733 16.000668,22.018698 16,22.000345 L 14,22.000345 z"
     id="borderview-right"
     style="opacity:1;fill:#ffffff;fill-opacity:1;fill-rule:nonzero;stroke:none;stroke-width:0.59999996;stroke-linecap:round;stroke-linejoin:round;stroke-miterlimit:4;stroke-dashoffset:0;stroke-opacity:1" />
  <path
     d="M 13.965229,33 L 13.965229,35 C 15.056583,34.96639 15.931621,34.09135 15.965229,33 L 13.965229,33 z"
     id="borderview-bottomright"
     style="opacity:1;fill:#ffffff;fill-opacity:1;fill-rule:nonzero;stroke:none;stroke-width:0.59999996;stroke-linecap:round;stroke-linejoin:round;stroke-miterlimit:4;stroke-dashoffset:0;stroke-opacity:1" />
  <path
     d="M 2.988146,32.999999 L 2.988146,35.000047 C 2.99226,35.000717 2.995854,35.000047 3,35.000047 L 13.976293,35.000047 C 13.98044,35.000047 13.984033,35.000717 13.988146,35.000047 L 13.988146,32.999999 L 2.988146,32.999999 z"
     id="borderview-bottom"
     style="opacity:1;fill:#ffffff;fill-opacity:1;fill-rule:nonzero;stroke:none;stroke-width:0.59999996;stroke-linecap:round;stroke-linejoin:round;stroke-miterlimit:4;stroke-dashoffset:0;stroke-opacity:1" />
  <path
     d="M 1,33.000345 C 1.033608,34.091695 1.908646,34.966735 3,35.000345 L 3,33.000345 L 1,33.000345 z"
     id="borderview-bottomleft"
     style="opacity:1;fill:#ffffff;fill-opacity:1;fill-rule:nonzero;stroke:none;stroke-width:0.59999996;stroke-linecap:round;stroke-linejoin:round;stroke-miterlimit:4;stroke-dashoffset:0;stroke-opacity:1" />
  <path
     d="M 1.000297,22.000345 C 0.999629,22.018698 1.000297,22.034733 1.000297,22.05323 L 1.000297,32.94746 C 1.000297,32.965957 0.999629,32.981992 1.000297,33.000345 L 3.000297,33.000345 L 3.000297,22.000345 L 1.000297,22.000345 z"
     id="borderview-left"
     style="opacity:1;fill:#ffffff;fill-opacity:1;fill-rule:nonzero;stroke:none;stroke-width:0.59999996;stroke-linecap:round;stroke-linejoin:round;stroke-miterlimit:4;stroke-dashoffset:0;stroke-opacity:1" />
  <path
     d="M 3,20.000345 C 1.908646,20.033955 1.033608,20.908995 1,22.000345 L 3,22.000345 L 3,20.000345 z"
     id="borderview-topleft"
     style="opacity:1;fill:#ffffff;fill-opacity:1;fill-rule:nonzero;stroke:none;stroke-width:0.59999996;stroke-linecap:round;stroke-linejoin:round;stroke-miterlimit:4;stroke-dashoffset:0;stroke-opacity:1" />
  <rect
     style="fill:#4e9a06;fill-opacity:1;fill-rule:nonzero;stroke:none"
     id="hint-apply-color-scheme"
     y="3.0979433"
     x="-3.6744649"
     ry="2.077126"
     rx="0"
     height="2.077126"
     width="2.0329318"
     inkscape:label="#rect2865" />
</svg>
