<?xml version="1.0" encoding="UTF-8" standalone="no"?>
<!-- Created with Inkscape (http://www.inkscape.org/) -->

<svg
   xmlns:dc="http://purl.org/dc/elements/1.1/"
   xmlns:cc="http://creativecommons.org/ns#"
   xmlns:rdf="http://www.w3.org/1999/02/22-rdf-syntax-ns#"
   xmlns:svg="http://www.w3.org/2000/svg"
   xmlns="http://www.w3.org/2000/svg"
   xmlns:xlink="http://www.w3.org/1999/xlink"
   xmlns:sodipodi="http://sodipodi.sourceforge.net/DTD/sodipodi-0.dtd"
   xmlns:inkscape="http://www.inkscape.org/namespaces/inkscape"
   version="1.0"
   width="43"
   height="42"
   id="svg2318"
   sodipodi:version="0.32"
   inkscape:version="0.47pre4 r22446"
   sodipodi:docname="analog_meter.svg"
   inkscape:output_extension="org.inkscape.output.svg.inkscape">
  <metadata
     id="metadata617">
    <rdf:RDF>
      <cc:Work
         rdf:about="">
        <dc:format>image/svg+xml</dc:format>
        <dc:type
           rdf:resource="http://purl.org/dc/dcmitype/StillImage" />
      </cc:Work>
    </rdf:RDF>
  </metadata>
  <sodipodi:namedview
     inkscape:window-height="721"
     inkscape:window-width="1024"
     inkscape:pageshadow="2"
     inkscape:pageopacity="0.0"
     guidetolerance="10.0"
     gridtolerance="10.0"
     objecttolerance="10.0"
     borderopacity="1.0"
     bordercolor="#666666"
     pagecolor="#ffffff"
     id="base"
     showgrid="false"
     inkscape:zoom="7.3662849"
     inkscape:cx="-1.2244978"
     inkscape:cy="30.782963"
     inkscape:window-x="-6"
     inkscape:window-y="0"
     inkscape:current-layer="layer1"
     inkscape:window-maximized="1" />
  <defs
     id="defs2320">
    <inkscape:perspective
       sodipodi:type="inkscape:persp3d"
       inkscape:vp_x="0 : 21 : 1"
       inkscape:vp_y="0 : 1000 : 0"
       inkscape:vp_z="43 : 21 : 1"
       inkscape:persp3d-origin="21.5 : 14 : 1"
       id="perspective97" />
    <linearGradient
       id="linearGradient3257">
      <stop
         id="stop3259"
         style="stop-color:#ffffff;stop-opacity:0.80000001"
         offset="0" />
      <stop
         id="stop3261"
         style="stop-color:#ffffff;stop-opacity:0"
         offset="0.91474926" />
      <stop
         id="stop3263"
         style="stop-color:#000000;stop-opacity:0.2"
         offset="1" />
    </linearGradient>
    <linearGradient
       id="linearGradient4949">
      <stop
         id="stop3776"
         style="stop-color:#ffffff;stop-opacity:1"
         offset="0" />
      <stop
         id="stop4953"
         style="stop-color:#ffabab;stop-opacity:1"
         offset="1" />
    </linearGradient>
    <linearGradient
       id="linearGradient7677">
      <stop
         id="stop7679"
         style="stop-color:#999999;stop-opacity:1"
         offset="0" />
      <stop
         id="stop7681"
         style="stop-color:#000000;stop-opacity:1"
         offset="1" />
    </linearGradient>
    <linearGradient
       id="linearGradient7671">
      <stop
         id="stop7673"
         style="stop-color:#b3b3b3;stop-opacity:1"
         offset="0" />
      <stop
         id="stop7675"
         style="stop-color:#1a1a1a;stop-opacity:1"
         offset="1" />
    </linearGradient>
    <linearGradient
       id="linearGradient7536">
      <stop
         id="stop7544"
         style="stop-color:#ffffff;stop-opacity:1"
         offset="0" />
      <stop
         id="stop2990"
         style="stop-color:#7fffff;stop-opacity:1"
         offset="0.23618698" />
      <stop
         id="stop3764"
         style="stop-color:#3fffff;stop-opacity:1"
         offset="0.61809349" />
      <stop
         id="stop3766"
         style="stop-color:#1fffff;stop-opacity:1"
         offset="0.80904675" />
      <stop
         id="stop7540"
         style="stop-color:#00ffff;stop-opacity:1"
         offset="1" />
    </linearGradient>
    <linearGradient
       x1="21.385998"
       y1="25"
       x2="21.385998"
       y2="28.239798"
       id="linearGradient7555"
       xlink:href="#linearGradient7536"
       gradientUnits="userSpaceOnUse"
       spreadMethod="reflect" />
    <linearGradient
       x1="21.249393"
       y1="24.554974"
       x2="21.249393"
       y2="31.893867"
       id="linearGradient7667"
       xlink:href="#linearGradient7671"
       gradientUnits="userSpaceOnUse"
       gradientTransform="matrix(1.1751276,0,0,1.3431553,-3.7452792,-9.6906353)" />
    <linearGradient
       x1="21.32448"
       y1="31.688162"
       x2="21.32448"
       y2="24.78735"
       id="linearGradient7669"
       xlink:href="#linearGradient7677"
       gradientUnits="userSpaceOnUse"
       gradientTransform="matrix(1.0320525,0,0,1.1740032,-0.6854737,-4.9138166)" />
    <radialGradient
       cx="-29.92654"
       cy="-8.770812"
       r="0.45203686"
       fx="-29.92654"
       fy="-8.770812"
       id="radialGradient3254"
       xlink:href="#linearGradient3257"
       gradientUnits="userSpaceOnUse"
       gradientTransform="matrix(0.9123678,0,-2.7790009e-8,8.1528196,-2.6225287,62.736038)" />
    <linearGradient
       x1="17.280083"
       y1="17.267097"
       x2="32.741051"
       y2="17.267097"
       id="linearGradient2992"
       xlink:href="#linearGradient4949"
       gradientUnits="userSpaceOnUse" />
    <inkscape:perspective
       id="perspective2911"
       inkscape:persp3d-origin="0.5 : 0.33333333 : 1"
       inkscape:vp_z="1 : 0.5 : 1"
       inkscape:vp_y="0 : 1000 : 0"
       inkscape:vp_x="0 : 0.5 : 1"
       sodipodi:type="inkscape:persp3d" />
  </defs>
  <g
     id="layer1">
    <g
       id="background">
      <g
         transform="translate(0.3144204,0)"
         id="g4746"
         style="fill:#808080;fill-opacity:1">
        <path
           d="M 19.875,2 L 19.4375,2.03125 C 19.314484,2.0420125 19.207987,2.1582344 19.21875,2.28125 L 19.84375,9.15625 C 19.854512,9.2792655 19.939484,9.3857628 20.0625,9.375 L 20.53125,9.34375 C 20.654266,9.3329875 20.729512,9.2167657 20.71875,9.09375 L 20.125,2.1875 C 20.114238,2.0644845 19.998015,1.9892375 19.875,2 z M 21,2 C 20.97025,2.035216 20.9375,2.077785 20.9375,2.125 L 20.9375,9.0625 C 20.9375,9.1859854 21.064014,9.2812501 21.1875,9.28125 L 21.625,9.28125 C 21.748485,9.28125 21.84375,9.1859852 21.84375,9.0625 L 21.84375,2.125 C 21.84375,2.0739026 21.809123,2.036683 21.78125,2 L 21,2 z M 22.75,2 C 22.712035,2.0406559 22.692881,2.0947423 22.6875,2.15625 L 22.0625,9.03125 C 22.051738,9.1542655 22.158235,9.2704879 22.28125,9.28125 L 22.71875,9.3125 C 22.841765,9.3232625 22.957988,9.2480153 22.96875,9.125 L 23.59375,2.21875 C 23.602455,2.1192522 23.528911,2.0384023 23.4375,2 L 22.75,2 z M 24.65625,2.125 C 24.534641,2.103557 24.427692,2.1908905 24.40625,2.3125 L 23.1875,9.125 C 23.166057,9.2466094 23.25339,9.3535568 23.375,9.375 L 23.8125,9.46875 C 23.934109,9.490193 24.072307,9.4028594 24.09375,9.28125 L 25.28125,2.46875 C 25.302693,2.3471406 25.21536,2.2401929 25.09375,2.21875 L 24.65625,2.125 z M 18.15625,2.21875 L 17.71875,2.3125 C 17.597141,2.333943 17.509806,2.4408907 17.53125,2.5625 L 18.71875,9.375 C 18.740193,9.4966094 18.878391,9.5839431 19,9.5625 L 19.4375,9.46875 C 19.559109,9.447307 19.646443,9.3403592 19.625,9.21875 L 18.40625,2.40625 C 18.384807,2.2846406 18.27786,2.1973071 18.15625,2.21875 z M 26.1875,2.46875 C 26.138156,2.4972385 26.109731,2.5653611 26.09375,2.625 L 24.3125,9.3125 C 24.28054,9.4317777 24.349473,9.5617897 24.46875,9.59375 L 24.90625,9.6875 C 25.025528,9.7194604 25.15554,9.6505278 25.1875,9.53125 L 26.96875,2.84375 C 27.00071,2.7244723 26.931778,2.6257103 26.8125,2.59375 L 26.375,2.46875 C 26.315361,2.4527698 26.236844,2.4402615 26.1875,2.46875 z M 16.46875,2.59375 L 16,2.71875 C 15.880722,2.7507104 15.81179,2.8807224 15.84375,3 L 17.65625,9.6875 C 17.68821,9.8067777 17.818222,9.8757105 17.9375,9.84375 L 18.375,9.71875 C 18.494278,9.6867896 18.56321,9.5567782 18.53125,9.4375 L 16.71875,2.75 C 16.68679,2.6307223 16.588028,2.5617896 16.46875,2.59375 z M 27.875,2.9375 C 27.823361,2.9615795 27.771118,3.0044809 27.75,3.0625 L 25.375,9.59375 C 25.332766,9.7097883 25.415211,9.8327654 25.53125,9.875 L 25.96875,10.03125 C 26.084788,10.073484 26.207765,10.022288 26.25,9.90625 L 28.59375,3.375 C 28.635984,3.2589617 28.584789,3.1359845 28.46875,3.09375 L 28.03125,2.9375 C 27.973231,2.9163828 27.926639,2.9134205 27.875,2.9375 z M 14.78125,3.125 L 14.375,3.28125 C 14.258962,3.3234845 14.176516,3.4464616 14.21875,3.5625 L 16.59375,10.09375 C 16.635984,10.209788 16.758961,10.260984 16.875,10.21875 L 17.3125,10.0625 C 17.428538,10.020266 17.479734,9.8972881 17.4375,9.78125 L 15.09375,3.25 C 15.051516,3.1339617 14.897288,3.0827656 14.78125,3.125 z M 29.5,3.5625 C 29.446459,3.5819873 29.401093,3.6315421 29.375,3.6875 L 26.4375,9.96875 C 26.385313,10.080666 26.450585,10.197813 26.5625,10.25 L 26.96875,10.4375 C 27.080666,10.489687 27.229063,10.455666 27.28125,10.34375 L 30.1875,4.0625 C 30.239687,3.9505842 30.205665,3.8334372 30.09375,3.78125 L 29.6875,3.5625 C 29.631542,3.5364064 29.553541,3.5430127 29.5,3.5625 z M 13.34375,3.78125 C 13.290209,3.7617627 13.243458,3.7864064 13.1875,3.8125 L 12.78125,4 C 12.669334,4.0521872 12.604062,4.1693341 12.65625,4.28125 L 15.59375,10.5625 C 15.645937,10.674416 15.763084,10.739687 15.875,10.6875 L 16.3125,10.46875 C 16.424416,10.416563 16.458437,10.299416 16.40625,10.1875 L 13.46875,3.90625 C 13.442656,3.8502921 13.397291,3.8007373 13.34375,3.78125 z M 31.0625,4.3125 C 31.007465,4.3272467 30.968371,4.3527792 30.9375,4.40625 L 27.46875,10.40625 C 27.407007,10.513191 27.455559,10.657008 27.5625,10.71875 L 27.9375,10.9375 C 28.044441,10.999243 28.188258,10.981942 28.25,10.875 L 31.71875,4.875 C 31.780493,4.7680585 31.731941,4.6242428 31.625,4.5625 L 31.25,4.34375 C 31.196529,4.3128786 31.117535,4.2977533 31.0625,4.3125 z M 11.8125,4.59375 C 11.757465,4.5790033 11.678471,4.5941286 11.625,4.625 L 11.25,4.84375 C 11.143059,4.9054927 11.094507,5.0493083 11.15625,5.15625 L 14.625,11.15625 C 14.686743,11.263191 14.830559,11.280493 14.9375,11.21875 L 15.3125,11 C 15.419441,10.938257 15.467993,10.794441 15.40625,10.6875 L 11.9375,4.6875 C 11.906629,4.6340293 11.867535,4.6084967 11.8125,4.59375 z M 32.5625,5.1875 C 32.506389,5.197394 32.472914,5.2306732 32.4375,5.28125 L 28.46875,10.96875 C 28.397922,11.069903 28.398846,11.210421 28.5,11.28125 L 28.875,11.53125 C 28.976153,11.602078 29.116671,11.601153 29.1875,11.5 L 33.15625,5.8125 C 33.227078,5.7113467 33.226152,5.5708283 33.125,5.5 L 32.75,5.25 C 32.699423,5.2145858 32.618611,5.177606 32.5625,5.1875 z M 10.34375,5.5 C 10.287639,5.4901061 10.206827,5.5270857 10.15625,5.5625 L 9.78125,5.8125 C 9.6800967,5.8833283 9.6791719,6.0238469 9.75,6.125 L 13.71875,11.8125 C 13.789578,11.913653 13.930097,11.914579 14.03125,11.84375 L 14.40625,11.59375 C 14.507403,11.522922 14.508328,11.382404 14.4375,11.28125 L 10.46875,5.59375 C 10.433336,5.5431733 10.399861,5.5098939 10.34375,5.5 z M 33.96875,6.21875 C 33.91199,6.2237159 33.883437,6.2339524 33.84375,6.28125 L 29.375,11.59375 C 29.295625,11.688345 29.311654,11.826875 29.40625,11.90625 L 29.75,12.21875 C 29.844595,12.298125 29.983125,12.282096 30.0625,12.1875 L 34.53125,6.875 C 34.610625,6.7804047 34.594596,6.641875 34.5,6.5625 L 34.15625,6.28125 C 34.108952,6.2415626 34.02551,6.2137841 33.96875,6.21875 z M 8.9375,6.5625 C 8.8807399,6.5575342 8.8285475,6.5853125 8.78125,6.625 L 8.4375,6.90625 C 8.3429047,6.9856249 8.3268751,7.1241545 8.40625,7.21875 L 12.84375,12.53125 C 12.923125,12.625845 13.092905,12.641875 13.1875,12.5625 L 13.53125,12.25 C 13.625845,12.170625 13.641875,12.032096 13.5625,11.9375 L 9.09375,6.65625 C 9.0540626,6.6089523 8.9942601,6.5674658 8.9375,6.5625 z M 35.3125,7.34375 C 35.255523,7.34375 35.199908,7.3625914 35.15625,7.40625 L 30.25,12.3125 C 30.162683,12.399817 30.162682,12.537683 30.25,12.625 L 30.5625,12.9375 C 30.649817,13.024817 30.787683,13.024817 30.875,12.9375 L 35.78125,8.0625 C 35.868567,7.9751826 35.868568,7.8373172 35.78125,7.75 L 35.46875,7.40625 C 35.425091,7.3625913 35.369477,7.34375 35.3125,7.34375 z M 7.65625,7.71875 C 7.5992731,7.71875 7.5436586,7.7688413 7.5,7.8125 L 7.1875,8.125 C 7.1001826,8.2123174 7.1001824,8.3501823 7.1875,8.4375 L 12.0625,13.34375 C 12.149817,13.431067 12.287683,13.431067 12.375,13.34375 L 12.71875,13 C 12.806067,12.912683 12.806067,12.774817 12.71875,12.6875 L 7.8125,7.8125 C 7.7688413,7.7688413 7.7132269,7.71875 7.65625,7.71875 z M 36.53125,8.59375 C 36.47449,8.5887842 36.422297,8.6165624 36.375,8.65625 L 31.0625,13.09375 C 30.967905,13.173125 30.951874,13.311654 31.03125,13.40625 L 31.3125,13.75 C 31.391875,13.844595 31.530404,13.860625 31.625,13.78125 L 36.9375,9.34375 C 37.032095,9.2643751 37.048125,9.1258457 36.96875,9.03125 L 36.6875,8.65625 C 36.647813,8.6089523 36.58801,8.5987158 36.53125,8.59375 z M 6.46875,9 C 6.4119898,9.0049659 6.3521875,9.0464523 6.3125,9.09375 L 6.03125,9.4375 C 5.9518751,9.5320953 5.9679049,9.6706253 6.0625,9.75 L 11.375,14.21875 C 11.469595,14.298125 11.608125,14.282096 11.6875,14.1875 L 11.96875,13.8125 C 12.048125,13.717905 12.032095,13.579375 11.9375,13.5 L 6.65625,9.0625 C 6.6089524,9.0228126 6.5255102,8.9950341 6.46875,9 z M 37.625,9.9375 C 37.568889,9.9276061 37.519327,9.9333357 37.46875,9.96875 L 31.78125,13.9375 C 31.680097,14.008328 31.647922,14.148847 31.71875,14.25 L 32,14.625 C 32.070828,14.726153 32.211345,14.758329 32.3125,14.6875 L 37.96875,10.71875 C 38.069903,10.647922 38.10208,10.507403 38.03125,10.40625 L 37.78125,10.03125 C 37.745836,9.9806733 37.681111,9.9473939 37.625,9.9375 z M 5.40625,10.375 C 5.3501387,10.384894 5.316664,10.418174 5.28125,10.46875 L 5,10.84375 C 4.9291717,10.944903 4.9613467,11.085422 5.0625,11.15625 L 10.71875,15.125 C 10.819903,15.195828 10.960422,15.163653 11.03125,15.0625 L 11.3125,14.6875 C 11.383328,14.586347 11.351153,14.445828 11.25,14.375 L 5.5625,10.40625 C 5.5119233,10.370836 5.4623613,10.365106 5.40625,10.375 z M 38.625,11.375 C 38.569965,11.360253 38.49097,11.375379 38.4375,11.40625 L 32.4375,14.84375 C 32.330559,14.905493 32.313257,15.049309 32.375,15.15625 L 32.59375,15.5625 C 32.655493,15.669441 32.799309,15.686743 32.90625,15.625 L 38.90625,12.1875 C 39.013191,12.125757 39.030492,11.981941 38.96875,11.875 L 38.75,11.46875 C 38.719129,11.415279 38.680035,11.389747 38.625,11.375 z M 4.46875,11.84375 C 4.4137145,11.858497 4.3746214,11.884029 4.34375,11.9375 L 4.09375,12.34375 C 4.0320073,12.450691 4.0805583,12.594508 4.1875,12.65625 L 10.1875,16.125 C 10.294441,16.186743 10.438257,16.138191 10.5,16.03125 L 10.71875,15.625 C 10.780493,15.518059 10.731941,15.374243 10.625,15.3125 L 4.625,11.875 C 4.5715293,11.844129 4.5237855,11.829003 4.46875,11.84375 z M 39.46875,12.875 C 39.415209,12.855513 39.337207,12.880157 39.28125,12.90625 L 33.03125,15.8125 C 32.919334,15.864687 32.854061,16.013084 32.90625,16.125 L 33.09375,16.53125 C 33.145937,16.643166 33.294333,16.708438 33.40625,16.65625 L 39.6875,13.71875 C 39.799416,13.666563 39.833436,13.518166 39.78125,13.40625 L 39.59375,13 C 39.567656,12.944042 39.522291,12.894487 39.46875,12.875 z M 3.65625,13.375 C 3.6027092,13.394487 3.5573436,13.444042 3.53125,13.5 L 3.34375,13.90625 C 3.2915628,14.018166 3.3255841,14.166563 3.4375,14.21875 L 9.71875,17.125 C 9.8306658,17.177187 9.9790628,17.143166 10.03125,17.03125 L 10.21875,16.625 C 10.270937,16.513084 10.205666,16.364687 10.09375,16.3125 L 3.8125,13.375 C 3.7565421,13.348906 3.7097908,13.355513 3.65625,13.375 z M 40,14.46875 L 33.5,16.84375 C 33.383962,16.885984 33.332767,17.008961 33.375,17.125 L 33.53125,17.5625 C 33.573484,17.678538 33.696462,17.729734 33.8125,17.6875 L 40.3125,15.3125 C 40.428538,15.270266 40.510984,15.147289 40.46875,15.03125 L 40.3125,14.59375 C 40.270266,14.477712 40.116039,14.426515 40,14.46875 z M 2.96875,14.96875 C 2.9171114,14.99283 2.8961173,15.066981 2.875,15.125 L 2.71875,15.53125 C 2.6765155,15.647288 2.7277116,15.770265 2.84375,15.8125 L 9.34375,18.1875 C 9.4597883,18.229734 9.5827659,18.178538 9.625,18.0625 L 9.78125,17.625 C 9.8234845,17.508962 9.7722886,17.385984 9.65625,17.34375 L 3.15625,14.96875 C 3.0982308,14.947633 3.0203886,14.94467 2.96875,14.96875 z M 40.59375,16.09375 L 33.90625,17.875 C 33.786972,17.90696 33.71804,18.036973 33.75,18.15625 L 33.875,18.59375 C 33.90696,18.713028 34.005722,18.781961 34.125,18.75 L 40.8125,16.96875 C 40.931778,16.93679 41.00071,16.806777 40.96875,16.6875 L 40.875,16.25 C 40.84304,16.130722 40.713029,16.061791 40.59375,16.09375 z M 2.4375,16.625 C 2.3881565,16.653488 2.3597302,16.721611 2.34375,16.78125 L 2.21875,17.21875 C 2.1867896,17.338028 2.2557221,17.468039 2.375,17.5 L 9.0625,19.28125 C 9.1817777,19.31321 9.3117896,19.244278 9.34375,19.125 L 9.46875,18.6875 C 9.5007104,18.568222 9.4317777,18.438211 9.3125,18.40625 L 2.625,16.625 C 2.5653611,16.60902 2.4868435,16.596512 2.4375,16.625 z M 41.03125,17.75 L 34.21875,18.96875 C 34.097141,18.990193 34.009808,19.09714 34.03125,19.21875 L 34.09375,19.6875 C 34.115193,19.809109 34.253389,19.865192 34.375,19.84375 L 41.1875,18.65625 C 41.309109,18.634807 41.396442,18.527859 41.375,18.40625 L 41.28125,17.9375 C 41.259807,17.815891 41.152861,17.728558 41.03125,17.75 z M 2.21875,18.3125 C 2.0971406,18.291057 1.990193,18.34714 1.96875,18.46875 L 1.90625,18.9375 C 1.884807,19.059109 1.9408906,19.166058 2.0625,19.1875 L 8.90625,20.40625 C 9.0278594,20.427693 9.1348071,20.34036 9.15625,20.21875 L 9.21875,19.75 C 9.240193,19.628391 9.1841097,19.521443 9.0625,19.5 L 2.21875,18.3125 z M 41.3125,19.46875 L 34.40625,20.0625 C 34.283234,20.073262 34.207988,20.189484 34.21875,20.3125 L 34.25,20.78125 C 34.260762,20.904266 34.376985,20.979512 34.5,20.96875 L 41.40625,20.375 C 41.529266,20.364238 41.604511,20.248016 41.59375,20.125 L 41.5625,19.65625 C 41.551738,19.533234 41.435514,19.457988 41.3125,19.46875 z M 2,20 C 1.8769845,19.989238 1.7607625,20.095734 1.75,20.21875 L 1.71875,20.65625 C 1.7079875,20.779265 1.7832344,20.895488 1.90625,20.90625 L 8.8125,21.5 C 8.9355155,21.510762 9.0517371,21.435516 9.0625,21.3125 L 9.09375,20.84375 C 9.1045125,20.720735 8.9980154,20.635762 8.875,20.625 L 2,20 z M 34.53125,21.1875 C 34.407765,21.1875 34.312498,21.282764 34.3125,21.40625 L 34.3125,21.875 C 34.3125,21.998485 34.407764,22.09375 34.53125,22.09375 L 41.4375,22.09375 C 41.560985,22.09375 41.687502,21.998486 41.6875,21.875 L 41.6875,21.40625 C 41.6875,21.282765 41.560986,21.1875 41.4375,21.1875 L 34.53125,21.1875 z M 1.90625,21.71875 C 1.7827646,21.71875 1.6875001,21.814014 1.6875,21.9375 L 1.6875,22.40625 C 1.6875,22.529735 1.7827646,22.625 1.90625,22.625 L 8.8125,22.625 C 8.9359854,22.625 9.0312503,22.529736 9.03125,22.40625 L 9.03125,21.9375 C 9.03125,21.814015 8.9359854,21.71875 8.8125,21.71875 L 1.90625,21.71875 z M 34.53125,22.3125 C 34.408235,22.301738 34.323261,22.376985 34.3125,22.5 L 34.25,22.96875 C 34.239238,23.091765 34.345736,23.207987 34.46875,23.21875 L 41.375,23.8125 C 41.498015,23.823262 41.582989,23.748015 41.59375,23.625 L 41.65625,23.15625 C 41.667012,23.033235 41.560517,22.917013 41.4375,22.90625 L 34.53125,22.3125 z M 8.84375,22.84375 L 1.96875,23.46875 C 1.8457345,23.479512 1.7392376,23.564485 1.75,23.6875 L 1.78125,24.15625 C 1.7920125,24.279266 1.9082346,24.354513 2.03125,24.34375 L 8.9375,23.75 C 9.0605155,23.739238 9.1357622,23.623016 9.125,23.5 L 9.09375,23.0625 C 9.0829875,22.939484 8.9667651,22.832988 8.84375,22.84375 z M 34.46875,23.4375 C 34.347141,23.416057 34.208942,23.503391 34.1875,23.625 L 34.125,24.0625 C 34.103557,24.184109 34.190889,24.291057 34.3125,24.3125 L 41.125,25.53125 C 41.246609,25.552693 41.353556,25.465359 41.375,25.34375 L 41.46875,24.875 C 41.490193,24.753391 41.402858,24.646444 41.28125,24.625 L 34.46875,23.4375 z M 9,23.96875 L 2.15625,25.15625 C 2.0346406,25.177693 1.978557,25.315892 2,25.4375 L 2.0625,25.875 C 2.083943,25.996609 2.1908906,26.083943 2.3125,26.0625 L 9.15625,24.84375 C 9.2778594,24.822307 9.3339434,24.715359 9.3125,24.59375 L 9.25,24.15625 C 9.228557,24.034641 9.1216095,23.947307 9,23.96875 z M 34.28125,24.53125 C 34.161972,24.49929 34.031959,24.568223 34,24.6875 L 33.875,25.125 C 33.84304,25.244278 33.911971,25.374289 34.03125,25.40625 L 40.71875,27.1875 C 40.838028,27.21946 40.968041,27.150527 41,27.03125 L 41.125,26.59375 C 41.15696,26.474472 41.088029,26.375711 40.96875,26.34375 L 34.28125,24.53125 z M 9.21875,25.0625 L 2.53125,26.84375 C 2.4119723,26.87571 2.3430396,27.005721 2.375,27.125 L 2.5,27.5625 C 2.5319604,27.681778 2.6307223,27.75071 2.75,27.71875 L 9.4375,25.9375 C 9.5567777,25.90554 9.6257104,25.775527 9.59375,25.65625 L 9.5,25.21875 C 9.4680396,25.099472 9.3380281,25.030539 9.21875,25.0625 z M 33.84375,25.625 C 33.792111,25.64908 33.739867,25.69198 33.71875,25.75 L 33.5625,26.1875 C 33.520266,26.303538 33.571463,26.426516 33.6875,26.46875 L 40.1875,28.84375 C 40.303538,28.885984 40.426517,28.834788 40.46875,28.71875 L 40.625,28.28125 C 40.667234,28.165212 40.616039,28.042235 40.5,28 L 34,25.625 C 33.941981,25.603883 33.895389,25.60092 33.84375,25.625 z M 9.53125,26.125 L 3.03125,28.5 C 2.9152117,28.542234 2.8640155,28.665212 2.90625,28.78125 L 3.0625,29.21875 C 3.1047345,29.334788 3.2277118,29.385984 3.34375,29.34375 L 9.84375,27 C 9.9597883,26.957766 10.010984,26.803538 9.96875,26.6875 L 9.8125,26.28125 C 9.7702655,26.165212 9.6472882,26.082765 9.53125,26.125 z M 33.46875,26.6875 C 33.415209,26.706987 33.369843,26.725292 33.34375,26.78125 L 33.125,27.21875 C 33.072813,27.330666 33.138085,27.447813 33.25,27.5 L 39.53125,30.4375 C 39.643166,30.489687 39.760315,30.424415 39.8125,30.3125 L 40,29.90625 C 40.052187,29.794334 40.018166,29.677188 39.90625,29.625 L 33.625,26.6875 C 33.569042,26.661406 33.522291,26.668013 33.46875,26.6875 z M 10.125,27.15625 C 10.071459,27.136763 9.993458,27.161406 9.9375,27.1875 L 3.6875,30.09375 C 3.5755842,30.145937 3.5103127,30.294333 3.5625,30.40625 L 3.75,30.8125 C 3.8021872,30.924416 3.950584,30.989687 4.0625,30.9375 L 10.34375,28 C 10.455666,27.947813 10.489687,27.799415 10.4375,27.6875 L 10.25,27.28125 C 10.223906,27.225292 10.178541,27.175737 10.125,27.15625 z M 33,27.6875 C 32.944964,27.702247 32.905872,27.727779 32.875,27.78125 L 32.625,28.1875 C 32.563257,28.294441 32.611809,28.438257 32.71875,28.5 L 38.71875,31.96875 C 38.825691,32.030493 38.969508,31.981941 39.03125,31.875 L 39.25,31.46875 C 39.311743,31.361809 39.263192,31.217992 39.15625,31.15625 L 33.15625,27.71875 C 33.102779,27.687879 33.055036,27.672753 33,27.6875 z M 10.625,28.15625 C 10.569964,28.141503 10.522221,28.156629 10.46875,28.1875 L 4.46875,31.65625 C 4.3618085,31.717993 4.3132571,31.830559 4.375,31.9375 L 4.59375,32.34375 C 4.6554927,32.450691 4.7993087,32.499241 4.90625,32.4375 L 10.90625,28.96875 C 11.013191,28.907007 11.061742,28.763191 11,28.65625 L 10.75,28.25 C 10.719129,28.196529 10.680036,28.170997 10.625,28.15625 z M 32.4375,28.65625 C 32.381389,28.666144 32.347915,28.699424 32.3125,28.75 L 32.03125,29.125 C 31.960422,29.226153 31.992597,29.366671 32.09375,29.4375 L 37.78125,33.40625 C 37.831826,33.441664 37.880873,33.449334 37.9375,33.4375 C 37.994127,33.425666 38.058335,33.394326 38.09375,33.34375 L 38.34375,32.96875 C 38.414578,32.867597 38.382403,32.727079 38.28125,32.65625 L 32.625,28.6875 C 32.574423,28.652086 32.493611,28.646356 32.4375,28.65625 z"
           transform="translate(-0.3144204,0)"
           id="rect4977"
           style="fill:#808080;fill-opacity:1;stroke:none;stroke-width:0.40000001000000002;stroke-linecap:round;stroke-linejoin:round;stroke-miterlimit:4;stroke-opacity:1" />
        <rect
           width="42.785408"
           height="31.44206"
           rx="0.236963"
           ry="0.22289784"
           x="-0.22261801"
           y="1.9899776"
           id="rect4947"
           style="opacity:0.01000001000000000;fill:#808080;fill-opacity:1;stroke:none;stroke-width:0.40000001000000002;stroke-linecap:round;stroke-linejoin:round;stroke-miterlimit:4;stroke-dasharray:none;stroke-opacity:1" />
      </g>
      <g
         transform="translate(0.3144201,0)"
         id="g4592">
        <rect
           width="0.90407372"
           height="7.37075"
           rx="0.22289784"
           ry="0.22289784"
           x="-30.378578"
           y="-12.456187"
           transform="matrix(-0.5,-0.8660254,0.8660254,-0.5,0,0)"
           id="rect2588"
           style="opacity:0.5;fill:url(#radialGradient3254);fill-opacity:1;stroke:none;stroke-width:0.40000001;stroke-linecap:round;stroke-linejoin:round;stroke-miterlimit:4;stroke-dasharray:none;stroke-opacity:1" />
        <use
           transform="matrix(0.9961947,8.7155743e-2,-8.7155743e-2,0.9961947,1.9908542,-1.7783177)"
           id="use3474"
           style="opacity:1;fill:#000000;stroke:none"
           x="0"
           y="0"
           width="1"
           height="1"
           xlink:href="#rect2588" />
        <use
           transform="matrix(0.9848078,0.1736482,-0.1736482,0.9848078,4.1291232,-3.3763541)"
           id="use3476"
           style="opacity:1;fill:#000000;stroke:none"
           x="0"
           y="0"
           width="1"
           height="1"
           xlink:href="#rect2588" />
        <use
           transform="matrix(0.9659258,0.258819,-0.258819,0.9659258,6.3985334,-4.781947)"
           id="use3478"
           style="opacity:1;fill:#000000;stroke:none"
           x="0"
           y="0"
           width="1"
           height="1"
           xlink:href="#rect2588" />
        <use
           transform="matrix(0.9396926,0.3420201,-0.3420201,0.9396926,8.7818134,-5.984399)"
           id="use3480"
           style="opacity:1;fill:#000000;stroke:none"
           x="0"
           y="0"
           width="1"
           height="1"
           xlink:href="#rect2588" />
        <use
           transform="matrix(0.9063078,0.4226183,-0.4226183,0.9063078,11.260825,-6.9745588)"
           id="use3482"
           style="opacity:1;fill:#000000;stroke:none"
           x="0"
           y="0"
           width="1"
           height="1"
           xlink:href="#rect2588" />
        <use
           transform="matrix(0.8660254,0.5,-0.5,0.8660254,13.816701,-7.7448907)"
           id="use3484"
           style="opacity:1;fill:#000000;stroke:none"
           x="0"
           y="0"
           width="1"
           height="1"
           xlink:href="#rect2588" />
        <use
           transform="matrix(0.819152,0.5735764,-0.5735764,0.819152,16.42999,-8.289532)"
           id="use3486"
           style="opacity:1;fill:#000000;stroke:none"
           x="0"
           y="0"
           width="1"
           height="1"
           xlink:href="#rect2588" />
        <use
           transform="matrix(0.7660444,0.6427876,-0.6427876,0.7660444,19.080804,-8.6043376)"
           id="use3488"
           style="opacity:1;fill:#000000;stroke:none"
           x="0"
           y="0"
           width="1"
           height="1"
           xlink:href="#rect2588" />
        <use
           transform="matrix(0.7071068,0.7071068,-0.7071068,0.7071068,21.748967,-8.6869116)"
           id="use3490"
           style="opacity:1;fill:#000000;stroke:none"
           x="0"
           y="0"
           width="1"
           height="1"
           xlink:href="#rect2588" />
        <use
           transform="matrix(0.6427876,0.7660444,-0.7660444,0.6427876,24.414174,-8.5366256)"
           id="use3492"
           style="opacity:1;fill:#000000;stroke:none"
           x="0"
           y="0"
           width="1"
           height="1"
           xlink:href="#rect2588" />
        <use
           transform="matrix(0.5735764,0.819152,-0.819152,0.5735764,27.056141,-8.1546235)"
           id="use3494"
           style="opacity:1;fill:#000000;stroke:none"
           x="0"
           y="0"
           width="1"
           height="1"
           xlink:href="#rect2588" />
        <use
           transform="matrix(0.5,0.8660254,-0.8660254,0.5,29.654761,-7.5438123)"
           id="use3496"
           style="opacity:1;fill:#000000;stroke:none"
           x="0"
           y="0"
           width="1"
           height="1"
           xlink:href="#rect2588" />
        <use
           transform="matrix(0.4226183,0.9063078,-0.9063078,0.4226183,32.190256,-6.7088409)"
           id="use3498"
           style="opacity:1;fill:#000000;stroke:none"
           x="0"
           y="0"
           width="1"
           height="1"
           xlink:href="#rect2588" />
        <use
           transform="matrix(0.3420201,0.9396926,-0.9396926,0.3420201,34.64333,-5.6560638)"
           id="use3500"
           style="opacity:1;fill:#000000;stroke:none"
           x="0"
           y="0"
           width="1"
           height="1"
           xlink:href="#rect2588" />
        <use
           transform="matrix(0.258819,0.9659258,-0.9659258,0.258819,36.995315,-4.3934933)"
           id="use3502"
           style="opacity:1;fill:#000000;stroke:none"
           x="0"
           y="0"
           width="1"
           height="1"
           xlink:href="#rect2588" />
        <use
           transform="matrix(0.1736482,0.9848078,-0.9848078,0.1736482,39.228309,-2.9307384)"
           id="use3504"
           style="opacity:1;fill:#000000;stroke:none"
           x="0"
           y="0"
           width="1"
           height="1"
           xlink:href="#rect2588" />
        <use
           transform="matrix(8.7155743e-2,0.9961947,-0.9961947,8.7155743e-2,41.325318,-1.2789314)"
           id="use3506"
           style="opacity:1;fill:#000000;stroke:none"
           x="0"
           y="0"
           width="1"
           height="1"
           xlink:href="#rect2588" />
        <use
           transform="matrix(0,1,-1,0,43.270383,0.5493564)"
           id="use3508"
           style="opacity:1;fill:#000000;stroke:none"
           x="0"
           y="0"
           width="1"
           height="1"
           xlink:href="#rect2588" />
        <use
           transform="matrix(-8.7155743e-2,0.9961947,-0.9961947,-8.7155743e-2,45.048701,2.5402106)"
           id="use3510"
           style="opacity:1;fill:#000000;stroke:none"
           x="0"
           y="0"
           width="1"
           height="1"
           xlink:href="#rect2588" />
        <use
           transform="matrix(-0.1736482,0.9848078,-0.9848078,-0.1736482,46.646737,4.6784795)"
           id="use3512"
           style="opacity:1;fill:#000000;stroke:none"
           x="0"
           y="0"
           width="1"
           height="1"
           xlink:href="#rect2588" />
        <use
           transform="matrix(-0.258819,0.9659258,-0.9659258,-0.258819,48.05233,6.9478898)"
           id="use3514"
           style="opacity:1;fill:#000000;stroke:none"
           x="0"
           y="0"
           width="1"
           height="1"
           xlink:href="#rect2588" />
        <use
           transform="matrix(-0.3420201,0.9396926,-0.9396926,-0.3420201,49.254782,9.3311698)"
           id="use3516"
           style="opacity:1;fill:#000000;stroke:none"
           x="0"
           y="0"
           width="1"
           height="1"
           xlink:href="#rect2588" />
        <use
           transform="matrix(-0.4226183,0.9063078,-0.9063078,-0.4226183,50.244942,11.810181)"
           id="use3518"
           style="opacity:1;fill:#000000;stroke:none"
           x="0"
           y="0"
           width="1"
           height="1"
           xlink:href="#rect2588" />
        <use
           transform="matrix(-0.5,0.8660254,-0.8660254,-0.5,51.015274,14.366057)"
           id="use3520"
           style="opacity:1;fill:#000000;stroke:none"
           x="0"
           y="0"
           width="1"
           height="1"
           xlink:href="#rect2588" />
        <use
           transform="matrix(-0.5735764,0.819152,-0.819152,-0.5735764,51.559915,16.979347)"
           id="use3522"
           style="opacity:1;fill:#000000;stroke:none"
           x="0"
           y="0"
           width="1"
           height="1"
           xlink:href="#rect2588" />
        <use
           transform="matrix(-0.6427876,0.7660444,-0.7660444,-0.6427876,51.874721,19.63016)"
           id="use3524"
           style="opacity:1;fill:#000000;stroke:none"
           x="0"
           y="0"
           width="1"
           height="1"
           xlink:href="#rect2588" />
        <use
           transform="matrix(-0.7071068,0.7071068,-0.7071068,-0.7071068,51.957295,22.298323)"
           id="use3526"
           style="opacity:1;fill:#000000;stroke:none"
           x="0"
           y="0"
           width="1"
           height="1"
           xlink:href="#rect2588" />
        <use
           transform="matrix(-0.7660444,0.6427876,-0.6427876,-0.7660444,51.807009,24.96353)"
           id="use3528"
           style="opacity:1;fill:#000000;stroke:none"
           x="0"
           y="0"
           width="1"
           height="1"
           xlink:href="#rect2588" />
        <use
           transform="matrix(-0.819152,0.5735764,-0.5735764,-0.819152,51.425007,27.605497)"
           id="use3530"
           style="opacity:1;fill:#000000;stroke:none"
           x="0"
           y="0"
           width="1"
           height="1"
           xlink:href="#rect2588" />
        <use
           transform="matrix(-0.8660254,0.5,-0.5,-0.8660254,50.814195,30.204117)"
           id="use3532"
           style="opacity:1;fill:#000000;stroke:none"
           x="0"
           y="0"
           width="1"
           height="1"
           xlink:href="#rect2588" />
        <use
           transform="matrix(-0.9063078,0.4226183,-0.4226183,-0.9063078,49.979224,32.739612)"
           id="use3534"
           style="opacity:1;fill:#000000;stroke:none"
           x="0"
           y="0"
           width="1"
           height="1"
           xlink:href="#rect2588" />
        <use
           transform="matrix(-0.9396926,0.3420201,-0.3420201,-0.9396926,48.926447,35.192687)"
           id="use3536"
           style="opacity:1;fill:#000000;stroke:none"
           x="0"
           y="0"
           width="1"
           height="1"
           xlink:href="#rect2588" />
        <use
           transform="matrix(-0.9659258,0.258819,-0.258819,-0.9659258,47.663876,37.544671)"
           id="use3538"
           style="opacity:1;fill:#000000;stroke:none"
           x="0"
           y="0"
           width="1"
           height="1"
           xlink:href="#rect2588" />
        <use
           transform="matrix(-0.9848078,0.1736482,-0.1736482,-0.9848078,46.201122,39.777665)"
           id="use3540"
           style="opacity:1;fill:#000000;stroke:none"
           x="0"
           y="0"
           width="1"
           height="1"
           xlink:href="#rect2588" />
        <use
           transform="matrix(-0.9961947,8.7155743e-2,-8.7155743e-2,-0.9961947,44.549315,41.874674)"
           id="use3542"
           style="opacity:1;fill:#000000;stroke:none"
           x="0"
           y="0"
           width="1"
           height="1"
           xlink:href="#rect2588" />
        <use
           transform="matrix(-1,0,0,-1,42.721027,43.81974)"
           id="use3544"
           style="opacity:1;fill:#000000;stroke:none"
           x="0"
           y="0"
           width="1"
           height="1"
           xlink:href="#rect2588" />
        <use
           transform="matrix(-0.9961947,-8.7155743e-2,8.7155743e-2,-0.9961947,40.730173,45.598057)"
           id="use3546"
           style="opacity:1;fill:#000000;stroke:none"
           x="0"
           y="0"
           width="1"
           height="1"
           xlink:href="#rect2588" />
        <use
           transform="matrix(-0.9848078,-0.1736482,0.1736482,-0.9848078,38.591904,47.196094)"
           id="use3548"
           style="opacity:1;fill:#000000;stroke:none"
           x="0"
           y="0"
           width="1"
           height="1"
           xlink:href="#rect2588" />
        <use
           transform="matrix(-0.9659258,-0.258819,0.258819,-0.9659258,36.322493,48.601687)"
           id="use3550"
           style="opacity:1;fill:#000000;stroke:none"
           x="0"
           y="0"
           width="1"
           height="1"
           xlink:href="#rect2588" />
        <use
           transform="matrix(-0.9396926,-0.3420201,0.3420201,-0.9396926,33.939213,49.804139)"
           id="use3552"
           style="opacity:1;fill:#000000;stroke:none"
           x="0"
           y="0"
           width="1"
           height="1"
           xlink:href="#rect2588" />
        <use
           transform="matrix(-0.9063078,-0.4226183,0.4226183,-0.9063078,31.460202,50.794298)"
           id="use3554"
           style="opacity:1;fill:#000000;stroke:none"
           x="0"
           y="0"
           width="1"
           height="1"
           xlink:href="#rect2588" />
        <use
           transform="matrix(-0.8660254,-0.5,0.5,-0.8660254,28.904326,51.56463)"
           id="use3556"
           style="opacity:1;fill:#000000;stroke:none"
           x="0"
           y="0"
           width="1"
           height="1"
           xlink:href="#rect2588" />
        <use
           transform="matrix(-0.819152,-0.5735764,0.5735764,-0.819152,26.291037,52.109272)"
           id="use3558"
           style="opacity:1;fill:#000000;stroke:none"
           x="0"
           y="0"
           width="1"
           height="1"
           xlink:href="#rect2588" />
        <use
           transform="matrix(-0.7660444,-0.6427876,0.6427876,-0.7660444,23.640223,52.424077)"
           id="use3560"
           style="opacity:1;fill:#000000;stroke:none"
           x="0"
           y="0"
           width="1"
           height="1"
           xlink:href="#rect2588" />
        <use
           transform="matrix(-0.7071068,-0.7071068,0.7071068,-0.7071068,20.97206,52.506651)"
           id="use3562"
           style="opacity:1;fill:#000000;stroke:none"
           x="0"
           y="0"
           width="1"
           height="1"
           xlink:href="#rect2588" />
        <use
           transform="matrix(-0.6427876,-0.7660444,0.7660444,-0.6427876,18.306853,52.356365)"
           id="use3564"
           style="opacity:1;fill:#000000;stroke:none"
           x="0"
           y="0"
           width="1"
           height="1"
           xlink:href="#rect2588" />
        <use
           transform="matrix(-0.5735764,-0.819152,0.819152,-0.5735764,15.664886,51.974363)"
           id="use3566"
           style="opacity:1;fill:#000000;stroke:none"
           x="0"
           y="0"
           width="1"
           height="1"
           xlink:href="#rect2588" />
        <use
           transform="matrix(-0.5,-0.8660254,0.8660254,-0.5,13.066266,51.363552)"
           id="use3568"
           style="opacity:1;fill:#000000;stroke:none"
           x="0"
           y="0"
           width="1"
           height="1"
           xlink:href="#rect2588" />
        <use
           transform="matrix(-0.4226183,-0.9063078,0.9063078,-0.4226183,10.530771,50.52858)"
           id="use3570"
           style="opacity:1;fill:#000000;stroke:none"
           x="0"
           y="0"
           width="1"
           height="1"
           xlink:href="#rect2588" />
      </g>
      <g
         transform="matrix(0.9722221,0,0,0.9892353,1.0833381,1.0866759)"
         id="g3776"
         style="fill:#000000;fill-opacity:1;stroke:none" />
      <g
         transform="translate(0.2002299,0.4755459)"
         id="g7546">
        <path
           d="M 13.205245,23.341509 L 29.566753,23.341509 C 30.790965,24.853421 29.555744,23.341509 30.790965,24.946977 L 30.790965,31.532618 C 30.790965,33.091224 30.748535,33.138088 29.566753,33.138088 L 13.205245,33.138088 L 11.981032,31.532618 L 11.981032,24.946977 C 11.981032,23.415128 12.001573,23.341509 13.205245,23.341509 z"
           id="path7518"
           style="fill:url(#linearGradient7667);fill-opacity:1;fill-rule:evenodd;stroke:none;stroke-width:3.19400001;stroke-linecap:round;stroke-linejoin:round;stroke-miterlimit:4;stroke-opacity:0.50196078" />
        <path
           d="M 14.37604,24.186934 L 28.395958,24.186934 C 29.444965,25.437896 28.386524,24.186934 29.444965,25.515305 L 29.444965,30.964291 C 29.444965,32.253888 29.408607,32.292663 28.395958,32.292663 L 14.37604,32.292663 L 13.327032,30.964291 L 13.327032,25.515305 C 13.327032,24.247846 13.344633,24.186934 14.37604,24.186934 z"
           id="path7516"
           style="fill:url(#linearGradient7669);fill-opacity:1;fill-rule:evenodd;stroke:none;stroke-width:3.19400001;stroke-linecap:round;stroke-linejoin:round;stroke-miterlimit:4;stroke-opacity:0.50196078" />
        <path
           d="M 14.763085,25 L 28.008913,25 C 29,26 28,25 29,26.061879 L 29,30.417717 C 29,31.448601 28.965649,31.479597 28.008913,31.479597 L 14.763085,31.479597 L 13.771997,30.417717 L 13.771997,26.061879 C 13.771997,25.048692 13.788627,25 14.763085,25 z"
           id="rect7513"
           style="fill:url(#linearGradient7555);fill-opacity:1;fill-rule:evenodd;stroke:none;stroke-width:3.19400001;stroke-linecap:round;stroke-linejoin:round;stroke-miterlimit:4;stroke-opacity:0.50196078" />
      </g>
    </g>
    <rect
       width="15.177945"
       height="6.4795966"
       x="13.986114"
       y="25.439762"
       id="label1"
       style="opacity:1;fill:#0000ff;fill-opacity:0.50196078;fill-rule:evenodd;stroke:none;stroke-width:3.19400001;stroke-linecap:round;stroke-linejoin:round;stroke-miterlimit:4;stroke-dasharray:none;stroke-opacity:0.50196078" />
    <path
       d="M 22.075342,20.700548 C 22.075342,20.935539 21.873638,21.126037 21.624824,21.126037 C 21.376011,21.126037 21.174307,20.935539 21.174307,20.700548 C 21.174307,20.465557 21.376011,20.275059 21.624824,20.275059 C 21.873638,20.275059 22.075342,20.465557 22.075342,20.700548 z"
       transform="translate(-0.2502874,1.1012642)"
       id="rotatecenter"
       style="opacity:0.2;fill:#000000;fill-opacity:1;stroke:none;stroke-width:0.40000001;stroke-linecap:round;stroke-linejoin:round;stroke-miterlimit:4;stroke-dasharray:none;stroke-opacity:1" />
    <rect
       width="43"
       height="8"
       x="0"
       y="34"
       id="label0"
       style="opacity:1;fill:#0000ff;fill-opacity:0.50196078;fill-rule:evenodd;stroke:none;stroke-width:3.19400001;stroke-linecap:round;stroke-linejoin:round;stroke-miterlimit:4;stroke-dasharray:none;stroke-opacity:0.50196078" />
    <rect
       width="260"
       height="100"
       x="0"
       y="52"
       id="rotateminmax"
       style="opacity:1;fill:#0000ff;fill-opacity:1;fill-rule:evenodd;stroke:none;stroke-width:4;stroke-linecap:round;stroke-linejoin:round;stroke-miterlimit:4;stroke-dasharray:none;stroke-opacity:0.66161613" />
    <path
       d="M 23.630103,20.818264 L 21.636711,40.522787 L 19.124982,20.954822 L 21.69646,19.23553 L 23.630103,20.818264 z"
       id="pointer-shadow"
       style="fill:#000000;fill-opacity:0.20329668;fill-rule:evenodd;stroke:none;stroke-width:1px;stroke-linecap:butt;stroke-linejoin:miter;stroke-opacity:1" />
    <path
       d="M 21.5625,19.743056 L 20.15625,21.336806 L 21.53125,39.586806 L 22.59375,21.211806 L 21.5625,19.743056 z M 21.46875,20.805556 L 21.9375,21.649306 L 21.4375,32.430556 L 20.8125,21.743056 L 21.46875,20.805556 z"
       id="pointer"
       style="fill:#ffffff;fill-opacity:1;fill-rule:evenodd;stroke:none;stroke-width:1px;stroke-linecap:butt;stroke-linejoin:miter;stroke-opacity:1" />
    <rect
       style="fill:#00ffff;fill-opacity:1;stroke:none"
       id="hint-apply-color-scheme"
       width="3.9368556"
       height="3.8011019"
       x="-22.874489"
       y="-0.49088979"
       inkscape:label="#rect2903" />
  </g>
</svg>
