<?xml version="1.0" encoding="UTF-8" standalone="no"?>
<!-- Created with Inkscape (http://www.inkscape.org/) -->

<svg
   xmlns:dc="http://purl.org/dc/elements/1.1/"
   xmlns:cc="http://creativecommons.org/ns#"
   xmlns:rdf="http://www.w3.org/1999/02/22-rdf-syntax-ns#"
   xmlns:svg="http://www.w3.org/2000/svg"
   xmlns="http://www.w3.org/2000/svg"
   xmlns:sodipodi="http://sodipodi.sourceforge.net/DTD/sodipodi-0.dtd"
   xmlns:inkscape="http://www.inkscape.org/namespaces/inkscape"
   width="80"
   height="15"
   id="svg2"
   sodipodi:version="0.32"
   inkscape:version="0.47pre4 r22446"
   version="1.0"
   sodipodi:docname="branding.svg"
   inkscape:output_extension="org.inkscape.output.svgz.inkscape">
  <sodipodi:namedview
     id="base"
     pagecolor="#ffffff"
     bordercolor="#666666"
     borderopacity="1.0"
     gridtolerance="10000"
     guidetolerance="10"
     objecttolerance="10"
     inkscape:pageopacity="0.0"
     inkscape:pageshadow="2"
     inkscape:zoom="6.585914"
     inkscape:cx="31.62022"
     inkscape:cy="17.563362"
     inkscape:document-units="px"
     inkscape:current-layer="brilliant"
     inkscape:window-width="1024"
     inkscape:window-height="715"
     inkscape:window-x="-15"
     inkscape:window-y="0"
     showgrid="false"
     inkscape:window-maximized="1" />
  <defs
     id="defs4" />
  <metadata
     id="metadata7">
    <rdf:RDF>
      <cc:Work
         rdf:about="">
        <dc:format>image/svg+xml</dc:format>
        <dc:type
           rdf:resource="http://purl.org/dc/dcmitype/StillImage" />
        <dc:title></dc:title>
      </cc:Work>
    </rdf:RDF>
  </metadata>
  <g
     inkscape:label="Layer 1"
     transform="translate(-335,-524.86218)"
     id="layer1"
     inkscape:groupmode="layer">
    <g
       id="brilliant"
       inkscape:label="#g2840">
      <g
         style="font-size:13.68381691px;font-style:normal;font-variant:normal;font-weight:normal;font-stretch:normal;text-align:center;text-anchor:middle;fill:#808080;fill-opacity:1;stroke:none;font-family:Telegram HPLHS;-inkscape-font-specification:'10.15 Saturday Night BRK'"
         id="hint-apply-color-scheme"
         inkscape:label="#text2814">
        <path
           d="m 343.34848,537.35677 c 0.0274,-0.12315 0.041,-0.23262 0.041,-0.32841 c 0,-0.5063 -0.35578,-0.73893 -0.68419,-1.06734 c -0.0684,-0.25999 -0.35578,-0.20526 -0.36946,-0.5063 c -0.45157,-0.21894 -0.49262,-0.57472 -0.68419,-0.97155 c -0.16421,-0.0684 -0.25999,-0.32841 -0.45157,-0.35578 c -0.0411,0 -0.0547,-0.0274 -0.0547,-0.0547 c 0,-0.0137 0.0137,-0.0411 0.0137,-0.0547 c -0.21894,-0.0958 -0.12315,-0.45157 -0.25999,-0.56104 c -0.0274,0.0137 -0.0547,0.0137 -0.0821,0.0137 c -0.12316,0 -0.13684,-0.0958 -0.13684,-0.20526 l 0,-0.12315 c 0,-0.21894 -0.12316,-0.19158 -0.12316,-0.49262 c 0,-0.38315 -0.10947,-0.38315 -0.35578,-0.38315 l -0.0684,0 c -0.35577,0 -0.35577,-0.61577 -0.35577,-0.87576 l 0,-0.0411 c 0,-0.31473 0.0274,-0.41052 0.41051,-0.41052 c 0.0821,0 0.15052,-0.0137 0.19157,-0.0411 c 0.12316,-0.24631 0.45157,-0.25999 0.51999,-0.47893 c 0,-0.0684 0,-0.13684 0.0958,-0.13684 c 0,-0.30105 0.28736,-0.4242 0.49261,-0.49262 c 0,-0.0137 -0.0137,-0.0274 -0.0137,-0.0411 c 0,-0.19157 0.34209,-0.12316 0.34209,-0.31473 c 0,-0.0274 -0.0137,-0.0684 -0.0274,-0.10947 c 0.31472,-0.19157 0.39683,-0.61577 0.75261,-0.73892 c 0.43788,-0.15053 0.82103,-0.80735 0.82103,-0.99892 c 0,-0.17789 -0.0137,-0.47894 -0.17789,-0.47894 c -0.0684,-0.23262 -0.3421,-0.23262 -0.60209,-0.23262 c -0.16421,0 -0.38315,0.0137 -0.38315,0.23262 c 0,0.0137 0,0.0411 0.0137,0.0547 c -0.0821,0.0684 -0.0274,0.21894 -0.12316,0.21894 c -0.0137,0 -0.0274,-0.0137 -0.041,-0.0137 l 0,0.13683 c -0.30104,0.0684 -0.4242,0.58841 -0.4242,0.64314 c 0,0.0821 -0.0137,0.10947 -0.12315,0.10947 c -0.46525,0 -0.45157,0.62946 -0.80735,0.73893 c 0,0.20526 -0.1642,0.15052 -0.1642,0.32841 c 0,0.3421 -0.4242,0.38315 -0.57472,0.57472 c -0.27368,0 -0.23263,0.28736 -0.43789,0.35578 c -0.0958,0.0274 -0.15052,0.0274 -0.15052,0.13684 c 0,0.0547 0.041,0.12315 0.041,0.17789 c 0,0.13684 -0.28736,0.60209 -0.36946,0.60209 c -0.27368,0 -0.41052,0.24631 -0.5063,0.42419 c -0.32841,0.0274 -0.24631,0.45157 -0.4242,0.62946 c -0.38315,0 -0.16421,0.4242 -0.47893,0.47893 c -0.0411,-0.0137 -0.0821,-0.0137 -0.10947,-0.0137 c -0.16421,0 -0.17789,0.17789 -0.39683,0.17789 c -0.0821,0 -0.0821,-0.0958 -0.0821,-0.16421 c 0.0137,-0.0821 0.0684,-0.0958 0.13684,-0.0958 c 0.041,0 0.0958,0.0137 0.15052,0.0137 c 0.0274,0 0.041,0 0.0684,-0.0137 l 0,-0.0684 c -0.17789,-0.0684 0,-0.35578 -0.25999,-0.35578 c -0.041,-0.0137 -0.0547,-0.0547 -0.0547,-0.0821 c 0,-0.17789 0.19158,-0.0684 0.19158,-0.23263 c 0,-0.15052 -0.15052,-0.19157 -0.17789,-0.31473 c 0.041,-0.1642 0.30104,-0.25999 0.30104,-0.41051 c 0,-0.0684 -0.0958,0.0411 -0.0958,-0.28736 c 0,-0.0684 0.0137,-0.13684 0.0958,-0.15052 l 0.0274,-0.71156 c -0.15052,-0.10947 -0.16421,-0.31473 -0.16421,-0.5063 l 0,-0.16421 c 0.12316,-0.0684 0.16421,-0.13684 0.16421,-0.20526 c 0,-0.13683 -0.16421,-0.30104 -0.16421,-0.49261 c 0,-0.0137 0.0274,-0.10947 0.13684,-0.10947 l 0,-0.13684 c -0.0137,0.0137 -0.0274,0.0137 -0.0411,0.0137 c -0.0137,0 -0.041,-0.0137 -0.0547,-0.0411 c 0.13684,-0.12315 0.0137,-0.4242 0.31473,-0.4242 l 0,-0.30104 l -0.0821,0 c -0.0958,0 -0.49262,-0.43788 -0.49262,-0.72524 c -0.46525,0 -0.41051,0.49261 -0.69787,0.6705 c -0.0411,0.12316 -0.0547,0.26 -0.0547,0.39683 c 0,0.20526 0.0411,0.41052 0.12316,0.54736 c 0,0.0411 -0.0137,0.0821 -0.0547,0.0821 c 0,0 -0.0137,-0.0137 -0.0137,-0.0137 l -0.0411,0.51998 l 0.0684,0 c 0.0821,0.0684 0.0958,0.13684 0.0958,0.21894 c 0,0.0547 -0.0137,0.12316 -0.0137,0.17789 c 0,0.0274 0.0137,0.0411 0.0137,0.0684 c -0.17789,0.0958 -0.17789,0.23262 -0.17789,0.3421 c 0,0.0137 0,0.0274 0,0.0274 c 0,0.28736 0.19158,0.49262 0.19158,0.82103 c 0,0.0411 -0.0274,0.25999 -0.13684,0.25999 c -0.0137,0 -0.0274,0 -0.0411,-0.0137 l 0,0.21894 c 0.13683,0.0958 0.17789,0.27368 0.17789,0.45157 c 0,0.13684 -0.0274,0.28736 -0.0274,0.4242 c 0,0.0411 0,0.0821 0.0137,0.12315 c -0.0411,0.0411 -0.0821,0.10947 -0.10947,0.10947 c 0,0 -0.0137,-0.0137 -0.0137,-0.0137 l 0,0.12315 c 0.20525,0.25999 0.041,0.68419 0.28736,0.94418 c -0.0821,0.17789 -0.28736,0.27368 -0.49262,0.27368 c 0,0.38315 0.23263,0.64314 0.23263,1.03997 c 0.0411,0.0137 0.0547,0.0274 0.0547,0.0684 c 0,0.0547 -0.0274,0.13684 -0.0821,0.13684 l -0.0411,1.38206 c -0.13684,0.10947 -0.0958,0.31473 -0.35578,0.31473 c -0.0137,0.0547 -0.0274,0.10947 -0.0274,0.15052 c 0,0.24631 0.21894,0.3421 0.21894,0.64314 c 0,0.12316 0.21894,0.0547 0.21894,0.17789 c 0,0.0274 0,0.0547 -0.0137,0.0821 l 1.05365,0.0274 c 0.0821,-0.0547 -0.0137,-0.30104 0.13684,-0.30104 c 0.0137,0 0.041,0 0.0821,0.0137 c -0.041,-0.61577 -0.19157,-1.20417 -0.19157,-1.861 c 0,-0.17789 0.0137,-0.36946 0.0411,-0.56103 l 0.0547,0 c 0,-0.15052 -0.10947,-0.19158 -0.10947,-0.41052 c 0,-0.0821 0.0137,-0.17789 0.0547,-0.27367 c 0.15052,0 0.17789,-0.0958 0.17789,-0.21894 c 0,-0.10947 -0.0274,-0.23263 -0.0274,-0.32842 c 0,-0.49261 0.54736,-0.21894 0.54736,-0.60208 c 0,-0.0411 0,-0.0821 -0.0137,-0.13684 c 0.0684,0 0.10947,-0.0547 0.19157,-0.0547 c 0.0274,0 0.0411,0 0.0684,0.0137 c 0.12316,-0.31473 0.56104,-0.41052 0.8484,-0.47894 c 0.4242,0 0.4242,0.49262 0.5884,0.75261 c 0.19158,0.15052 0.30105,0.35578 0.53367,0.4242 l -0.10947,0.13684 c 0.0137,0.0274 0.0137,0.0547 0.0137,0.0821 c 0,0.10947 -0.041,0.23263 -0.041,0.32841 c 0,0.15053 0.0547,0.17789 0.23262,0.17789 c 0,0.56104 0.5063,0.53367 0.68419,0.94419 c -0.0274,0.0274 -0.041,0.041 -0.0684,0.041 c -0.0137,0 -0.0137,-0.0137 -0.0274,-0.0137 c -0.0137,0.0411 -0.0274,0.0821 -0.0274,0.10947 c 0,0.23263 0.36946,0.26 0.36946,0.50631 c 0,0.0411 -0.0137,0.0958 -0.041,0.15052 l 0.0821,0 c 0.041,0.0137 0.0547,0.0547 0.0547,0.0821 c 0,0.0274 -0.0137,0.0684 -0.0137,0.0821 l 0.16421,0 c 0.0547,0.24631 0.20526,0.36947 0.20526,0.60209 c 0,0.0411 0,0.0958 -0.0137,0.13684 c 0.0958,0 0.0958,0.12315 0.20526,0.12315 c 0.0137,0 0.041,0 0.0684,-0.0137 c 0,0.23263 0.21894,0.31473 0.21894,0.51999 c 0.10947,0.0684 0.32841,0.0274 0.36946,0.1642 l 0.21894,0 l 0,-0.13684 c -0.0137,0 -0.0137,0.0137 -0.0274,0.0137 c -0.0684,0 -0.0684,-0.16421 -0.0684,-0.19158 c 0,-0.0958 0.0684,-0.12315 0.1642,-0.12315 c 0.0547,0 0.13684,0.0137 0.19158,0.0137 c 0.0684,0 0.12315,0 0.1642,-0.0411 m -3.59884,-3.43464 c 0.0137,-0.0274 0.0137,-0.0411 0.0137,-0.0684 c 0,-0.0547 -0.0821,-0.041 -0.0821,-0.13683 l -0.16421,0.20525 l 0.23263,0"
           style="stroke:#808080;stroke-width:0.50000000000000000;stroke-miterlimit:4;stroke-dasharray:none;stroke-linejoin:round;stroke-linecap:round"
           id="path2846" />
        <path
           d="m 352.34409,531.89693 c -0.19157,-0.0411 -0.21894,-0.15052 -0.21894,-0.28736 c 0,-0.0821 0.0137,-0.17789 0.0137,-0.27368 c 0,-0.10947 -0.0274,-0.21894 -0.0958,-0.32841 c 0,-0.0684 0.0274,-0.13684 0.0958,-0.13684 c 0,-0.0547 -0.0137,-0.10947 -0.0137,-0.1642 c 0,-0.13684 0.0137,-0.26 0.0137,-0.38315 c 0,-0.0821 -0.0137,-0.49262 -0.12316,-0.49262 c -0.10947,0 -0.10947,-0.0958 -0.10947,-0.17789 l 0,-0.0274 c 0,-0.27368 -0.39683,-0.71156 -0.60209,-1.1905 c -0.0137,-0.30104 -0.10947,-0.5063 -0.2463,-0.73892 l -0.12316,0 c -0.0137,0 -0.0137,0.0137 -0.0274,0.0137 c -0.0274,0 -0.0684,-0.0411 -0.0684,-0.0684 c 0,-0.0137 0.0137,-0.0137 0.0137,-0.0274 c -0.0821,0 -0.15052,0.0137 -0.23263,0.0137 c -0.0821,0 -0.17789,-0.0137 -0.2463,-0.0684 l 0,-0.0137 c -0.0411,-0.0547 -0.0958,-0.0547 -0.16421,-0.0547 c -0.0821,0 -0.15052,0 -0.19157,-0.0821 c -0.10947,-0.13684 -0.28736,-0.28736 -0.47894,-0.36947 l -0.13684,0 l 0,0.0411 c -0.0137,0.041 -0.0547,0.0547 -0.0958,0.0547 c -0.0547,0 -0.10947,-0.0137 -0.10947,-0.0958 l -0.10947,0 c -0.0958,0.0821 -0.20526,0.10947 -0.32842,0.10947 c -0.20525,0 -0.45156,-0.0684 -0.6705,-0.0684 l 0,-0.0411 c -0.27368,0 -0.0958,0.0821 -0.3421,0.0821 c -0.0137,-0.0137 -0.041,-0.041 -0.041,-0.0821 l -0.10947,0 c -0.0958,0 -0.16421,0 -0.16421,-0.0958 l -0.91681,-0.0274 l 0,-0.0411 c -0.0547,0 -0.12316,0.0137 -0.17789,0.0137 c -0.17789,0 -0.36946,-0.0137 -0.54735,-0.0137 c -0.19158,0 -0.36947,0.0137 -0.51999,0.0684 l 0,0.87576 c 0.0684,0.0821 0.20526,0.13684 0.20526,0.30105 c 0.10947,-0.0547 0.17789,-0.0684 0.24631,-0.0684 c 0.30104,0 0.0821,0.5884 0.25999,0.75261 c 0.0547,0.0411 0.0684,0.23262 0.0684,0.27367 c 0,0.30105 -0.27368,0.26 -0.27368,0.49262 c 0,0.12315 0.0137,0.23262 0.10947,0.25999 c 0,0.10947 0.0137,0.20526 0.0137,0.28736 c 0,0.0821 -0.0137,0.15052 -0.0547,0.21894 l -0.0274,0 l 0,0.0821 c 0,0.0821 0,0.15052 0.0684,0.21894 c -0.0137,0.0274 -0.0274,0.0411 -0.0547,0.0411 c 0,0 -0.0137,-0.0137 -0.0137,-0.0137 c -0.0137,0.0411 -0.0137,0.0958 -0.0137,0.13683 c 0,0.10947 0.0137,0.21894 0.0137,0.32842 c 0,0.2463 -0.15052,0.32841 -0.15052,0.56103 c 0,0.35578 0.15052,0.65683 0.15052,0.95787 c 0,0.15052 -0.041,0.30104 -0.13683,0.46525 l 0.0547,0 c 0.0411,0.0411 0.0684,0.12315 0.0684,0.20526 c 0,0.2463 -0.19157,0.12315 -0.19157,0.32841 c 0.17789,0 0.20525,0.0958 0.20525,0.23262 c 0,0.0958 -0.0137,0.23263 -0.0137,0.3421 c 0,0.0547 0,0.0958 0.0137,0.13684 c -0.0137,0.0547 -0.0821,0.12315 -0.1642,0.12315 c -0.0137,0 -0.0274,-0.0137 -0.0411,-0.0137 c 0.0137,0.1642 0.0684,0.35578 0.0684,0.56103 c 0,0.0821 -0.0137,0.17789 -0.0411,0.27368 l -0.0274,0 c 0,0.0821 -0.0137,0.16421 -0.0137,0.23262 c 0,0.0958 0.0821,0.0274 0.0821,0.21895 c 0,0.0821 -0.0137,0.15052 -0.0684,0.1642 c 0.0547,0.041 0.0684,0.0958 0.0684,0.13684 c 0,0.10947 -0.13684,0.21894 -0.15053,0.36946 c -0.13683,-0.0274 -0.30104,0.0137 -0.42419,-0.0547 l 0,0.12315 c -0.12316,0.12316 -0.3421,0.47894 -0.3421,0.71156 c 0,0.0547 0.0137,0.12315 0.0547,0.20526 c 0.20525,0.0274 -0.0274,0.27367 0.45156,0.27367 c 0.3421,0 0.72524,-0.12315 0.95787,-0.12315 c 0.10947,0 0.10947,0.12315 0.20526,0.12315 c 0.0958,0 0.13683,-0.10947 0.20525,-0.10947 c 0.0137,0 0.0547,0.0137 0.0821,0.0821 l 0,-0.0411 c 0.0958,-0.0684 0.19157,-0.0958 0.30104,-0.0958 c 0.17789,0 0.35578,0.0684 0.47893,0.13684 c 0.20526,0.0547 0.47894,0.0547 0.61578,0.1642 c 0.25999,-0.1642 0.71155,-0.0547 1.03997,-0.13684 c 0.20525,-0.0547 0.31472,-0.20525 0.56103,-0.21894 c 0.0411,0 0.0958,0 0.15052,0.0137 c 0.10947,-0.12316 0.31473,-0.0958 0.35578,-0.32842 c 0.53367,-0.15052 0.7663,-0.64314 1.13576,-1.02628 c 0.0274,-0.0137 0.0274,-0.0411 0.0274,-0.0684 l 0,-0.0547 c 0,-0.0411 0.0137,-0.0821 0.0821,-0.0821 c -0.0137,-0.0411 -0.0137,-0.0821 -0.0137,-0.10947 c 0,-0.28736 0.38314,-0.24631 0.38314,-0.5063 c 0.0274,-0.0274 0.0411,-0.0547 0.0958,-0.0547 c -0.0684,-0.0274 -0.0958,-0.0547 -0.0958,-0.0821 c 0,-0.0684 0.0958,-0.12315 0.0958,-0.19157 c 0,-0.0274 -0.0274,-0.0684 -0.0958,-0.0958 c 0.15053,-0.0684 0.17789,-0.19157 0.17789,-0.32841 c 0,-0.10947 -0.0137,-0.20526 -0.0137,-0.31473 c 0,-0.21894 0.13684,-0.31473 0.13684,-0.45156 c 0,-0.16421 -0.10947,-0.32842 -0.10947,-0.53367 c 0,-0.0684 0.0137,-0.15053 0.0547,-0.23263 l 0.0547,0 l 0,-0.10947 c 0,-0.12315 -0.0547,-0.0547 -0.0958,-0.13684 l 0.041,-0.0411 c -0.0137,0 -0.041,-0.0274 -0.041,-0.0684 c 0.12315,-0.12315 0.13684,-0.10947 0.13684,-0.24631 c 0,-0.0958 -0.0137,-0.17789 -0.0137,-0.2463 c 0,-0.12316 0.0274,-0.21895 0.17788,-0.27368 m -1.08102,-0.27368 c -0.13683,0.13684 -0.0684,0.47894 -0.20525,0.61577 c 0.12315,0.0547 0.0547,0.32842 0.0958,0.36947 c -0.12315,0.25999 -0.15052,0.5884 -0.15052,0.91681 c 0,0.17789 0.0137,0.35578 0.0137,0.51999 c 0,0.13684 0,0.25999 -0.0137,0.38314 c -0.0684,0.0547 -0.0821,0.10948 -0.0821,0.16421 c 0,0.12315 0.0958,0.24631 0.0958,0.3421 c 0,0.0547 -0.0274,0.10947 -0.12315,0.15052 c -0.20526,0.23262 -0.30104,0.61577 -0.67051,0.67051 c -0.38314,0.0547 -0.53367,0.62945 -0.95786,0.62945 c -0.0821,0 -0.19158,-0.0137 -0.27368,-0.0137 c -0.10947,0 -0.20526,0.0137 -0.27368,0.0684 l 0,0.13683 c -0.0547,-0.0684 -0.1642,-0.0821 -0.25999,-0.0821 c 0,-0.0547 -0.0137,-0.0547 -0.0411,-0.0684 c -0.041,0.0684 -0.0684,0.0684 -0.16421,0.0684 l -0.13683,0 c 0,-0.0821 -0.0958,-0.13684 -0.17789,-0.13684 c -0.24631,0 -0.20526,0.3421 -0.4242,0.3421 c -0.0547,0 -0.10947,-0.0137 -0.17789,-0.0547 c -0.0274,-0.42419 -0.68419,-0.0958 -0.68419,-0.56103 l -0.0958,0 c -0.0137,-0.0547 -0.0137,-0.12316 -0.0137,-0.17789 c 0,-0.31473 0.0684,-0.58841 0.0684,-0.87577 c 0,-0.0821 0,-0.15052 -0.0137,-0.23262 c 0.0274,0.0137 0.0547,0.0137 0.0684,0.0137 c 0.15052,0 0.10947,-0.21894 0.21894,-0.24631 c 0,-0.30104 -0.0821,-0.49261 -0.28736,-0.61577 c -0.0137,-0.0274 -0.0137,-0.0547 -0.0137,-0.0684 c 0,-0.12315 0.17789,-0.0684 0.23262,-0.19157 l 0,-0.36946 c 0.0684,0 0.0684,-0.0684 0.0684,-0.13684 l 0,-0.10947 c 0.041,0 0.10947,0 0.13684,-0.0547 c -0.0274,-0.17789 -0.0547,-0.24631 -0.20526,-0.31473 l 0,-0.80734 l 0.041,0 c 0.0274,-0.0821 0.0411,-0.16421 0.0411,-0.24631 c 0,-0.27368 -0.13684,-0.5063 -0.13684,-0.8484 l 0.0547,-0.98523 c 0.0137,-0.0274 0.0274,-0.0547 0.0274,-0.0958 c 0,-0.15052 -0.10947,-0.36946 -0.16421,-0.5063 l 0,-0.10947 c 0.0684,-0.041 0.0821,-0.13684 0.0821,-0.23262 l 0,-0.0821 c 0,-0.0958 0.0547,-0.17789 0.0547,-0.24631 c 0,-0.12315 -0.0684,-0.20525 -0.0684,-0.31472 c 0,-0.31473 0.61578,-0.17789 0.68419,-0.27368 l 0.20526,0 l 0,0.0274 c 0.0547,0.0411 0.12316,0.0547 0.19158,0.0547 c 0.0684,0 0.15052,-0.0137 0.21894,-0.0137 c 0,0.0137 -0.0137,0.0274 -0.0137,0.0274 c 0,0.0547 0.0547,0.0821 0.0821,0.10947 l 1.1768,0.0274 c -0.0137,0.0137 -0.0137,0.0274 -0.0137,0.0274 c 0,0.0274 0.0274,0.0411 0.0547,0.0547 c 0.0684,-0.0684 0.13684,-0.0821 0.27368,-0.0821 c -0.0137,0.0274 -0.0137,0.0547 -0.0137,0.0821 c 0,0.15052 0.15052,0.21894 0.27367,0.25999 l 0.0821,0 c -0.0137,0.0274 -0.0137,0.0411 -0.0137,0.0684 c 0,0.10947 0.15052,0.10947 0.15052,0.23262 c 0,0.0274 -0.0137,0.0411 -0.0137,0.0684 c 0.21894,0.15052 0.65682,0.13684 0.65682,0.51999 c 0.5063,0.12315 0.20526,0.83471 0.4242,1.12207 c -0.0547,0 -0.0684,0.0274 -0.0958,0.0547 c 0.0684,0.15052 0.0958,0.31472 0.0958,0.51998 c -0.0547,0 -0.0684,0.0274 -0.0958,0.0547 c 0.041,0.13683 0.20525,0.27367 0.20525,0.45156"
           style="stroke:#808080;stroke-width:0.50000000000000000;stroke-miterlimit:4;stroke-dasharray:none;stroke-linejoin:round;stroke-linecap:round"
           id="path2848" />
        <path
           d="m 360.49131,527.50442 c 0.0137,-0.0274 0.0137,-0.0684 0.0137,-0.0821 c 0,-0.12315 -0.12315,-0.13684 -0.12315,-0.24631 c 0,-0.0274 0.0137,-0.0547 0.0274,-0.0958 c 0,-0.10948 -0.10947,-0.12316 -0.21894,-0.12316 l -0.0958,0 c -0.0547,0 -0.10947,0 -0.13684,-0.0411 l 0,-0.0411 c -0.17789,0 -0.24631,0.10947 -0.43788,0.10947 c -0.0821,0 -0.17789,-0.0274 -0.24631,-0.0684 l 0,-0.0411 c -0.0547,0 -0.12315,0.0137 -0.17789,0.0137 c -0.15052,0 -0.30104,-0.0137 -0.45156,-0.0137 c -0.20526,0 -0.41052,0.0137 -0.56104,0.0958 c -0.12316,0 -0.17789,-0.12315 -0.31473,-0.12315 c -0.15052,0 -0.24631,0.12315 -0.38315,0.12315 c -0.0547,0 -0.10947,-0.0137 -0.1642,-0.0547 l 0,-0.0411 l -0.72524,0 c -0.16421,0.19157 -0.39683,0.23262 -0.64314,0.23262 c -0.15053,0 -0.28736,-0.0137 -0.43789,-0.0137 c -0.13683,0 -0.27367,0.0137 -0.39683,0.041 c -0.0411,0.17789 -0.30104,0.24631 -0.30104,0.46525 c -0.12315,0.13684 -0.25999,0.4242 -0.25999,0.46525 c 0,0.0958 0.10947,0.10947 0.10947,0.21894 c 0,0.0274 -0.0137,0.0411 -0.0137,0.0684 c 0.10947,0.0821 0.15053,0.23263 0.15053,0.39683 c 0,0.16421 -0.0411,0.3421 -0.0547,0.49262 l -0.041,0 c -0.0274,0.0411 -0.0411,0.0684 -0.0411,0.10947 c 0,0.0958 0.0684,0.17789 0.12315,0.21894 c -0.0137,0.0137 -0.0137,0.041 -0.0137,0.0547 c 0,0.0547 0.0137,0.12315 0.0137,0.17788 c 0,0.10948 -0.10947,0.0958 -0.10947,0.19158 c 0,0.0821 0.10947,0.0821 0.13684,0.20526 c -0.0274,0.1642 -0.19157,0.13683 -0.23262,0.25999 c 0.12315,0.0684 0.0684,0.30104 0.23262,0.31473 c -0.0274,0.0274 -0.0411,0.0684 -0.0411,0.10947 c 0,0.0411 0.0137,0.0958 0.0137,0.13683 c 0,0.0958 -0.10947,0.0958 -0.10947,0.20526 c 0,0.19157 0.25999,0.15052 0.25999,0.38315 c 0,0.27367 -0.25999,0.34209 -0.25999,0.67051 c 0,0.28736 0.19158,0.47893 0.19158,0.76629 c 0,0.15052 -0.10948,0.31473 -0.16421,0.45157 c 0.0958,0.10947 0.13684,0.21894 0.13684,0.32841 c 0,0.25999 -0.21894,0.5063 -0.21894,0.76629 c 0,0.17789 0.1642,0.38315 0.1642,0.47893 c 0,0.0821 -0.0137,0.13684 -0.0684,0.13684 c 0,0 -0.0137,0 -0.0137,0 l 0,0.24631 c -0.0411,0.0411 -0.0821,0.10947 -0.10947,0.10947 c 0,0 -0.0137,-0.0137 -0.0137,-0.0137 l 0,0.12315 c 0,0.0684 -0.0274,0.13684 -0.0958,0.13684 c 0.041,0.13684 0.17789,0.24631 0.17789,0.39683 c 0,0.0274 0,0.0684 -0.0137,0.0958 l -0.0684,0 c -0.0274,0.0547 -0.0411,0.10947 -0.0411,0.13684 c 0,0.1642 0.24631,0.10947 0.24631,0.28736 c 0,0.15052 -0.23262,0.0274 -0.23262,0.2463 c 0,0.83472 0.88945,0.50631 0.94418,0.80735 c 0.0274,0.0137 0.0547,0.0137 0.0821,0.0137 c 0.10947,0 0.17789,-0.0684 0.28736,-0.0958 c 0.0137,0.0274 0.0547,0.0274 0.0547,0.0547 c 0,0 -0.0137,0.0137 -0.0137,0.0274 c 0.0137,0 0.0411,-0.0137 0.0547,-0.0137 c 0.0958,0 0.20526,0.0547 0.28736,0.0547 c 0.13684,0 0.10947,-0.20526 0.28736,-0.20526 c 0.0958,0 0.21894,0.0684 0.21894,0.16421 l 0,-0.0547 c 0.62946,0.0821 1.38207,0.12316 2.12099,0.12316 c 0.35578,0 0.71156,-0.0137 1.03997,-0.0274 c 0.10947,-0.13684 0.26,-0.23262 0.4242,-0.25999 c 0,-0.0411 -0.0137,-0.0821 -0.0137,-0.12316 c 0,-0.10947 0.0137,-0.2463 0.0137,-0.36946 c 0,-0.32841 0,-0.4242 -0.45156,-0.4242 c -0.13684,0 -0.24631,0.0274 -0.30105,0.16421 c -0.041,-0.15052 -0.25999,-0.0274 -0.25999,-0.24631 c -0.0684,-0.0274 -0.17789,-0.0547 -0.27368,-0.0547 c -0.10947,0 -0.20525,0.0274 -0.24631,0.0958 c -0.17788,0.0274 -0.2463,0.0958 -0.43788,0.12316 c -0.0274,-0.0137 -0.0547,-0.0411 -0.0547,-0.0547 c 0,0 0,-0.0137 0.0137,-0.0137 c -0.0547,-0.0137 -0.0958,-0.0274 -0.15052,-0.0274 c -0.12316,0 -0.20526,0.0684 -0.27368,0.0684 c -0.0547,0 -0.0958,-0.0274 -0.13684,-0.13684 c -0.0821,0.0821 -0.20525,0.0958 -0.34209,0.0958 c -0.0958,0 -0.20526,-0.0137 -0.31473,-0.0137 c -0.0684,0 -0.12315,0 -0.19157,0.0137 c 0,0.0274 0.0137,0.0547 0.0137,0.0821 c 0,0.0274 -0.0137,0.0547 -0.0411,0.0684 c -0.0137,-0.13684 -0.25999,-0.0274 -0.25999,-0.24631 l -0.72524,0 c -0.46525,-0.10947 -0.30105,-0.68419 -0.46525,-1.0126 c 0.13683,-0.0684 0.17789,-0.13684 0.17789,-0.21894 c 0,-0.13684 -0.0958,-0.28736 -0.0958,-0.45157 c 0,-0.0684 0.0137,-0.13684 0.0684,-0.21894 l 0.0411,0 c 0.0274,-0.10947 0.041,-0.23263 0.041,-0.3421 c 0,-0.30104 -0.12315,-0.6705 -0.34209,-0.82102 c 0.0684,-0.26 0.1642,-0.54736 0.32841,-0.72525 c 0.42419,-0.0137 0.87576,-0.0411 1.29996,-0.0411 c 0.27368,0 0.54735,0 0.80734,0.0411 c 0.0411,0.0411 0.0958,0.0411 0.15053,0.0411 c 0.0684,0 0.12315,-0.0137 0.17789,-0.0137 c 0.13683,0 0.20525,0.10947 0.34209,0.10947 c 0.25999,0 0.41052,-0.1642 0.68419,-0.19157 c 0,-0.23263 0.13684,-0.36947 0.20526,-0.53367 c -0.10947,-0.25999 -0.32841,-0.56104 -0.5884,-0.68419 c -0.36947,0.0684 -0.73893,0.21894 -1.13576,0.21894 c -0.25999,-0.0547 -0.64314,-0.0274 -0.97155,-0.0958 l 0,-0.0274 c -0.0411,0 -0.10947,-0.0137 -0.16421,-0.0137 c -0.0958,0 -0.23262,0.0958 -0.36946,0.0958 c -0.23263,0 -0.46525,-0.0958 -0.60209,-0.17789 c -0.0684,-0.0137 -0.0274,-0.10947 -0.0547,-0.16421 c 0,-0.0684 0.0274,-0.13684 0.0958,-0.13684 l 0,-0.10947 l -0.041,0 c -0.0684,-0.0274 -0.0274,-0.12315 -0.0547,-0.1642 c 0.0684,-0.0684 0.0958,-0.0137 0.0958,-0.24631 c 0,-0.0684 0.0137,-0.12316 0.0958,-0.13684 c -0.0137,-0.0958 -0.0137,-0.19157 -0.0137,-0.28736 c 0,-0.19157 0.0137,-0.38315 0.0137,-0.56104 c 0,-0.25999 -0.0137,-0.5063 -0.0958,-0.71155 c 0.0547,-0.0547 0.10947,-0.0547 0.10947,-0.15053 c 0,-0.13683 -0.13684,-0.17789 -0.13684,-0.30104 c 0,-0.21894 0.3421,-0.51999 0.56104,-0.51999 c 0.0274,0 0.0547,0.0411 0.0547,0.0821 c 0.32841,-0.0684 0.65682,-0.0821 0.99892,-0.0821 c 0.56103,0 1.10838,0.0547 1.65574,0.0547 c 0.21894,0 0.45156,-0.0137 0.6705,-0.0411 c 0.0821,-0.10947 0.0821,-0.19157 0.30105,-0.19157 c 0.10947,0.12315 0.23262,0.1642 0.35578,0.1642 c 0.0958,0 0.19157,-0.0274 0.31472,-0.0684 l 0,-0.1642 c 0,-0.0547 0.0137,-0.0958 0.0821,-0.0958 l 0,-0.10947 c 0.0137,-0.0274 0.0411,-0.0547 0.0821,-0.0547"
           style="stroke:#808080;stroke-width:0.50000000000000000;stroke-miterlimit:4;stroke-dasharray:none;stroke-linejoin:round;stroke-linecap:round"
           id="path2850" />
        <path
           d="m 367.65329,530.16801 c -0.15052,-0.0684 -0.17789,-0.39683 -0.30104,-0.39683 c -0.0137,0 -0.0274,0.0137 -0.0411,0.0137 c -0.10947,-0.19157 0.0411,-0.39683 -0.23263,-0.46525 c 0,-0.1642 -0.28736,-0.17789 -0.39683,-0.17789 c -0.21894,0 -0.1642,-0.13683 -0.36946,-0.13683 c -0.10947,0 -0.21894,0.0411 -0.25999,0.10947 c -0.51999,0.12315 -0.67051,0.36946 -0.67051,0.53366 c 0,0.0137 0.0137,0.0274 0.0137,0.0411 c -0.39683,0.0547 -0.12315,0.54735 -0.35578,0.71155 c 0,0.0547 -0.0137,0.13684 -0.0137,0.19158 c 0,0.13684 0.0274,0.25999 0.17789,0.28736 c -0.0137,0.0274 -0.0274,0.0411 -0.0274,0.0547 c 0.12316,0.0958 0.24631,0.26 0.28736,0.26 c 0,0 0.0274,0 0.041,-0.0137 c -0.0274,0 0.3421,0.21894 0.3421,0.20526 c 0,0.0274 0.34209,0.0274 0.4242,0.0274 c 0.34209,0 0.68419,-0.0411 0.83471,-0.32841 c 0.10947,0 0.36946,-0.20526 0.36946,-0.20526 c 0,-0.0958 0.15052,-0.0547 0.15052,-0.15052 c 0,-0.0137 -0.0137,-0.0411 -0.0274,-0.0684 c 0.041,-0.0547 0.0684,-0.13684 0.0684,-0.20526 c 0,-0.0958 -0.0684,-0.17789 -0.0684,-0.23263 c 0,-0.041 0.041,-0.0547 0.0547,-0.0547 m 0,4.3925 c -0.15052,-0.0684 -0.17789,-0.39683 -0.30104,-0.39683 c -0.0137,0 -0.0274,0.0137 -0.0411,0.0137 c -0.10947,-0.19158 0.0411,-0.41052 -0.23263,-0.46525 c 0,-0.0958 -0.20526,-0.19158 -0.27367,-0.19158 c -0.0684,0 -0.13684,0.0137 -0.19158,0.0137 c -0.13684,0 -0.10947,-0.13684 -0.30104,-0.13684 c -0.21894,0 -0.8484,0.35578 -0.8484,0.41051 c 0,0.0821 -0.0821,0.13684 -0.0821,0.21895 c 0,0.0137 0.0137,0.0274 0.0137,0.0411 c -0.39683,0.0684 -0.12315,0.54735 -0.35578,0.72524 c 0,0.0684 -0.0137,0.13684 -0.0137,0.20526 c 0,0.12315 0.0274,0.23262 0.17789,0.27367 c -0.0137,0.0274 -0.0274,0.041 -0.0274,0.0547 c 0,0.0547 0.32841,0.25999 0.28736,0.25999 c 0.0137,0 0.0274,0 0.041,-0.0137 c 0.041,0 0.10947,0.15052 0.30105,0.15052 c 0.0274,0 0.0411,0.0411 0.0411,0.0547 c 0.15052,0 0.30104,0.0137 0.46525,0.0137 c 0.32841,0 0.64314,-0.0411 0.79366,-0.32841 c 0.12315,0 0.36946,-0.20526 0.36946,-0.19158 c 0,-0.0958 0.15052,-0.0547 0.15052,-0.15052 c 0,-0.0137 -0.0137,-0.0411 -0.0274,-0.0684 c 0.041,-0.0547 0.0684,-0.13684 0.0684,-0.21894 c 0,-0.0821 -0.0684,-0.1642 -0.0684,-0.23262 c 0,-0.0411 0.0547,-0.0411 0.0547,-0.0411"
           id="path2852" />
        <path
           d="m 379.01621,530.36434 c 0,-0.23262 -0.21895,-0.35578 -0.21895,-0.5884 c 0,-0.0411 0,-0.0821 0.0137,-0.12316 c -0.32841,-0.0684 -0.25999,-0.38314 -0.46525,-0.51998 c 0.0684,-0.0547 0.0958,-0.10947 0.0958,-0.13684 c 0,-0.12315 -0.20525,-0.16421 -0.20525,-0.32841 c 0.0137,-0.0274 0.0137,-0.0684 0.0137,-0.0958 c 0,-0.27367 -0.38315,-0.20526 -0.4242,-0.46525 c -0.27367,0 -0.34209,-0.30104 -0.41051,-0.45156 c -0.27368,-0.0821 -0.32841,-0.38315 -0.62946,-0.38315 c -0.041,0 -0.0821,0 -0.12315,0.0137 c -0.24631,-0.41051 -1.24523,-0.15052 -1.34102,-0.41051 l -0.41051,0 c -0.12315,0.1642 -0.36946,0.1642 -0.60209,0.1642 l -0.0547,0 c 0,0.0274 0.0137,0.0547 0.0137,0.0821 c 0,0.27367 -0.39683,0.0821 -0.54735,0.23262 l 0,0.0958 c -0.12316,0.041 -0.16421,0.1642 -0.30105,0.1642 c -0.0274,0 -0.0547,0 -0.0821,-0.0137 c -0.041,0.5063 -0.68419,0.41052 -0.68419,0.9305 c -0.041,0.0547 -0.0821,0.13684 -0.15052,0.13684 l 0,0.1642 l -0.0274,0.0274 c -0.12315,0.10947 -0.32841,0.28736 -0.32841,0.43788 c 0,0.0547 0.0137,0.12316 0.0137,0.17789 c 0,0.10947 -0.24631,0.51999 -0.32841,0.75261 l 0,0.86208 c 0,0.23263 -0.27368,0.3421 -0.27368,0.57472 c 0,0.17789 0.20526,0.43789 0.20526,0.56104 c 0,0.0684 -0.19157,0.49262 -0.27367,0.61577 c 0.19157,0.23263 0.19157,0.61577 0.19157,0.95787 c 0.25999,0.0274 0.0958,0.5884 0.20526,0.65682 c 0.20525,0.58841 0,1.23155 0.47893,1.64206 c 0.0821,0.41051 0.54735,0.61577 0.69787,0.97155 c 0.23263,0.12316 0.47894,0.0684 0.57473,0.36946 c 0.0274,-0.0137 0.0684,-0.0137 0.0958,-0.0137 c 0.3421,0 0.4242,0.35578 0.7663,0.35578 c 0.15052,0 0.31472,-0.0411 0.47893,-0.0411 c 0.15052,0 0.30104,0.0411 0.43788,0.0411 c 0.69788,0 1.14944,-0.43788 1.75153,-0.43788 c 0.0137,-0.19158 0.3421,-0.15052 0.3421,-0.35578 c 0,-0.041 -0.0137,-0.0821 -0.0274,-0.12316 c 0.0821,-0.0958 0.15052,-0.13683 0.20525,-0.13683 c 0.16421,0 0.21895,0.38314 0.36947,0.41051 c -0.10947,0.10947 -0.041,0.28736 -0.16421,0.3421 c 0.16421,0.0547 0.30105,0.34209 0.5063,0.34209 c 0.0684,0 0.13684,-0.0137 0.20526,-0.0821 c 0,-0.0547 -0.0137,-0.0958 -0.0137,-0.15052 c 0,-0.041 0.0137,-0.0821 0.0547,-0.10947 c 0.17789,-0.13684 0.10947,-0.54736 0.27368,-0.69788 l 0,-0.12315 c -0.20526,-0.21894 -0.0958,-0.67051 -0.24631,-0.94419 c 0.0958,0 0.0958,-0.20525 0.0958,-0.35578 l 0,-0.0411 c 0,-0.10947 -0.0274,-0.21894 -0.0958,-0.28736 c 0.0958,-0.1642 0.12315,-0.34209 0.12315,-0.53367 c 0,-0.23262 -0.041,-0.47893 -0.041,-0.72524 c 0,-0.13684 0.0137,-0.28736 0.0547,-0.4242 c -0.10947,-0.0684 -0.21894,-0.17789 -0.21894,-0.34209 c 0,-0.0274 0,-0.0684 0.0137,-0.12316 c -0.0274,0 -0.0684,0.0137 -0.0958,0.0137 c -0.20525,0 -0.32841,-0.12316 -0.49261,-0.12316 c -0.10947,0 -0.23263,0.0821 -0.41052,0.0821 c -0.0821,0 -0.1642,-0.0137 -0.23262,-0.0411 l 0,-0.0411 c -0.0684,0 -0.15052,0.0137 -0.23263,0.0137 c -0.0958,0 -0.20526,-0.0137 -0.27367,-0.0547 l 0,-0.0547 l -0.10947,0 c -0.0137,0.0137 -0.0411,0.0137 -0.0547,0.0137 c -0.041,0 -0.0821,-0.0274 -0.0821,-0.0821 l -0.12316,0 c -0.0274,0 -0.0274,-0.0137 -0.041,-0.0137 c -0.0411,0 -0.0274,0.0958 -0.28736,0.0958 c -0.10947,0 -0.0958,-0.0958 -0.23262,-0.0958 c -0.16421,0 -0.65683,0.27368 -0.65683,0.38315 c 0,0.0821 -0.0684,0.15052 -0.0684,0.21894 c 0,0 0,0.0137 0.0137,0.0274 c -0.0137,0.0411 -0.0137,0.0684 -0.0137,0.0958 c 0,0.23262 0.36947,0.19157 0.47894,0.31472 c 0.0411,0.10947 0.0821,0.13684 0.12315,0.13684 c 0.12316,0 0.27368,-0.21894 0.43788,-0.21894 c 0.16421,0 0.19158,0.10947 0.36947,0.10947 c 0.30104,0 0.51998,-0.13684 0.80734,-0.13684 c 0.51999,0 0.38315,0.35578 0.56104,0.58841 c -0.25999,0.13684 -0.19157,0.43788 -0.41052,0.54735 c -0.0958,0.16421 0.0411,0.45157 -0.1642,0.51998 l 0,0.0958 l 0.0274,0 c 0.041,0.0137 0.0547,0.041 0.0547,0.0684 c 0,0.0411 -0.0137,0.0684 -0.0137,0.0958 c 0,0.0137 0.0137,0.041 0.0137,0.0547 c 0,0.0411 -0.0274,0.0684 -0.0547,0.0684 c -0.0137,0 -0.0137,-0.0137 -0.0274,-0.0137 c -0.0274,0.24631 -0.41052,0.1642 -0.41052,0.41051 c 0,0.16421 -0.20525,0.25999 -0.38314,0.25999 c -0.041,0 -0.0821,0 -0.12316,-0.0137 c -0.17789,0.25999 -0.45156,0.31473 -0.76629,0.31473 c -0.23263,0 -0.47893,-0.0411 -0.71156,-0.0411 c -0.12315,0 -0.24631,0.0137 -0.35578,0.0411 c -0.0684,-0.0958 -0.27367,-0.0274 -0.27367,-0.15052 c 0,-0.0274 0,-0.041 0.0137,-0.0684 c -0.3421,-0.13684 -0.54735,-0.31473 -0.86208,-0.54735 l -0.0137,-0.16421 c -0.43788,0 -0.30104,-0.49262 -0.46525,-0.72524 c -0.0821,-0.38315 -0.34209,-0.71156 -0.35577,-1.12208 c -0.16421,-0.0137 -0.19158,-0.10947 -0.19158,-0.23262 c 0,-0.0547 0.0137,-0.10947 0.0137,-0.17789 c 0,-0.10947 -0.0274,-0.21894 -0.16421,-0.24631 c 0.0137,-0.0137 0.0411,-0.041 0.0821,-0.041 l 0,-0.10947 c 0,-0.0547 0,-0.12316 0.0684,-0.12316 l 0,-0.13683 c 0,-0.0137 0.0137,-0.0274 0.0137,-0.0411 c 0,-0.0958 -0.17789,-0.0411 -0.17789,-0.19157 c 0,-0.10947 0.12315,-0.13684 0.1642,-0.21894 c -0.041,-0.0274 -0.0547,-0.0684 -0.0547,-0.0958 c 0,-0.12315 0.24631,-0.24631 0.24631,-0.39683 c 0,-0.0274 -0.13684,-0.0547 -0.13684,-0.21894 c 0,-0.12315 0.0684,-0.24631 0.13684,-0.31473 c -0.0547,-0.0958 -0.0684,-0.17789 -0.0684,-0.23262 c 0,-0.24631 0.35578,-0.20526 0.35578,-0.46525 c 0,-0.0547 -0.0274,-0.13684 -0.0684,-0.23263 c 0.21894,-0.0411 0.25999,-0.17789 0.25999,-0.35577 c 0,-0.0821 -0.0137,-0.17789 -0.0137,-0.27368 c 0,-0.0958 0.0137,-0.19157 0.0547,-0.28736 l 0.10947,0 l 0,-0.10947 c 0.0274,-0.0274 0.0547,-0.041 0.0958,-0.041 l 0,-0.12316 c 0.19157,-0.0958 0.0411,-0.56103 0.34209,-0.56103 c 0.0274,0 0.0684,0 0.10947,0.0137 c 0.16421,-0.0821 0.17789,-0.28736 0.27368,-0.4242 c 0.41051,-0.24631 0.99892,0 1.32733,-0.38315 c 0.0274,0.0274 0.0274,0.0958 0.0958,0.0958 c 0.041,0 0.0958,-0.0137 0.15052,-0.0137 c 0.041,0 0.68419,0.21894 0.68419,0.31473 c 0,0 0,0.0137 0,0.0137 l 0.13684,0 c 0.1642,0.23262 0.65682,0.0547 0.65682,0.45157 c 0.5063,0 0.21894,0.53366 0.41052,0.76629 c 0.0274,0.0274 0.0411,0.0684 0.0411,0.12315 c 0,0.0411 -0.0137,0.0958 -0.0137,0.13684 c 0.35578,0.0684 0.0821,0.58841 0.3421,0.75261 c 0.0684,0.15052 0.1642,0.20526 0.27368,0.20526 c 0.21894,0 0.49261,-0.20526 0.75261,-0.20526"
           style=""
           id="path2854" />
        <path
           d="m 387.50552,529.59805 c -0.0958,-0.0274 -0.0821,-0.20526 -0.20526,-0.20526 c -0.0274,-0.0684 -0.041,-0.13684 -0.041,-0.20526 c 0,-0.25999 0.19157,-0.46525 0.19157,-0.72524 c 0,-0.0821 -0.0137,-0.16421 -0.0547,-0.25999 l -0.0958,0 c -0.0274,-0.0547 -0.041,-0.13684 -0.041,-0.20526 c 0,-0.1642 0.0547,-0.32841 0.13684,-0.4242 l 0,-0.4242 c -0.0821,-0.21894 -0.28736,-0.28736 -0.51999,-0.28736 c -0.45156,0 -0.24631,0.27368 -0.57472,0.27368 c 0,0.0137 -0.0137,0.0411 -0.0137,0.0547 c 0,0.041 0.0137,0.0958 0.0137,0.13683 c 0,0.0684 -0.0137,0.12316 -0.0958,0.13684 l 0,0.10947 c 0,0.0137 0.0137,0.041 0.0137,0.0547 c 0,0.0821 -0.0958,0.0821 -0.0958,0.24631 c 0,0.28736 0.13684,0.46525 0.17789,0.72524 c -0.0274,0.0274 -0.0274,0.0411 -0.0547,0.0411 c -0.0137,0 -0.0274,-0.0137 -0.0411,-0.0137 l 0,0.13683 c 0.0958,0.0684 0.13684,0.17789 0.13684,0.28736 c 0,0.19158 -0.0958,0.41052 -0.13684,0.54736 l 0.0547,0 c 0.0547,0.0137 0.0547,0.20525 0.0547,0.36946 l 0,0.16421 c 0,0.13683 -0.0137,0.27367 -0.10947,0.38314 c 0.0137,0.0821 0.0274,0.15053 0.0274,0.20526 c 0,0.28736 -0.15052,0.47893 -0.19157,0.76629 c -0.25999,0.0274 -0.53367,0.0411 -0.80735,0.0411 c -0.49261,0 -1.02628,-0.0411 -1.49153,-0.0821 l 0,-0.0547 c -0.0547,-0.0137 -0.0958,-0.0137 -0.12316,-0.0137 c -0.17789,0 -0.25999,0.12316 -0.41051,0.12316 c -0.041,0 -0.0958,-0.0137 -0.16421,-0.0547 l 0,-0.0547 l -0.15052,0 c -0.10947,0 -0.19157,0.12315 -0.36946,0.12315 c -0.35578,0 -0.79366,-0.27367 -0.79366,-0.61577 c 0,-0.0958 -0.0137,-0.19157 -0.0137,-0.30104 c 0,-0.26 0.041,-0.49262 0.30105,-0.53367 c -0.0958,-0.0547 -0.12316,-0.15052 -0.12316,-0.24631 c 0,-0.12316 0.041,-0.25999 0.041,-0.36946 c 0,-0.12316 -0.041,-0.21895 -0.20525,-0.26 l 0.1642,-0.1642 c 0,-0.0958 0.0137,-0.19158 0.0137,-0.28736 c 0,-0.0958 -0.0274,-0.17789 -0.10947,-0.23263 c 0.0274,-0.0274 0.0547,-0.041 0.0958,-0.041 l 0,-0.0684 l -0.041,0 c 0.041,-0.0684 0.041,-0.38315 0.16421,-0.46525 l 0,-0.15052 c 0,-0.0137 0.0137,-0.0274 0.0137,-0.0274 c 0,-0.0274 -0.12315,-0.0821 -0.12315,-0.21894 c 0,-0.0958 0.041,-0.19157 0.10947,-0.23262 l -0.0274,0 c -0.0411,-0.0274 -0.0547,-0.0547 -0.0547,-0.0821 c 0,-0.0274 0.0137,-0.0547 0.0137,-0.0821 c -0.0274,0.0137 -0.041,0.0137 -0.0547,0.0137 c -0.17789,0 -0.15052,-0.20525 -0.27367,-0.20525 c -0.12316,0 -0.67051,0.17789 -0.67051,0.30104 c 0,0.12316 0.10947,0.0821 0.10947,0.12316 c 0.0274,0.0958 0.0274,0.19157 0.0274,0.30104 c 0,0.23262 -0.15053,0.46525 -0.15053,0.60209 c 0,0.24631 0.16421,0.21894 0.16421,0.36946 c 0,0.10947 -0.0547,0.20526 -0.13684,0.23263 c 0.10947,0.0684 0.13684,0.13683 0.13684,0.20525 c 0,0.13684 -0.15052,0.28736 -0.15052,0.41052 c 0,0.0958 0.10947,0.12315 0.10947,0.25999 c 0,0.15052 -0.21894,0.15052 -0.21894,0.25999 c 0,0.12316 0.23262,0.30105 0.23262,0.45157 c 0,0.0137 -0.0137,0.041 -0.0137,0.0547 l -0.0958,0 l 0,0.0821 l 0.0547,0 c 0.0411,0.0274 0.0411,0.0684 0.0411,0.12315 c 0,0.15052 -0.0958,0.17789 -0.0958,0.24631 c 0,0.15052 0.21894,0.27368 0.21894,0.43788 c 0,0.10947 -0.0821,0.10947 -0.0821,0.19157 c 0,0.23263 -0.23262,0.31473 -0.24631,0.51999 c 0.13684,0.0958 0.0684,0.36946 0.20526,0.46525 c -0.0137,0.0274 -0.0137,0.0547 -0.0137,0.0958 c 0,0.0958 0.0274,0.23262 0.0274,0.34209 c 0,0.20526 -0.23262,0.16421 -0.23262,0.32841 c 0,0.23263 0.25999,0.20526 0.25999,0.5063 c 0,0.16421 -0.0684,0.32842 -0.13684,0.4242 c 0.0547,0 0.0684,0.0274 0.0958,0.0547 c 0,0.0137 -0.0137,0.0274 -0.0137,0.0547 c 0,0.0411 0.0137,0.10947 0.0137,0.15053 c 0,0.13683 -0.13684,0.17789 -0.13684,0.39683 c 0,0.20525 0.0547,0.41051 0.0547,0.60208 c 0,0.15053 -0.13684,0.28736 -0.13684,0.41052 c 0,0.0821 0.0547,0.0958 0.0958,0.19157 c -0.10947,0.0274 -0.0684,0.12316 -0.17789,0.12316 c 0,0.21894 0.0137,0.36946 0.0958,0.54735 c 0,0.041 -0.0411,0.0958 -0.0821,0.0958 c 0,0 -0.0137,-0.0137 -0.0137,-0.0137 l -0.0274,0.32841 c 0.0547,0.17789 0.12315,0.3421 0.36946,0.3421 c 0.041,0.0547 0.17789,0.0684 0.17789,0.17789 c 0,0.0274 0,0.0547 -0.0137,0.0821 l 0.0958,0 c 0,-0.0821 0.0274,-0.0958 0.0958,-0.0958 l 0.0547,0 c 0.17789,0 0.35578,-0.47893 0.50631,-0.57472 c 0.0137,-0.0411 0.0274,-0.0684 0.0274,-0.0958 c 0,-0.10947 -0.10947,-0.12316 -0.10947,-0.23263 c 0,-0.20525 0.13684,-0.28736 0.28736,-0.30104 c -0.0274,0.0137 -0.0547,0.0137 -0.0821,0.0137 c -0.13684,0 -0.0684,-0.20525 -0.19157,-0.23262 c 0,0 0,-0.0137 0,-0.0137 c 0,-0.0137 -0.0137,-0.0274 -0.0137,-0.0411 c -0.0274,-0.12315 -0.0547,-0.25999 -0.0547,-0.41051 c 0,-0.20526 0.15052,-0.3421 0.15052,-0.45157 c 0,-0.10947 -0.0958,-0.1642 -0.0958,-0.27367 c 0,-0.0274 0,-0.0411 0.0137,-0.0684 c 0,0 -0.0137,-0.0137 -0.0137,-0.0137 c 0,-0.0958 0.0958,-0.0274 0.0958,-0.15052 c 0,-0.15052 -0.16421,-0.27368 -0.16421,-0.35578 c 0,-0.0274 0,-0.0411 0.0274,-0.0547 c -0.0684,-0.20526 -0.20526,-0.32842 -0.20526,-0.60209 c 0.0411,-0.041 0.0547,-0.0684 0.10948,-0.0684 c -0.0137,-0.0411 -0.0274,-0.0821 -0.0274,-0.12316 c 0,-0.19157 0.30104,-0.10947 0.30104,-0.32841 c 0,-0.12315 -0.13684,-0.20525 -0.13684,-0.42419 c 0,-0.15053 0.0274,-0.31473 0.0547,-0.43789 c 0.041,0.0274 0.0821,0.0411 0.12315,0.0411 c 0.17789,0 0.27368,-0.25999 0.38315,-0.25999 c 0.0411,0 0.0958,0.0547 0.15052,0.17789 c 0.0547,-0.0137 0.10947,-0.0137 0.16421,-0.0137 c 0.12315,0 0.24631,0.0274 0.35578,0.0274 c 0.13683,0 0.23262,-0.0274 0.31472,-0.13684 c 0.0137,0 0.0137,-0.0137 0.0274,-0.0137 c 0.17789,-0.0411 0.31473,-0.0547 0.47894,-0.12315 c 0.0958,0 0.12315,0.041 0.12315,0.0958 l 0.13684,0 c 0.0684,0.0274 0.0274,0.10947 0.0547,0.1642 c 0.27368,-0.0958 0.60209,-0.13684 0.86208,-0.28736 c 0.27368,0.0547 0.15053,0.32841 0.45157,0.32841 c 0.0958,0 0.17789,-0.0137 0.25999,-0.0137 c 0.10947,0 0.20526,0.0274 0.26,0.17789 c -0.0411,0.0821 -0.0547,0.13684 -0.0547,0.20526 c 0,0.19157 0.21894,0.32841 0.21894,0.49261 c 0,0.0411 -0.0274,0.0821 -0.0684,0.0821 c -0.0137,0 -0.0137,-0.0137 -0.0274,-0.0137 l 0,0.38315 c -0.0958,0.0547 -0.12315,0.0958 -0.12315,0.13684 c 0,0.10947 0.21894,0.19157 0.21894,0.34209 c -0.0274,0.0274 -0.041,0.0547 -0.0958,0.0547 l 0,0.13684 c 0,0.0137 0.0137,0.0274 0.0137,0.0411 c 0,0.0274 -0.0274,0.0684 -0.0821,0.0684 c -0.0137,0.12315 -0.0684,0.28736 -0.0684,0.4242 c 0,0.19157 0.15052,0.21894 0.15052,0.42419 c 0,0.0821 -0.15052,0.23263 -0.15052,0.41052 c 0,0.0411 0.0137,0.0547 0.0274,0.0547 c -0.0274,0.0137 -0.0547,0.041 -0.0958,0.041 l 0,0.28736 c 0.10947,0.20526 0.30104,0.23263 0.34209,0.50631 c -0.0411,0.0411 -0.0411,0.13683 -0.12315,0.13683 c -0.0137,0 -0.0274,0 -0.0411,-0.0137 c -0.0821,0.10947 -0.20526,0.15052 -0.20526,0.3421 c 0.0274,0.12315 0.20526,0.13683 0.38315,0.13683 l 0.15052,0 c 0.0684,0 0.12315,0 0.1642,0.0274 l 0,0.10947 c 0.0411,0.13684 0.10947,0.17789 0.17789,0.17789 c 0.26,0 0.72525,-0.19157 0.72525,-0.51998 c 0,-0.0821 -0.0411,-0.15053 -0.17789,-0.23263 c -0.30105,-0.10947 -0.31473,-0.53367 -0.31473,-0.73892 l 0,-0.0821 c 0,-0.1642 0.0137,-0.27367 0.17789,-0.31472 l -0.0274,0 c -0.041,-0.0137 -0.0547,-0.0411 -0.0547,-0.0684 c 0,-0.16421 0.12315,-0.24631 0.12315,-0.4242 c 0,-0.35578 -0.13684,-0.65683 -0.13684,-0.83472 c 0,-0.2463 0.19157,-0.42419 0.19157,-0.5884 c -0.0137,-0.28736 -0.0958,-0.65682 -0.0958,-1.02629 c -0.0274,-0.0684 -0.16421,-0.0958 -0.16421,-0.17789 c 0,-0.10947 0.17789,-0.0958 0.17789,-0.30104 c 0,-0.30104 -0.0958,-0.30104 -0.0958,-0.57472 c 0,-0.10947 0,-0.21894 -0.0821,-0.27368 c 0.0274,-0.0274 0.041,-0.041 0.0958,-0.041 l 0,-0.12315 l -0.0547,0 c -0.0274,-0.0137 -0.0821,-0.25999 -0.0821,-0.31473 c 0,-0.17789 0.31473,-0.15052 0.38315,-0.31473 c -0.10947,-0.0684 -0.17789,-0.1642 -0.3421,-0.17789 c 0,-0.0274 -0.0137,-0.0684 -0.0137,-0.0958 c 0,-0.17789 0.0684,-0.31473 0.17789,-0.39683 c -0.0137,-0.0274 -0.0137,-0.0547 -0.0137,-0.0684 c 0,-0.20526 0.19158,-0.24631 0.26,-0.35578 m -6.34929,7.55346 l -0.0958,-0.15052 l 0.0958,0 l 0,0.15052"
           style=""
           id="path2856" />
        <path
           d="m 396.6927,533.22426 l -0.041,0 c -0.0547,-0.0274 -0.0547,-0.0684 -0.0547,-0.10947 c 0,-0.12316 0.0958,-0.23263 0.0958,-0.23263 c 0,-0.17789 -0.15052,-0.32841 -0.15052,-0.54735 c 0,-0.0684 0.0274,-0.17789 0.15052,-0.17789 l 0,-0.56104 c -0.30104,0 -0.31472,-0.31472 -0.31472,-0.46524 l 0,-0.0684 c 0,-0.12316 0.0274,-0.23263 0.10947,-0.31473 l -0.0547,0 c -0.0274,-0.0137 -0.041,-0.0274 -0.041,-0.041 c 0,-0.0411 0.0684,-0.0958 0.0958,-0.12316 c -0.15053,-0.0684 -0.0958,-0.35578 -0.21895,-0.4242 c 0.0137,-0.0547 0.0137,-0.0958 0.0137,-0.13683 c 0,-0.41052 -0.31473,-0.50631 -0.31473,-0.9305 c 0,-0.17789 -0.20526,-0.23263 -0.20526,-0.39683 c 0,-0.0274 0.0137,-0.0684 0.041,-0.12316 c -0.19157,-0.0411 -0.23262,-0.13684 -0.23262,-0.27368 c 0,-0.0684 0.0137,-0.13683 0.0137,-0.20525 c 0,-0.0821 0,-0.17789 -0.0411,-0.25999 c -0.53367,0 -0.97155,-0.75261 -1.57364,-0.88945 c -0.0137,0.0137 -0.0274,0.0137 -0.0411,0.0137 c -0.041,0 -0.0821,-0.0274 -0.0821,-0.0821 c -0.25999,0 -0.54735,-0.0684 -0.80735,-0.0684 c -0.2463,0 -0.46525,0.0547 -0.61577,0.23262 c -0.0821,-0.0274 -0.13684,-0.0411 -0.19157,-0.0411 c -0.25999,0 -0.36946,0.24631 -0.61577,0.24631 c -0.0547,0 -0.12316,-0.0137 -0.19158,-0.041 c -0.10947,0.0274 -0.0684,0.25999 -0.20525,0.30104 c -0.26,0.12316 -0.49262,0.24631 -0.62946,0.54736 c -0.12315,0.0684 -0.12315,0.23262 -0.28736,0.25999 c 0.0274,0.0821 0.041,0.13684 0.041,0.19157 c 0,0.27368 -0.35578,0.30105 -0.35578,0.57472 c 0,0.0274 0,0.0547 0.0137,0.0821 c -0.0547,0.43788 -0.45157,0.61577 -0.45157,1.08102 c 0,0.0547 0.0137,0.10947 0.0274,0.17789 l -0.0547,0 l -0.0137,0.54735 c 0,0.12315 0.12315,0.10947 0.12315,0.20526 c 0,0.0274 0,0.0958 -0.10947,0.0958 c 0,0.12316 0,0.28736 -0.10947,0.32841 c 0.0547,0.12316 0.0684,0.21895 0.0684,0.31473 c 0,0.0547 -0.0137,0.10947 -0.0137,0.16421 c 0,0.0958 0.0137,0.21894 0.041,0.36946 c -0.041,0.0958 -0.0684,0.21894 -0.0684,0.3421 c 0,0.27367 0.0821,0.5884 0.0821,0.87576 c 0,0.0684 0,0.13684 -0.0137,0.19157 c 0.20526,0.20526 0.0958,0.6842 0.23262,0.91682 c 0,0.0137 0.0137,0.0411 0.0137,0.0547 c 0,0.041 -0.0274,0.0821 -0.0821,0.0821 l 0.0411,0.28736 c 0.23262,0.20526 0.19157,0.56104 0.38314,0.79366 c 0.0821,0.20526 0.23263,0.4242 0.35578,0.60209 c 0,0.0137 0.0137,0.0137 0.0137,0.0274 c 0.39683,0.2463 0.42419,0.82102 0.88944,0.90313 c 0.21895,0.0411 0.47894,0.21894 0.57472,0.21894 l 0.10948,0 c 0.0684,0 0.15052,0.0137 0.1642,0.0821 c 0.0547,-0.0137 0.13684,-0.0137 0.20526,-0.0137 c 0.041,0 0.0821,0.0137 0.13684,0.0137 c 0.0821,0 0.1642,-0.0274 0.20525,-0.0958 c 0.0547,0.10948 0.0821,0.10948 0.15053,0.10948 c 0.21894,0 0.31472,-0.17789 0.47893,-0.17789 c 0.0821,0 0.15052,-0.0137 0.21894,-0.0137 c 0.0684,0 0.10947,0.0137 0.13684,0.0821 l 0.10947,0 c 0,-0.0411 0.0274,-0.0411 0.0547,-0.0684 l 0.0684,0.0684 c 0.0958,-0.0958 0.32842,-0.1642 0.4242,-0.25999 c 0.0274,0.0137 0.0547,0.0137 0.0821,0.0137 c 0.45157,0 0.54736,-0.54736 0.8484,-0.54736 c 0.21894,-0.25999 0.4242,-0.72524 0.64314,-1.0126 c 0.13684,0 0.0547,-0.24631 0.17789,-0.24631 c 0.0274,0 0.041,0.0137 0.0821,0.0274 c -0.0274,-0.19157 -0.0958,-0.4242 -0.0958,-0.65682 c 0,-0.0821 0.0137,-0.17789 0.0411,-0.27368 l 0.0547,0 l 0,-0.12315 c 0,-0.23263 0.27368,-0.62946 0.30105,-0.62946 c 0.0547,-0.0274 -0.0137,-0.61577 0.1642,-0.79366 m -0.77997,1.38206 c -0.0274,0 -0.0547,-0.0137 -0.0684,-0.0137 c -0.13684,0 -0.20526,0.12316 -0.26,0.17789 c -0.0411,0.36946 -0.39683,0.46525 -0.56103,0.76629 l 0,0.3421 c -0.26,0 -0.13684,0.34209 -0.36947,0.34209 c -0.0274,0 -0.0411,0 -0.0547,0.0274 c -0.0137,0.25999 -0.25999,0.26 -0.32841,0.46525 l 0,-0.041 c -0.25999,-0.0274 -0.5063,-0.0411 -0.75261,-0.0411 c -0.15052,0 -0.30105,0.0137 -0.45157,0.0137 c -0.34209,0 -0.68419,-0.0137 -1.02628,-0.0958 c -0.0411,-0.30105 -0.61578,-0.26 -0.61578,-0.56104 c -0.17789,-0.10947 -0.0821,-0.4242 -0.41051,-0.4242 c -0.0821,-0.23262 -0.19157,-0.35578 -0.21894,-0.62945 c 0.0137,-0.0274 0.0137,-0.0547 0.0137,-0.0821 c 0,-0.17789 -0.27367,-0.20525 -0.27367,-0.4242 c 0,-0.0411 0,-0.0821 0.0274,-0.13683 c 0,0.0137 0.0137,0.0137 0.0274,0.0137 c 0.0137,0 0.0137,-0.0137 0.041,-0.0274 c -0.0274,-0.21894 -0.23262,-0.34209 -0.23262,-0.5884 c 0,-0.0411 0.0137,-0.0821 0.0274,-0.13684 l 0.0411,0 c 0.041,-0.0821 0.0547,-0.16421 0.0547,-0.24631 c 0,-0.20526 -0.12315,-0.35578 -0.12315,-0.5884 c 0,-0.19158 0.12315,-0.16421 0.12315,-0.36947 c 0,-0.15052 -0.17789,-0.1642 -0.17789,-0.28736 c 0,-0.0137 0,-0.0274 0.0137,-0.0411 c 0.13683,-0.12315 0.0137,-0.35578 0.20525,-0.49261 l 0,-0.19158 l 0.0684,0 l 0,-1.08102 c 0.30105,-0.041 0.28736,-0.35578 0.35578,-0.60209 c 0.4242,-0.12315 0,-0.90313 0.49262,-1.0126 c 0.24631,-0.0547 0.27368,-0.36946 0.54735,-0.36946 c 0.041,0 0.10947,0.0137 0.17789,0.0411 c 0,-0.23263 0.13684,-0.25999 0.30104,-0.25999 l 0.10948,0 c 0.13683,0 0.25999,-0.0137 0.30104,-0.16421 c 0.041,0.0137 0.0684,0.0274 0.10947,0.0274 c 0.15052,0 0.27368,-0.12316 0.39683,-0.12316 c 0.0547,0 0.10947,0.0274 0.16421,0.0958 c 0.2463,0.0274 0.35578,0.20526 0.5884,0.25999 c 0.0547,0.13684 0.10947,0.32841 0.27368,0.32841 c 0.30104,0 0.21894,0.4242 0.57472,0.4242 c -0.0274,0.0821 -0.041,0.16421 -0.041,0.23263 c 0,0.36946 0.35578,0.5063 0.35578,0.82103 c 0,0.0274 -0.0137,0.0684 -0.0137,0.0958 c -0.0137,0 -0.0274,-0.0137 -0.0274,-0.0137 c -0.0274,0 -0.041,0.0274 -0.0547,0.0274 c 0.0684,0.20525 0.34209,0.0274 0.34209,0.43788 c 0,0.0684 -0.0137,0.15052 -0.0137,0.21894 c 0,0.15052 0.0274,0.28736 0.13684,0.38315 c 0,0.0137 -0.0137,0.0547 -0.0137,0.0821 c 0,0.0274 0.0137,0.0684 0.0547,0.0821 l 0.12315,0 c 0,0.20526 -0.23262,0.35578 -0.23262,0.58841 c 0,0.21894 0.25999,0.36946 0.25999,0.54735 c 0,0.17789 -0.34209,0.16421 -0.34209,0.39683 c 0,0.12315 0.15052,0.19157 0.15052,0.32841 c 0,0.13684 -0.0684,0.28736 -0.0684,0.43788 c 0,0.0274 0,0.0684 0.0137,0.0958 c -0.0137,0 -0.0411,0.0274 -0.0684,0.0547 c 0.0547,0.32841 0.21894,0.57472 0.32842,0.88944"
           style=""
           id="path2858" />
        <path
           d="m 405.59253,534.33265 l -0.041,0 c -0.0411,-0.0274 -0.10947,-0.0821 -0.10947,-0.13684 c 0,0 0.0137,-0.0137 0.0137,-0.0274 l -0.0684,0 c 0,0.0547 -0.0274,0.0684 -0.041,0.0958 c -0.23262,-0.0958 -0.23262,-0.43788 -0.32841,-0.58841 c 0,-0.0137 0.0274,-0.0274 0.0684,-0.0274 l -0.10947,-0.20526 c 0,-0.31473 -0.30105,-0.38315 -0.45157,-0.5884 c 0.0137,0 0.041,-0.0274 0.0821,-0.0274 l 0,-0.13684 c -0.12315,-0.12315 -0.38314,-0.0411 -0.41051,-0.10947 c -0.10947,-0.27368 -0.47893,-0.13684 -0.5884,-0.36946 c -0.54736,0 -0.80735,-0.39683 -1.09471,-0.65683 c -0.0958,0 -0.20526,-0.0137 -0.30104,-0.0137 c -0.0821,0 -0.16421,0.0137 -0.20526,0.0821 c -0.0274,0 -0.041,-0.0274 -0.041,-0.0684 l -0.12316,0 c -0.0137,-0.0274 -0.041,-0.0547 -0.041,-0.0958 l -0.10947,0 c -0.13684,-0.13684 -0.5884,-0.16421 -0.82103,-0.20526 c -0.0547,-0.17789 -0.19157,-0.20526 -0.34209,-0.20526 c -0.0958,0 -0.19158,0.0137 -0.30105,0.0137 c -0.6705,0 -0.0684,-0.79367 -0.64314,-0.79367 l 0,-0.0411 c 0,-0.12315 0,-0.24631 0.0958,-0.31472 l -0.13684,0 c -0.0274,-0.0274 -0.0411,-0.0547 -0.0411,-0.0958 l -0.12315,0 c 0,-0.16421 0.13683,-0.38315 0.30104,-0.47893 c -0.0821,0 -0.10947,-0.0411 -0.10947,-0.10948 c 0,-0.13683 0.12315,-0.20525 0.17789,-0.27367 c 0.0958,-0.13684 0.16421,-0.39683 0.24631,-0.53367 c 0.15052,-0.0137 0.25999,-0.0821 0.41051,-0.0821 c 0.17789,-0.24631 0.54736,-0.32842 0.9305,-0.32842 c 0.28736,0 0.60209,0.0547 0.83471,0.0958 l 0,0.0274 l 0.58841,0.0411 l 0,0.041 l 0.12315,0 c 0.31473,0.3421 0.68419,0.61577 0.7663,1.14944 c -0.0137,0.0137 -0.0274,0.0547 -0.0547,0.0547 c 0,0 -0.0137,0 -0.0137,-0.0137 l 0,0.20526 c 0.23262,0.0958 0.20526,0.31473 0.32841,0.54735 c 0.0684,0.27368 0.49262,0.10947 0.65682,0.27368 l 0.16421,0 c 0.17789,-0.13684 0.20526,-0.32841 0.20526,-0.54735 c 0,-0.0547 -0.0137,-0.10947 -0.0137,-0.16421 c 0,-0.0547 0.0137,-0.12315 0.0137,-0.17789 c -0.27368,-0.23262 -0.12316,-0.65682 -0.46525,-0.82103 c 0.0137,-0.041 0.0137,-0.0821 0.0137,-0.12315 c 0,-0.30104 -0.38315,-0.36946 -0.38315,-0.72524 c 0,-0.041 0,-0.0684 0.0137,-0.10947 l -0.0821,0 c -0.1642,-0.0411 -0.35578,-0.0821 -0.47893,-0.16421 c -0.12315,0 0,0.0958 -0.24631,0.0958 c -0.0547,0 -0.10947,-0.0137 -0.10947,-0.0821 c 0,-0.35577 -0.31473,-0.42419 -0.51998,-0.53366 c -0.0958,-0.17789 -0.27368,-0.21895 -0.46525,-0.21895 c -0.17789,0 -0.35578,0.0274 -0.51999,0.0274 c -0.0684,0 -0.10947,0 -0.1642,-0.0137 c -0.28736,0 -0.50631,0.23262 -0.79367,0.23262 c -0.0547,0 -0.10947,-0.0137 -0.1642,-0.0274 l -0.24631,0.27367 c -0.0547,-0.0137 -0.0958,-0.0137 -0.13684,-0.0137 c -0.35578,0 -0.45157,0.32841 -0.80734,0.35578 l 0,0.10947 c -0.23263,0.46525 -0.53367,0.76629 -0.56104,1.08102 c -0.27368,0.20526 -0.16421,0.69787 -0.25999,1.06734 c 0,0.62945 0.64314,0.65682 0.71156,1.23154 c 0.0958,0.24631 0.23262,0.5063 0.51998,0.57472 c 0.0684,0.28736 0.53367,0.0821 0.67051,0.31473 l 0.41051,0 c 0,0.28736 0.31473,0.10947 0.35578,0.34209 c 0.0547,-0.0274 0.10947,-0.0274 0.15052,-0.0274 c 0.21894,0 0.28736,0.21894 0.51999,0.25999 c 0.0547,-0.0274 0.10947,-0.0274 0.1642,-0.0274 c 0.23263,0 0.31473,0.24631 0.57472,0.24631 c 0.0411,0 0.0821,0 0.12316,-0.0137 l 0,0.0411 c 0.0821,-0.0274 0.15052,-0.0547 0.20526,-0.0547 c 0.32841,0 0.31472,0.53367 0.61577,0.56104 c 0.30104,0.13684 0.25999,0.61577 0.57472,0.76629 c -0.0137,0.0547 -0.0274,0.10947 -0.0274,0.16421 c 0,0.15052 0.0411,0.30104 0.0411,0.41051 c 0,0.12316 -0.0411,0.21894 -0.17789,0.24631 c 0.0137,0.0274 0.0137,0.0547 0.0137,0.0821 c 0,0.13684 -0.16421,0.15053 -0.16421,0.27368 c 0,0.0137 0,0.0411 0.0137,0.0547 c -0.0821,0.20525 -0.28736,0.27367 -0.45156,0.41051 l 0,0.0958 c -0.30105,0.0411 -0.28736,0.43788 -0.60209,0.43788 c -0.0547,0 -0.10947,0 -0.17789,-0.0274 c -0.1642,0.21894 -0.46525,0.27368 -0.77998,0.27368 c -0.19157,0 -0.39683,-0.0274 -0.5884,-0.0274 c -0.10947,0 -0.21894,0.0137 -0.31473,0.0274 c -0.41051,-0.23263 -0.61577,-0.65683 -1.19049,-0.68419 c -0.17789,-0.0411 -0.20526,-0.30105 -0.24631,-0.45157 c -0.0274,-0.19157 -0.23262,-0.0547 -0.32841,-0.25999 c 0,-0.0274 0.0137,-0.0547 0.0137,-0.0821 c 0,-0.27368 -0.34209,-0.41052 -0.34209,-0.61578 c 0,-0.0411 0.0137,-0.0821 0.041,-0.12315 c -0.041,-0.0137 -0.0821,-0.0137 -0.10947,-0.0137 c -0.23263,0 -0.15052,0.32841 -0.39683,0.32841 c -0.0274,0 -0.0411,-0.0137 -0.0684,-0.0137 c -0.0274,0.0821 -0.0411,0.16421 -0.0411,0.23263 c 0,0.15052 0.0547,0.28736 0.17789,0.38315 c 0,0.2463 0.20525,0.43788 0.20525,0.68419 c 0,0.0684 -0.0137,0.13683 -0.041,0.20525 c 0.0958,0.0821 0.36947,0 0.36947,0.17789 c 0,0.0274 -0.0137,0.0411 -0.0137,0.0684 c 0.46525,0.16421 0.61577,0.67051 1.12207,0.82103 c 0.10947,0.16421 0.3421,0.12316 0.47894,0.25999 c 0.23262,0.10947 0.71156,-0.0958 0.71156,0.31473 c 0.0547,0.0274 0.12315,0.0547 0.19157,0.0547 c 0.15052,0 0.30104,-0.0684 0.32841,-0.16421 c 0.47893,-0.1642 1.09471,-0.19157 1.49154,-0.41051 c 0.54735,0 0.51998,-0.46525 1.10839,-0.46525 c 0.0684,-0.0821 0.19157,-0.24631 0.20525,-0.35578 c 0.32842,-0.13684 0.19158,-0.64314 0.27368,-0.95787 c 0.16421,-0.0274 0.20526,-0.17789 0.20526,-0.32841 c 0,-0.12316 -0.0274,-0.25999 -0.041,-0.35578 c 0,-0.0137 0.0137,-0.0137 0.0137,-0.0274 c 0.0274,-0.12315 0.0958,-0.38315 0.28736,-0.43788 c 0.0137,0.0411 0.041,0.10947 0.0821,0.10947 c 0.0958,0 0.0958,-0.12315 0.16421,-0.15052 m -6.70507,-0.10947 l -0.16421,-0.13684 l 0,0.17789 l 0.0547,0 c 0.041,0 0.0958,0 0.10947,-0.0411"
           style=""
           id="path2860" />
        <path
           d="m 414.05447,528.06546 c 0.0274,-0.0137 0.0274,-0.0411 0.0274,-0.0684 c 0,-0.0547 -0.041,-0.12315 -0.0547,-0.13684 c 0,-0.28736 -0.13684,-0.4242 -0.24631,-0.65682 c -0.041,0.0137 -0.0821,0.0137 -0.12316,0.0137 c -0.12315,0 -0.24631,-0.0274 -0.36946,-0.0274 c -0.25999,0 -0.20526,0.19157 -0.5063,0.19157 c -0.0684,0 -0.13684,-0.0137 -0.17789,-0.0547 l 0,-0.0274 l -0.46525,0.0274 c -0.041,0.0547 -0.0684,0.0547 -0.10947,0.0547 l -0.041,0 c -0.0821,0 -0.17789,0 -0.17789,-0.0821 c -0.0274,0.0137 -0.0547,0.0137 -0.0821,0.0137 c -0.10947,0 -0.12315,-0.13684 -0.19157,-0.19157 l -2.50414,-0.0274 c -0.0821,-0.16421 -0.1642,-0.21894 -0.24631,-0.21894 c -0.19157,0 -0.38314,0.28736 -0.6705,0.28736 c -0.0547,0 -0.12316,-0.0137 -0.19158,-0.0411 c -0.20525,0.10947 -0.17789,0.34209 -0.21894,0.5884 l -0.0547,0 l 0.27367,0.31473 c 0,0.0411 0.041,0.0547 0.0958,0.0547 c 0.0411,0 0.0821,-0.0137 0.10947,-0.0137 c 0.0958,0 0.0547,0.0821 0.30104,0.0821 c 0.0547,0 0.0958,0.0137 0.10947,0.0821 c 0.19158,0 0.4242,-0.0821 0.64314,-0.0821 c 0.0821,0 0.17789,0.0137 0.26,0.0411 l 0,0.0411 l 0.12315,0 l 0,-0.0411 c 0.0684,-0.0684 0.19157,-0.0274 0.28736,-0.0547 c 0.25999,0 0.0684,0.39683 0.24631,0.45157 c 0.13684,0.27367 0.16421,0.56103 0.16421,0.87576 c 0,0.45156 -0.0547,0.91682 -0.0547,1.39575 c 0,0.0411 0,0.0958 0.0137,0.12315 c -0.0411,0.0137 -0.0684,0.0684 -0.0958,0.0684 c -0.0137,0 -0.0137,-0.0137 -0.0274,-0.0137 c -0.0137,0.0958 -0.0274,0.17789 -0.0274,0.24631 c 0,0.32841 0.12316,0.56103 0.12316,0.86208 c 0,0.0821 -0.0137,0.17789 -0.0411,0.28736 l -0.0547,0 l 0,0.13684 c 0.0684,0.0821 0.0958,0.21894 0.0958,0.36946 c 0,0.13684 -0.0274,0.28736 -0.0411,0.39683 l -0.0547,0 c -0.0137,0.0411 -0.0137,0.0821 -0.0137,0.12315 c 0,0.20526 0.13683,0.32842 0.13683,0.57472 c -0.0684,0.12316 -0.13683,0.23263 -0.27367,0.23263 c -0.0684,0.12315 -0.0958,0.25999 -0.0958,0.38315 c 0,0.30104 0.13684,0.61577 0.16421,0.88944 c -0.0821,0.0547 -0.10947,0.20526 -0.10947,0.36947 c 0,0.12315 0.0137,0.25999 0.0137,0.39683 c 0,0.28736 -0.0411,0.56103 -0.31473,0.65682 c 0.20526,0 0.10947,0.31473 0.24631,0.36946 c -0.0137,0.0684 -0.0274,0.15053 -0.0274,0.19158 c 0,0.24631 0.19158,0.30104 0.4242,0.30104 c 0.12316,0 0.25999,-0.0137 0.38315,-0.0137 c 0.0684,0 0.13684,0 0.19157,0.0137 c 0.15052,-0.0274 0.20526,-0.0958 0.20526,-0.24631 c 0.0958,-0.0684 0.23262,-0.0274 0.34209,-0.0547 l 0,-0.10947 l -0.041,0 c -0.0547,-0.0137 -0.0547,-0.0547 -0.0547,-0.10947 l 0,-0.0547 c 0,-0.0684 0.0684,-0.0821 0.0958,-0.0821 l 0,-0.10947 c 0,-0.0137 -0.0137,-0.0137 -0.0137,-0.0274 c 0,-0.0684 0.041,-0.0684 0.0821,-0.0684 c 0.0684,-0.10947 0.0958,-0.21894 0.0958,-0.32841 c 0,-0.25999 -0.17789,-0.47893 -0.17789,-0.75261 c 0,-0.0684 0.0137,-0.13684 0.041,-0.20526 l 0.041,0 l 0,-0.13684 c -0.0684,0 -0.0684,-0.0547 -0.0684,-0.10947 l 0,-0.0547 c 0,-0.0684 0,-0.15052 0.0684,-0.16421 l -0.041,0 c -0.0274,-0.0137 -0.041,-0.041 -0.041,-0.0684 c 0,-0.0274 0.0137,-0.0547 0.0137,-0.0821 c -0.13683,-0.0821 -0.19157,-0.17789 -0.19157,-0.27368 c 0,-0.20525 0.21894,-0.39683 0.21894,-0.57472 c 0,-0.0958 -0.12315,-0.19157 -0.12315,-0.2463 c 0,-0.10948 0.24631,-0.0958 0.24631,-0.3421 c 0,-0.13684 -0.0821,-0.28736 -0.15053,-0.38315 l 0.0684,-0.0684 c -0.0821,0 -0.0958,-0.0411 -0.0958,-0.0958 c 0,-0.0137 0.0137,-0.0411 0.0137,-0.0547 c 0,-0.10947 -0.0958,-0.0547 -0.0958,-0.23262 c 0,-0.0821 0.0274,-0.16421 0.10947,-0.17789 l 0,-0.13684 c 0,-0.13684 0.0958,-0.16421 0.0958,-0.32841 c 0,-0.20526 -0.12315,-0.3421 -0.12315,-0.51999 c 0,-0.28736 0.25999,-0.24631 0.25999,-0.38314 c 0,-0.24631 -0.32841,-0.60209 -0.32841,-0.73893 c 0,-0.041 0.0547,-0.0684 0.0958,-0.0684 l 0,-0.25999 c 0.0684,-0.0821 0.16421,-0.28736 0.23263,-0.39683 l -0.23263,-0.16421 l 0,-0.10947 c 0,-0.0684 0,-0.15052 0.0684,-0.1642 l -0.041,0 c -0.0274,-0.0137 -0.041,-0.0411 -0.041,-0.0684 c 0,-0.10947 0.0821,-0.27368 0.0821,-0.32842 c 0,-0.0821 -0.041,-0.0958 -0.0684,-0.19157 c 0,0 0.0137,-0.0274 0.0684,-0.0274 c 0,-0.35578 0.16421,-0.6705 0.47894,-0.6705 c 0.0274,0 0.0547,0.0137 0.0958,0.0137 c 0.17789,0.3421 0.79367,0.16421 0.80735,0.61577 c 0.0547,0.0137 0.0958,0.0274 0.13684,0.0274 c 0.28736,0 0.36946,-0.30104 0.51998,-0.47893 c 0.041,0.0137 0.0821,0.0137 0.12316,0.0137 c 0.19157,0 0.30104,-0.13684 0.45156,-0.17789"
           style=""
           id="path2862" />
      </g>
    </g>
  </g>
</svg>
