<?xml version="1.0" encoding="UTF-8" standalone="no"?>
<!-- Created with Inkscape (http://www.inkscape.org/) -->

<svg
   xmlns:dc="http://purl.org/dc/elements/1.1/"
   xmlns:cc="http://creativecommons.org/ns#"
   xmlns:rdf="http://www.w3.org/1999/02/22-rdf-syntax-ns#"
   xmlns:svg="http://www.w3.org/2000/svg"
   xmlns="http://www.w3.org/2000/svg"
   xmlns:xlink="http://www.w3.org/1999/xlink"
   xmlns:sodipodi="http://sodipodi.sourceforge.net/DTD/sodipodi-0.dtd"
   xmlns:inkscape="http://www.inkscape.org/namespaces/inkscape"
   width="200"
   height="100"
   id="svg7229"
   sodipodi:version="0.32"
   inkscape:version="0.47pre4 r22446"
   version="1.0"
   sodipodi:docname="configuration-icons.svg"
   inkscape:output_extension="org.inkscape.output.svgz.inkscape">
  <defs
     id="defs7231">
    <inkscape:perspective
       sodipodi:type="inkscape:persp3d"
       inkscape:vp_x="0 : 50 : 1"
       inkscape:vp_y="0 : 1000 : 0"
       inkscape:vp_z="200 : 50 : 1"
       inkscape:persp3d-origin="100 : 33.333333 : 1"
       id="perspective87" />
    <linearGradient
       id="linearGradient4158">
      <stop
         id="stop4160"
         offset="0"
         style="stop-color:#00ffff;stop-opacity:1" />
      <stop
         id="stop4162"
         offset="1"
         style="stop-color:#008080;stop-opacity:1" />
    </linearGradient>
    <linearGradient
       inkscape:collect="always"
       xlink:href="#linearGradient4158"
       id="linearGradient2649"
       gradientUnits="userSpaceOnUse"
       gradientTransform="translate(-119.36428,90.50504)"
       x1="418.89999"
       y1="318.5686"
       x2="418.89999"
       y2="272.98996" />
  </defs>
  <sodipodi:namedview
     id="base"
     pagecolor="#aaaaaa"
     bordercolor="#666666"
     borderopacity="1.0"
     inkscape:pageopacity="1"
     inkscape:pageshadow="2"
     inkscape:zoom="4.6315789"
     inkscape:cx="105.25"
     inkscape:cy="45"
     inkscape:document-units="px"
     inkscape:current-layer="layer1"
     showgrid="true"
     inkscape:window-width="1024"
     inkscape:window-height="715"
     inkscape:window-x="-15"
     inkscape:window-y="0"
     showguides="true"
     inkscape:guide-bbox="true"
     gridtolerance="6"
     inkscape:window-maximized="1">
    <inkscape:grid
       type="xygrid"
       id="grid7245"
       visible="true"
       enabled="true" />
  </sodipodi:namedview>
  <metadata
     id="metadata7234">
    <rdf:RDF>
      <cc:Work
         rdf:about="">
        <dc:format>image/svg+xml</dc:format>
        <dc:type
           rdf:resource="http://purl.org/dc/dcmitype/StillImage" />
        <dc:title></dc:title>
      </cc:Work>
    </rdf:RDF>
  </metadata>
  <g
     inkscape:label="Camada 1"
     inkscape:groupmode="layer"
     id="layer1"
     transform="translate(-214.53572,-326.50504)">
    <g
       id="close">
      <path
         id="path3485"
         d="M 391.03572,350.56754 L 390.53572,351.06754 L 394.97322,355.50504 L 395.47322,355.00504 L 391.03572,350.56754 z M 403.03572,350.56754 L 398.59822,355.00504 L 399.09822,355.50504 L 403.53572,351.06754 L 403.03572,350.56754 z M 397.03572,356.56754 L 392.09822,361.50504 L 391.03572,360.44254 L 390.53572,360.94254 L 392.09822,362.50504 L 397.03572,357.56754 L 401.97322,362.50504 L 403.53572,360.94254 L 403.03572,360.44254 L 401.97322,361.50504 L 397.03572,356.56754 z"
         style="fill:#008080;fill-opacity:0.78431373999999998;fill-rule:nonzero;stroke:none;stroke-width:0.89300000999999984;stroke-linecap:round;stroke-linejoin:round;stroke-miterlimit:4;stroke-dasharray:2.67899999999999983, 0.89300000000000002;stroke-dashoffset:0;stroke-opacity:1;opacity:1" />
      <rect
         y="347.50504"
         x="389.53571"
         height="16"
         width="16"
         id="rect3403"
         style="opacity:0;fill:#000000;fill-opacity:0.49803922;fill-rule:nonzero;stroke:none;stroke-width:1.20000005;stroke-linecap:round;stroke-linejoin:miter;stroke-miterlimit:4;stroke-dasharray:none;stroke-dashoffset:0;stroke-opacity:1" />
      <path
         sodipodi:nodetypes="ccccccccccccc"
         style="fill:#00ffff;fill-opacity:0.62745099999999998;fill-rule:nonzero;stroke:none;stroke-width:0.89300000999999984;stroke-linecap:round;stroke-linejoin:round;stroke-miterlimit:4;stroke-dasharray:2.67899999999999983, 0.89300000000000002;stroke-dashoffset:0;stroke-opacity:1"
         d="M 401.95805,348.50504 L 397.03572,353.42737 L 392.11339,348.50504 L 390.53572,350.08271 L 395.45805,355.00504 L 390.53572,359.92737 L 392.11339,361.50504 L 397.03572,356.58271 L 401.95805,361.50504 L 403.53572,359.92737 L 398.61339,355.00504 L 403.53572,350.08271 L 401.95805,348.50504 z"
         id="path3507"
         inkscape:transform-center-x="117.13602"
         inkscape:transform-center-y="56.894638" />
    </g>
    <g
       id="rotate">
      <path
         id="path3451"
         d="M 348.91072,349.38004 C 346.27623,349.38004 344.12947,351.49553 344.12947,354.13004 C 344.12947,354.30047 344.17452,354.46421 344.19197,354.63004 C 344.45182,352.24035 346.4523,350.38004 348.91072,350.38004 C 349.6922,350.38004 350.41524,350.57792 351.06697,350.91129 L 351.56697,350.19254 C 350.80517,349.6777 349.89871,349.38004 348.91072,349.38004 z M 354.69197,351.38004 L 350.97322,352.06754 L 350.19197,353.22379 L 354.87947,352.34879 L 354.69197,351.38004 z M 342.56697,354.78629 C 342.56029,354.90562 342.53572,355.00905 342.53572,355.13004 C 342.53572,358.6427 345.39806,361.50504 348.91072,361.50504 C 352.42337,361.50504 355.25447,358.6427 355.25447,355.13004 L 355.16072,355.13004 C 354.67975,358.16726 352.08252,360.50504 348.91072,360.50504 C 345.6176,360.50504 342.89304,357.99384 342.56697,354.78629 z"
         style="fill:#008080;fill-opacity:0.78431373999999998;fill-rule:nonzero;stroke:none;stroke-width:0.89300000999999984;stroke-linecap:round;stroke-linejoin:round;stroke-miterlimit:4;stroke-dasharray:2.67899999999999983, 0.89300000000000002;stroke-dashoffset:0;stroke-opacity:1;opacity:1" />
      <rect
         y="346.50504"
         x="340.53571"
         height="16"
         width="16"
         id="rect3407"
         style="opacity:0;fill:#000000;fill-opacity:0.49803922;fill-rule:nonzero;stroke:none;stroke-width:1.20000005;stroke-linecap:round;stroke-linejoin:miter;stroke-miterlimit:4;stroke-dasharray:none;stroke-dashoffset:0;stroke-opacity:1" />
      <path
         style="fill:#00ffff;fill-opacity:0.62745099999999998;fill-rule:nonzero;stroke:none;stroke-width:0.89300000999999984;stroke-linecap:round;stroke-linejoin:round;stroke-miterlimit:4;stroke-dasharray:2.67899999999999983, 0.89300000000000002;stroke-dashoffset:0;stroke-opacity:1"
         d="M 353.97018,346.64947 L 352.46382,348.86676 C 351.36325,348.12268 350.22841,347.778 348.89924,347.778 C 345.38658,347.778 342.53572,350.62886 342.53572,354.14153 C 342.53572,357.65419 345.38658,360.50504 348.89924,360.50504 C 352.4119,360.50504 355.26277,357.65419 355.26277,354.14153 L 353.67189,354.14153 C 353.67189,356.77601 351.53374,358.91416 348.89924,358.91416 C 346.26475,358.91416 344.1266,356.77601 344.1266,354.14153 C 344.1266,351.50702 346.26475,349.36888 348.89924,349.36888 C 349.88724,349.36888 350.80714,349.66937 351.56894,350.18421 L 350.17693,352.23247 L 354.86505,351.3376 L 353.97018,346.64947 z"
         id="path3511" />
    </g>
    <g
       id="configure">
      <path
         id="path3469"
         d="M 375.78572,348.85443 L 374.50447,350.10443 C 374.30205,350.3029 374.38048,350.63991 374.59822,351.01068 L 376.09822,349.54193 C 376.23564,349.40719 376.05757,349.10396 375.78572,348.85443 z M 372.50447,351.38568 C 372.45594,351.72837 372.45116,352.07448 372.50447,352.41693 L 372.72322,352.19818 C 372.6203,351.94029 372.54427,351.65672 372.50447,351.38568 z M 379.37947,352.38568 C 379.20556,352.7577 378.91114,353.07886 378.59822,353.38568 C 377.66218,354.30347 376.35582,354.62611 375.16072,354.32318 L 369.16072,360.19818 C 368.74344,360.60732 368.04676,360.60734 367.62947,360.19818 L 366.84822,359.41693 C 366.77949,359.34954 366.73806,359.27755 366.69197,359.19818 C 366.47381,359.5975 366.50641,360.08178 366.84822,360.41693 L 367.62947,361.19818 C 368.04676,361.60734 368.74344,361.60732 369.16072,361.19818 L 375.16072,355.32318 C 376.35582,355.62611 377.66218,355.30347 378.59822,354.38568 C 379.03906,353.95344 379.41825,353.47381 379.53572,352.91693 C 379.56692,352.76899 379.48854,352.5606 379.37947,352.38568 z M 373.50447,353.16693 C 373.35703,353.18438 373.19358,353.26153 373.06697,353.38568 L 368.25447,358.16693 C 368.00126,358.4152 367.96204,358.72212 368.16072,358.91693 C 368.22458,358.97955 368.28946,359.02692 368.37947,359.04193 L 373.06697,354.38568 C 373.19358,354.26153 373.35703,354.18438 373.50447,354.16693 C 373.56787,354.15943 373.63531,354.18352 373.69197,354.19818 L 373.78572,354.10443 C 374.03894,353.85615 374.07814,353.48673 373.87947,353.29193 C 373.78013,353.19453 373.6519,353.14949 373.50447,353.16693 z"
         style="fill:#008080;fill-opacity:0.78431373999999998;fill-rule:nonzero;stroke:none;stroke-width:0.89300000999999984;stroke-linecap:round;stroke-linejoin:round;stroke-miterlimit:4;stroke-dasharray:2.67899999999999983, 0.89300000000000002;stroke-dashoffset:0;stroke-opacity:1;opacity:1" />
      <rect
         style="opacity:0;fill:#000000;fill-opacity:0.49803922;fill-rule:nonzero;stroke:none;stroke-width:1.20000005;stroke-linecap:round;stroke-linejoin:miter;stroke-miterlimit:4;stroke-dasharray:none;stroke-dashoffset:0;stroke-opacity:1"
         id="rect3405"
         width="16"
         height="16"
         x="364.53571"
         y="346.50504" />
      <path
         style="fill:#00ffff;fill-opacity:0.62745099999999998;fill-rule:nonzero;stroke:none;stroke-width:0.89300000999999984;stroke-linecap:round;stroke-linejoin:round;stroke-miterlimit:4;stroke-dasharray:2.67899999999999983, 0.89300000000000002;stroke-dashoffset:0;stroke-opacity:1"
         d="M 375.02688,347.52296 C 374.46538,347.67367 373.9454,347.96174 373.50536,348.39321 C 372.46109,349.41713 372.20664,350.91654 372.7129,352.18504 L 366.84869,357.93493 C 366.43139,358.34407 366.4314,359.01764 366.84869,359.4268 L 367.64115,360.20381 C 368.05843,360.61297 368.74539,360.61295 369.16267,360.20381 L 375.15368,354.32959 C 376.34879,354.63252 377.67276,354.31497 378.6088,353.39718 C 379.04963,352.96494 379.41059,352.46219 379.52806,351.90531 C 379.57118,351.70084 379.42638,351.36827 379.24277,351.19046 C 379.09998,351.05216 378.92975,351.00008 378.7673,351.15938 L 377.18237,352.74449 C 376.58257,353.33262 373.79011,350.81801 374.51971,350.10264 L 376.10463,348.54861 C 376.36149,348.29676 375.50182,347.39547 375.02688,347.52296 z M 373.50536,353.17961 C 373.65279,353.16217 373.7864,353.20654 373.88574,353.30394 C 374.08441,353.49874 374.04386,353.86375 373.79064,354.11203 L 368.97248,358.83627 C 368.71928,359.08455 368.347,359.12432 368.14832,358.92951 C 367.94963,358.7347 367.99021,358.40077 368.24342,358.1525 L 373.06158,353.39718 C 373.18819,353.27303 373.35792,353.19706 373.50536,353.17961 z"
         id="path3509" />
    </g>
    <g
       id="size-diagonal-tl2br">
      <path
         id="path3299"
         d="M 238.53572,350.50504 L 238.53572,351.50504 L 239.53572,351.50504 L 242.37947,351.50504 L 250.53572,351.50504 L 250.53572,350.50504 L 238.53572,350.50504 z M 241.37947,352.50504 L 241.31697,352.56754 L 241.81697,353.06754 L 242.37947,352.50504 L 241.37947,352.50504 z M 240.59822,353.28629 L 239.53572,354.34879 L 239.53572,355.34879 L 240.59822,354.28629 L 242.00447,355.69254 L 242.72322,354.97379 L 242.22322,354.47379 L 242.00447,354.69254 L 240.59822,353.28629 z M 246.84822,356.53629 L 246.34822,357.03629 L 247.25447,357.94254 L 247.75447,357.44254 L 246.84822,356.53629 z M 247.69197,358.50504 L 246.69197,359.50504 L 249.53572,359.50504 L 249.53572,358.50504 L 247.69197,358.50504 z M 237.53572,359.53629 L 237.53572,360.53629 C 237.53572,361.07493 237.96582,361.50504 238.50447,361.50504 L 250.56697,361.50504 C 251.10561,361.50504 251.53572,361.07493 251.53572,360.53629 L 251.53572,359.53629 C 251.53572,360.07493 251.10561,360.50504 250.56697,360.50504 L 250.53572,360.50504 L 238.53572,360.50504 L 238.50447,360.50504 C 237.96582,360.50504 237.53572,360.07493 237.53572,359.53629 z"
         style="fill:#008080;fill-opacity:0.78431373999999998;stroke:none;stroke-width:0.30000000999999998;stroke-linecap:round;stroke-linejoin:round;stroke-miterlimit:4;stroke-dasharray:none;stroke-opacity:1;opacity:1" />
      <rect
         y="346.50504"
         x="236.53572"
         height="16"
         width="16"
         id="rect2432"
         style="opacity:0;fill:#000000;fill-opacity:0.49803922;fill-rule:nonzero;stroke:none;stroke-width:1.20000005;stroke-linecap:round;stroke-linejoin:miter;stroke-miterlimit:4;stroke-dasharray:none;stroke-dashoffset:0;stroke-opacity:1" />
      <path
         sodipodi:nodetypes="cccccccccccccccccccccccccccccc"
         style="fill:#00ffff;fill-opacity:0.66666669000000001;stroke:none;stroke-width:0.30000000999999998;stroke-linecap:round;stroke-linejoin:round;stroke-miterlimit:4;stroke-dasharray:none;stroke-opacity:1"
         d="M 238.50447,349.50504 C 237.96582,349.50504 237.53572,349.93515 237.53572,350.4738 L 237.53572,359.5363 C 237.53572,360.07494 237.96582,360.50504 238.50447,360.50504 L 250.56697,360.50504 C 251.10561,360.50504 251.53572,360.07494 251.53572,359.5363 L 251.53572,350.4738 C 251.53572,349.93515 251.10561,349.50504 250.56697,349.50504 L 238.50447,349.50504 z M 238.53572,350.50504 L 250.53572,350.50504 L 250.53572,359.50504 L 238.53572,359.50504 L 238.53572,350.50504 z M 239.53572,351.50504 L 239.53572,354.3488 L 240.59822,353.2863 L 242.00447,354.69254 L 242.72322,353.9738 L 241.31696,352.56754 L 242.37946,351.50504 L 239.53572,351.50504 z M 247.06697,355.3488 L 246.34821,356.0363 L 247.75447,357.44254 L 246.69197,358.50504 L 249.53572,358.50504 L 249.53572,355.7238 L 248.47322,356.75504 L 247.06697,355.3488 z"
         id="path2438" />
    </g>
    <g
       id="size-diagonal-tr2bl">
      <path
         id="path3312"
         transform="translate(214.53572,326.50504)"
         d="M 45,24 L 45,25 L 53.15625,25 L 56,25 L 57,25 L 57,24 L 45,24 z M 53.15625,26 L 53.71875,26.5625 L 54.21875,26.0625 L 54.15625,26 L 53.15625,26 z M 54.9375,26.78125 L 53.53125,28.1875 L 53.3125,27.96875 L 52.8125,28.46875 L 53.53125,29.1875 L 54.9375,27.78125 L 56,28.84375 L 56,27.84375 L 54.9375,26.78125 z M 48.6875,30.03125 L 47.78125,30.9375 L 48.28125,31.4375 L 49.1875,30.53125 L 48.6875,30.03125 z M 46,32 L 46,33 L 48.84375,33 L 47.84375,32 L 46,32 z M 44,33.03125 L 44,34.03125 C 44,34.56989 44.43011,35 44.96875,35 L 57.03125,35 C 57.5699,35 58,34.569889 58,34.03125 L 58,33.03125 C 58,33.569889 57.5699,34 57.03125,34 L 57,34 L 45,34 L 44.96875,34 C 44.43011,34 44,33.56989 44,33.03125 z"
         style="fill:#008080;fill-opacity:0.78431373999999998;stroke:none;stroke-width:0.30000000999999998;stroke-linecap:round;stroke-linejoin:round;stroke-miterlimit:4;stroke-dasharray:none;stroke-opacity:1;opacity:1" />
      <rect
         transform="scale(-1,1)"
         style="opacity:0;fill:#000000;fill-opacity:0.49803922;fill-rule:nonzero;stroke:none;stroke-width:1.20000005;stroke-linecap:round;stroke-linejoin:miter;stroke-miterlimit:4;stroke-dasharray:none;stroke-dashoffset:0;stroke-opacity:1"
         id="rect3243"
         width="16"
         height="16"
         x="-273.53571"
         y="346.50504" />
      <path
         id="path3247"
         d="M 271.56697,349.50504 C 272.10562,349.50504 272.53572,349.93515 272.53572,350.4738 L 272.53572,359.5363 C 272.53572,360.07494 272.10562,360.50504 271.56697,360.50504 L 259.50447,360.50504 C 258.96583,360.50504 258.53572,360.07494 258.53572,359.5363 L 258.53572,350.4738 C 258.53572,349.93515 258.96583,349.50504 259.50447,349.50504 L 271.56697,349.50504 z M 271.53572,350.50504 L 259.53572,350.50504 L 259.53572,359.50504 L 271.53572,359.50504 L 271.53572,350.50504 z M 270.53572,351.50504 L 270.53572,354.3488 L 269.47322,353.2863 L 268.06697,354.69254 L 267.34822,353.9738 L 268.75448,352.56754 L 267.69198,351.50504 L 270.53572,351.50504 z M 263.00447,355.3488 L 263.72323,356.0363 L 262.31697,357.44254 L 263.37947,358.50504 L 260.53572,358.50504 L 260.53572,355.7238 L 261.59822,356.75504 L 263.00447,355.3488 z"
         style="fill:#00ffff;fill-opacity:0.66666669000000001;stroke:none;stroke-width:0.30000000999999998;stroke-linecap:round;stroke-linejoin:round;stroke-miterlimit:4;stroke-dasharray:none;stroke-opacity:1"
         sodipodi:nodetypes="cccccccccccccccccccccccccccccc" />
    </g>
    <g
       id="return-to-source">
      <path
         id="path3544"
         transform="translate(214.53572,326.50504)"
         d="M 73.90625,44 C 73.39089,44.04857 72.99777,44.48237 73,45 L 73,46 C 72.99777,45.48237 73.39089,45.04857 73.90625,45 C 73.93748,44.99853 73.96877,44.99853 74,45 L 76,45 C 76.55226,45.00005 76.99994,45.44774 77,46 L 77,45 C 76.99994,44.44774 76.55226,44.00005 76,44 L 73.90625,44 z M 77,46 L 77,47 C 77.37241,46.99124 77.69671,47.21036 77.875,47.53125 C 78.0452,47.26223 78.06541,46.93087 77.9375,46.625 C 77.77863,46.24504 77.41173,45.99031 77,46 z M 73,46 C 72.58827,45.99031 72.22139,46.24504 72.0625,46.625 C 71.93458,46.93087 71.9548,47.26223 72.125,47.53125 C 72.3033,47.21036 72.62759,46.99124 73,47 L 73,46 z M 73,48 L 75,50 L 77,48 L 76,48 L 75,49 L 74,48 L 73,48 z M 75,50 L 73.5625,50 L 73,50 L 67,50 L 67,51 L 73,51 L 73,52 L 73.5625,52 L 72.28125,53.28125 C 71.98519,53.56755 71.90361,53.99504 72.0625,54.375 C 72.07767,54.41129 72.10617,54.43487 72.125,54.46875 C 72.16623,54.40358 72.22352,54.33708 72.28125,54.28125 L 74.28125,52.28125 C 74.43826,52.11897 74.65379,52.03177 74.875,52 L 75.125,52 C 75.34621,52.03177 75.56174,52.11897 75.71875,52.28125 L 77.71875,54.28125 C 77.77648,54.33708 77.83377,54.40358 77.875,54.46875 C 77.89383,54.43487 77.92232,54.41129 77.9375,54.375 C 78.09641,53.99504 78.01481,53.56755 77.71875,53.28125 L 76.4375,52 L 77,52 L 77,51 L 83,51 L 83,50 L 77,50 L 76.4375,50 L 75,50 z M 67,53.875 L 67,54.875 C 67,57 69.1657,59 72,59 L 77.75,59 C 80.58433,59 83,57 83,54.875 L 83,53.875 C 83,56 80.58433,58 77.75,58 L 76.09375,58 L 74,58 L 72,58 C 69.1657,58 67,56 67,53.875 z M 74,54 L 73,55 L 74,55 L 74,54 z M 76,54 L 76,55 L 77,55 L 76,54 z M 74,56 L 74,57 L 76,57 L 76,56 L 74,56 z"
         style="fill:#008080;fill-opacity:0.78431373999999998;stroke:none;stroke-width:0.20000000000000001;stroke-linecap:round;stroke-linejoin:round;stroke-miterlimit:4;stroke-dasharray:none;stroke-opacity:1;opacity:1" />
      <path
         inkscape:label="#rect4132"
         sodipodi:nodetypes="ccccccsccsccccscccccccccccccccccsscccccsccsccccscccccccccccc"
         id="path3557"
         d="M 286.78572,369.50504 C 283.95139,369.50504 281.53572,371.50504 281.53572,373.63004 L 281.53572,376.50504 L 289.41072,376.50504 C 289.18951,376.47327 288.97398,376.38607 288.81697,376.22379 L 286.81697,374.22379 C 286.52091,373.93749 286.43931,373.51 286.59822,373.13004 C 286.75711,372.75008 287.12399,372.49535 287.53572,372.50504 L 287.53572,371.50504 C 287.53349,370.98741 287.92661,370.55361 288.44197,370.50504 C 288.4732,370.50357 288.50449,370.50357 288.53572,370.50504 L 290.53572,370.50504 C 291.08798,370.50509 291.53566,370.95278 291.53572,371.50504 L 291.53572,372.50504 C 291.94745,372.49535 292.31435,372.75008 292.47322,373.13004 C 292.63211,373.51 292.55053,373.93749 292.25447,374.22379 L 290.25447,376.22379 C 290.09746,376.38607 289.88193,376.47327 289.66072,376.50504 L 297.53572,376.50504 L 297.53572,373.63004 C 297.53572,371.50504 295.37002,369.50504 292.53572,369.50504 L 286.78572,369.50504 z M 288.53572,371.50504 L 288.53572,373.50504 L 287.53572,373.50504 L 289.53572,375.50504 L 291.53572,373.50504 L 290.53572,373.50504 L 290.53572,371.50504 L 288.53572,371.50504 z M 281.53572,377.50504 L 281.53572,380.38004 C 281.53572,382.50504 283.70142,384.50504 286.53572,384.50504 L 292.28572,384.50504 C 295.12005,384.50504 297.53572,382.50504 297.53572,380.38004 L 297.53572,377.50504 L 289.66072,377.50504 C 289.88193,377.53681 290.09746,377.62401 290.25447,377.78629 L 292.25447,379.78629 C 292.55053,380.07259 292.63213,380.50008 292.47322,380.88004 C 292.31433,381.26 291.94745,381.51473 291.53572,381.50504 L 291.53572,382.50504 C 291.53795,383.02267 291.14483,383.45647 290.62947,383.50504 C 290.59824,383.50651 290.56695,383.50651 290.53572,383.50504 L 288.53572,383.50504 C 287.98346,383.50499 287.53578,383.0573 287.53572,382.50504 L 287.53572,381.50504 C 287.12399,381.51473 286.75709,381.26 286.59822,380.88004 C 286.43933,380.50008 286.52091,380.07259 286.81697,379.78629 L 288.81697,377.78629 C 288.97398,377.62401 289.18951,377.53681 289.41072,377.50504 L 281.53572,377.50504 z M 289.53572,378.50504 L 287.53572,380.50504 L 288.53572,380.50504 L 288.53572,382.50504 L 290.53572,382.50504 L 290.53572,380.50504 L 291.53572,380.50504 L 289.53572,378.50504 z"
         style="fill:url(#linearGradient2649);fill-opacity:1;stroke:none;stroke-width:0.20000000000000001;stroke-linecap:round;stroke-linejoin:round;stroke-miterlimit:4;stroke-dasharray:none;stroke-opacity:1" />
    </g>
    <g
       id="collapse">
      <path
         id="rect3564"
         transform="translate(214.53572,326.50504)"
         d="M 91,55 L 91,56 L 103,56 L 103,55 L 91,55 z"
         style="fill:#008080;fill-opacity:0.78431373999999998;stroke:none;stroke-width:0.50800002000000000;stroke-miterlimit:4;stroke-dasharray:none;stroke-dashoffset:0;stroke-opacity:1;opacity:1" />
      <path
         id="path3566"
         transform="translate(214.53572,326.50504)"
         d="M 93,49 L 97,53 L 101,49 L 100,49 L 97,52 L 94,49 L 93,49 z"
         style="fill:#008080;fill-opacity:0.78431373999999998;fill-rule:evenodd;stroke:none;stroke-width:1px;stroke-linecap:butt;stroke-linejoin:miter;stroke-opacity:1;opacity:1" />
      <rect
         y="367.50894"
         x="303.53571"
         height="16"
         width="16"
         id="rect3275"
         style="opacity:0;fill:#000000;fill-opacity:0.49803922;stroke:none;stroke-width:1.10800004;stroke-linejoin:round;stroke-miterlimit:4;stroke-dasharray:none;stroke-dashoffset:0;stroke-opacity:1" />
      <rect
         ry="0"
         y="379.50119"
         x="305.53571"
         height="2.0038605"
         width="12"
         id="rect2444"
         style="fill:#00ffff;fill-opacity:0.62745099999999998;stroke:none;stroke-width:0.50800002000000000;stroke-miterlimit:4;stroke-dasharray:none;stroke-dashoffset:0;stroke-opacity:1" />
      <path
         sodipodi:nodetypes="cccccccc"
         style="fill:#00ffff;fill-opacity:0.62745099999999998;fill-rule:evenodd;stroke:none;stroke-width:1px;stroke-linecap:butt;stroke-linejoin:miter;stroke-opacity:1"
         d="M 310.53572,369.50504 L 310.53572,374.50504 L 307.53572,374.50504 L 311.53572,378.50504 L 315.53572,374.50504 L 312.53572,374.50504 L 312.53572,369.50504 L 310.53572,369.50504 z"
         id="path3235" />
    </g>
    <g
       id="unmaximize">
      <path
         id="path3284"
         d="M 238.53572,393.50504 L 238.53572,394.50504 L 240.25447,394.50504 L 248.81697,394.50504 L 250.53572,394.50504 L 250.53572,393.50504 L 238.53572,393.50504 z M 240.03572,395.72379 L 239.53572,396.22379 L 240.44197,397.13004 L 240.94197,396.63004 L 240.03572,395.72379 z M 249.03572,395.72379 L 248.12947,396.63004 L 248.62947,397.13004 L 249.53572,396.22379 L 249.03572,395.72379 z M 240.81697,397.50504 L 240.94197,397.63004 L 240.09822,398.50504 L 242.53572,398.50504 L 242.53572,397.50504 L 240.81697,397.50504 z M 246.53572,397.50504 L 246.53572,398.50504 L 248.97322,398.50504 L 248.12947,397.63004 L 248.25447,397.50504 L 246.53572,397.50504 z M 240.03572,399.50504 L 240.44197,399.91129 L 240.84822,399.50504 L 240.03572,399.50504 z M 248.22322,399.50504 L 248.62947,399.91129 L 249.03572,399.50504 L 248.22322,399.50504 z M 241.66072,400.09879 L 240.25447,401.50504 L 240.03572,401.31754 L 239.53572,401.81754 L 240.25447,402.50504 L 241.66072,401.09879 L 242.53572,401.97379 L 242.53572,400.97379 L 241.66072,400.09879 z M 247.41072,400.09879 L 246.53572,400.94254 L 246.53572,401.94254 L 247.41072,401.09879 L 248.81697,402.50504 L 249.53572,401.81754 L 249.03572,401.31754 L 248.81697,401.50504 L 247.41072,400.09879 z M 237.53572,402.53629 L 237.53572,403.53629 C 237.53572,404.07493 237.96583,404.50504 238.50447,404.50504 L 250.56697,404.50504 C 251.10561,404.50504 251.53572,404.07493 251.53572,403.53629 L 251.53572,402.53629 C 251.53572,403.07493 251.10561,403.50504 250.56697,403.50504 L 250.53572,403.50504 L 238.53572,403.50504 L 238.50447,403.50504 C 237.96583,403.50504 237.53572,403.07493 237.53572,402.53629 z"
         style="fill:#008080;fill-opacity:0.78431373999999998;stroke:none;stroke-width:0.30000000999999998;stroke-linecap:round;stroke-linejoin:round;stroke-miterlimit:4;stroke-dasharray:none;stroke-opacity:1;opacity:1" />
      <rect
         y="390.50504"
         x="236.53572"
         height="16"
         width="16"
         id="rect2455"
         style="opacity:0;fill:#000000;fill-opacity:0.49803922;fill-rule:nonzero;stroke:none;stroke-width:1.20000005;stroke-linecap:round;stroke-linejoin:miter;stroke-miterlimit:4;stroke-dasharray:none;stroke-dashoffset:0;stroke-opacity:1" />
      <path
         d="M 238.50397,392.50504 C 237.96533,392.50504 237.53522,392.93514 237.53522,393.47379 L 237.53522,402.53629 C 237.53522,403.07493 237.96533,403.50504 238.50397,403.50504 L 250.56647,403.50504 C 251.10511,403.50504 251.53522,403.07493 251.53522,402.53629 L 251.53522,393.47379 C 251.53522,392.93514 251.10511,392.50504 250.56647,392.50504 L 238.50397,392.50504 z M 238.53522,393.50504 L 250.53522,393.50504 L 250.53522,402.50504 L 238.53522,402.50504 L 238.53522,393.50504 z M 242.53522,397.50504 L 242.53522,395.02175 L 241.67465,395.91852 L 240.2684,394.51228 L 239.54965,395.23102 L 240.9559,396.63728 L 240.09653,397.50504 L 242.53522,397.50504 z M 248.97152,397.50504 L 248.1434,396.63728 L 249.54965,395.23102 L 248.8309,394.51228 L 247.42465,395.91852 L 246.53522,395.03571 L 246.53522,397.50504 L 248.97152,397.50504 z M 240.2684,401.51228 L 241.67465,400.10604 L 242.53522,400.9826 L 242.53522,398.50504 L 240.03703,398.50504 L 240.9559,399.41854 L 239.54965,400.82478 L 240.2684,401.51228 z M 248.8309,401.51228 L 249.54965,400.82478 L 248.1434,399.41854 L 249.03402,398.50504 L 246.53522,398.50504 L 246.53522,400.93415 L 247.42465,400.10604 L 248.8309,401.51228 z"
         style="fill:#00ffff;fill-opacity:0.66666669000000001;stroke:none;stroke-width:0.30000000999999998;stroke-linecap:round;stroke-linejoin:round;stroke-miterlimit:4;stroke-dasharray:none;stroke-opacity:1"
         id="path2479" />
    </g>
    <g
       id="size-horizontal">
      <path
         sodipodi:nodetypes="cccccccc"
         id="path3264"
         d="M 283.53572,352.50504 L 281.53572,354.01672 L 283.53462,355.50504 L 283.53462,354.50504 L 286.53572,354.50504 L 286.53572,353.50504 L 283.53462,353.50504 L 283.53572,352.50504 z"
         style="fill:#00ffff;fill-opacity:0.66666669000000001;fill-rule:evenodd;stroke:none;stroke-width:1px;stroke-linecap:butt;stroke-linejoin:miter;stroke-opacity:1" />
      <path
         sodipodi:nodetypes="cccccccc"
         id="path3262"
         d="M 292.53572,352.50504 L 292.53217,353.50192 L 289.53217,353.50192 L 289.53217,354.50192 L 292.53217,354.50192 L 292.53388,355.50504 L 294.53572,354.0011 L 292.53572,352.50504 z"
         style="fill:#00ffff;fill-opacity:0.66666669000000001;fill-rule:evenodd;stroke:none;stroke-width:1px;stroke-linecap:butt;stroke-linejoin:miter;stroke-opacity:1" />
      <rect
         style="opacity:0;fill:#000000;fill-opacity:0.49803922;fill-rule:nonzero;stroke:none;stroke-width:1.20000005;stroke-linecap:round;stroke-linejoin:miter;stroke-miterlimit:4;stroke-dasharray:none;stroke-dashoffset:0;stroke-opacity:1"
         id="rect3413"
         width="16"
         height="16"
         x="280.53571"
         y="346.50504" />
      <path
         id="path3327"
         d="M 282.19197,354.50504 L 281.53572,355.00504 L 283.53572,356.50504 L 283.53572,355.50504 L 282.19197,354.50504 z M 283.53572,355.50504 L 286.53572,355.50504 L 286.53572,354.50504 L 283.53572,354.50504 L 283.53572,355.50504 z"
         style="fill:#008080;fill-opacity:0.78431373999999998;fill-rule:evenodd;stroke:none;stroke-width:1px;stroke-linecap:butt;stroke-linejoin:miter;stroke-opacity:1;opacity:1" />
      <path
         id="path3329"
         d="M 289.53572,354.50504 L 289.53572,355.50504 L 292.53572,355.50504 L 292.53572,354.50504 L 289.53572,354.50504 z M 292.53572,355.50504 L 292.53572,356.50504 L 294.53572,355.00504 L 293.87947,354.50504 L 292.53572,355.50504 z"
         style="fill:#008080;fill-opacity:0.78431373999999998;fill-rule:evenodd;stroke:none;stroke-width:1px;stroke-linecap:butt;stroke-linejoin:miter;stroke-opacity:1;opacity:1" />
    </g>
    <g
       id="size-vertical">
      <path
         sodipodi:nodetypes="cccccccc"
         id="path3266"
         d="M 305.08123,348.50504 L 303.53572,350.50504 L 304.53572,350.50504 L 304.53572,353.50504 L 305.53572,353.50504 L 305.53572,350.50504 L 306.53572,350.50504 L 305.08123,348.50504 z"
         style="fill:#00ffff;fill-opacity:0.66666669000000001;fill-rule:evenodd;stroke:none;stroke-width:1px;stroke-linecap:butt;stroke-linejoin:miter;stroke-opacity:1" />
      <path
         sodipodi:nodetypes="cccccccc"
         id="path3256"
         d="M 304.53572,356.50504 L 304.53572,359.50504 L 303.53572,359.50504 L 305.09281,361.50504 L 306.53572,359.50504 L 305.53572,359.50504 L 305.53572,356.50504 L 304.53572,356.50504 z"
         style="fill:#00ffff;fill-opacity:0.66666669000000001;fill-rule:evenodd;stroke:none;stroke-width:1px;stroke-linecap:butt;stroke-linejoin:miter;stroke-opacity:1" />
      <rect
         y="347.50504"
         x="296.70297"
         height="16"
         width="16"
         id="rect3411"
         style="opacity:0;fill:#000000;fill-opacity:0.49803922;fill-rule:nonzero;stroke:none;stroke-width:1.20000005;stroke-linecap:round;stroke-linejoin:miter;stroke-miterlimit:4;stroke-dasharray:none;stroke-dashoffset:0;stroke-opacity:1" />
      <path
         id="path3361"
         transform="translate(214.53572,326.50504)"
         d="M 89.75,24 L 89,25 L 90,25 L 90,24 L 89.75,24 z M 91,24 L 91,25 L 92,25 L 91.25,24 L 91,24 z M 90,27 L 90,28 L 91,28 L 91,27 L 90,27 z"
         style="fill:#008080;fill-opacity:0.78431373999999998;fill-rule:evenodd;stroke:none;stroke-width:1px;stroke-linecap:butt;stroke-linejoin:miter;stroke-opacity:1;opacity:1" />
      <path
         id="path3363"
         transform="translate(214.53572,326.50504)"
         d="M 89,34 L 90.5625,36 L 92,34 L 91.28125,34 L 90.5625,35 L 89.78125,34 L 89,34 z"
         style="fill:#008080;fill-opacity:0.78431373999999998;fill-rule:evenodd;stroke:none;stroke-width:1px;stroke-linecap:butt;stroke-linejoin:miter;stroke-opacity:1;opacity:1" />
    </g>
    <g
       id="move">
      <path
         style="fill:#00ffff;fill-opacity:0.66666667000000002;fill-rule:evenodd;stroke:none;stroke-width:1px;stroke-linecap:butt;stroke-linejoin:miter;stroke-opacity:1"
         d="M 323.08123,346.50504 L 321.53572,348.50504 L 322.53572,348.50504 L 322.53572,351.50504 L 323.53572,351.50504 L 323.53572,348.50504 L 324.53572,348.50504 L 323.08123,346.50504 z"
         id="path3398"
         sodipodi:nodetypes="cccccccc" />
      <path
         style="fill:#00ffff;fill-opacity:0.66666667000000002;fill-rule:evenodd;stroke:none;stroke-width:1px;stroke-linecap:butt;stroke-linejoin:miter;stroke-opacity:1"
         d="M 322.53572,354.50504 L 322.53572,357.50504 L 321.53572,357.50504 L 323.09281,359.50504 L 324.53572,357.50504 L 323.53572,357.50504 L 323.53572,354.50504 L 322.53572,354.50504 z"
         id="path3400"
         sodipodi:nodetypes="cccccccc" />
      <rect
         style="opacity:0;fill:#000000;fill-opacity:0.49803922;fill-rule:nonzero;stroke:none;stroke-width:1.20000005;stroke-linecap:round;stroke-linejoin:miter;stroke-miterlimit:4;stroke-dasharray:none;stroke-dashoffset:0;stroke-opacity:1"
         id="rect3402"
         width="16"
         height="16"
         x="314.53571"
         y="345.50504" />
      <path
         style="fill:#008080;fill-opacity:0.78431373000000004;fill-rule:evenodd;stroke:none;stroke-width:1px;stroke-linecap:butt;stroke-linejoin:miter;stroke-opacity:1;opacity:1"
         d="M 322.28572,348.50504 L 321.53572,349.50504 L 322.53572,349.50504 L 322.53572,348.50504 L 322.28572,348.50504 z M 323.53572,348.50504 L 323.53572,349.50504 L 324.53572,349.50504 L 323.78572,348.50504 L 323.53572,348.50504 z M 322.53572,351.50504 L 322.53572,352.50504 L 323.53572,352.50504 L 323.53572,351.50504 L 322.53572,351.50504 z"
         id="path3404" />
      <path
         style="fill:#008080;fill-opacity:0.78431373000000004;fill-rule:evenodd;stroke:none;stroke-width:1px;stroke-linecap:butt;stroke-linejoin:miter;stroke-opacity:1;opacity:1"
         d="M 321.53572,358.50504 L 323.09822,360.50504 L 324.53572,358.50504 L 323.81697,358.50504 L 323.09822,359.50504 L 322.31697,358.50504 L 321.53572,358.50504 z"
         id="path3406" />
      <path
         style="fill:#00ffff;fill-opacity:0.66666669000000001;fill-rule:evenodd;stroke:none;stroke-width:1px;stroke-linecap:butt;stroke-linejoin:miter;stroke-opacity:1"
         d="M 318.53927,351.50816 L 316.53927,353.01984 L 318.53817,354.50816 L 318.53817,353.50816 L 321.53927,353.50816 L 321.53927,352.50816 L 318.53817,352.50816 L 318.53927,351.50816 z"
         id="path3410"
         sodipodi:nodetypes="cccccccc" />
      <path
         style="fill:#00ffff;fill-opacity:0.66666669000000001;fill-rule:evenodd;stroke:none;stroke-width:1px;stroke-linecap:butt;stroke-linejoin:miter;stroke-opacity:1"
         d="M 327.53927,351.50816 L 327.53572,352.50504 L 324.53572,352.50504 L 324.53572,353.50504 L 327.53572,353.50504 L 327.53743,354.50816 L 329.53927,353.00422 L 327.53927,351.50816 z"
         id="path3412"
         sodipodi:nodetypes="cccccccc" />
      <path
         style="fill:#008080;fill-opacity:0.78431373999999998;fill-rule:evenodd;stroke:none;stroke-width:1px;stroke-linecap:butt;stroke-linejoin:miter;stroke-opacity:1;opacity:1"
         d="M 317.19552,353.50816 L 316.53927,354.00816 L 318.53927,355.50816 L 318.53927,354.50816 L 317.19552,353.50816 z M 318.53927,354.50816 L 321.53927,354.50816 L 321.53927,353.50816 L 318.53927,353.50816 L 318.53927,354.50816 z"
         id="path3416" />
      <path
         style="fill:#008080;fill-opacity:0.78431373999999998;fill-rule:evenodd;stroke:none;stroke-width:1px;stroke-linecap:butt;stroke-linejoin:miter;stroke-opacity:1;opacity:1"
         d="M 324.53927,353.50816 L 324.53927,354.50816 L 327.53927,354.50816 L 327.53927,353.50816 L 324.53927,353.50816 z M 327.53927,354.50816 L 327.53927,355.50816 L 329.53927,354.00816 L 328.88302,353.50816 L 327.53927,354.50816 z"
         id="path3418" />
    </g>
    <g
       id="maximize">
      <rect
         style="opacity:0;fill:#000000;fill-opacity:0.49803922;fill-rule:nonzero;stroke:none;stroke-width:1.20000005;stroke-linecap:round;stroke-linejoin:miter;stroke-miterlimit:4;stroke-dasharray:none;stroke-dashoffset:0;stroke-opacity:1"
         id="rect3401"
         width="16"
         height="16"
         x="236.53572"
         y="368.50504" />
      <path
         id="scale"
         d="M 238.50447,370.50504 C 237.96583,370.50504 237.53572,370.93515 237.53572,371.4738 L 237.53572,380.5363 C 237.53572,381.07494 237.96583,381.50504 238.50447,381.50504 L 250.56697,381.50504 C 251.10561,381.50504 251.53572,381.07494 251.53572,380.5363 L 251.53572,371.4738 C 251.53572,370.93515 251.10561,370.50504 250.56697,370.50504 L 238.50447,370.50504 z M 238.53572,371.50504 L 250.53572,371.50504 L 250.53572,380.50504 L 238.53572,380.50504 L 238.53572,371.50504 z M 239.53572,372.50504 L 239.53572,375.3488 L 240.59822,374.2863 L 242.00447,375.69254 L 242.72322,374.9738 L 241.31697,373.56754 L 242.37947,372.50504 L 239.53572,372.50504 z M 246.69197,372.50504 L 247.75447,373.56754 L 246.34822,374.9738 L 247.06697,375.69254 L 248.47322,374.2863 L 249.53572,375.3488 L 249.53572,372.50504 L 246.69197,372.50504 z M 242.00447,376.3488 L 240.59822,377.75504 L 239.53572,376.7238 L 239.53572,379.50504 L 242.37947,379.50504 L 241.31697,378.44254 L 242.72322,377.0363 L 242.00447,376.3488 z M 247.06697,376.3488 L 246.34822,377.0363 L 247.75447,378.44254 L 246.69197,379.50504 L 249.53572,379.50504 L 249.53572,376.7238 L 248.47322,377.75504 L 247.06697,376.3488 z"
         style="fill:#00ffff;fill-opacity:0.66666669000000001;stroke:none;stroke-width:0.30000000999999998;stroke-linecap:round;stroke-linejoin:round;stroke-miterlimit:4;stroke-dasharray:none;stroke-opacity:1" />
      <path
         id="path3501"
         d="M 238.53572,371.50504 L 238.53572,372.50504 L 239.53572,372.50504 L 242.37947,372.50504 L 246.69197,372.50504 L 249.53572,372.50504 L 250.53572,372.50504 L 250.53572,371.50504 L 238.53572,371.50504 z M 241.37947,373.50504 L 241.31697,373.56754 L 241.81697,374.06754 L 242.37947,373.50504 L 241.37947,373.50504 z M 246.69197,373.50504 L 247.25447,374.06754 L 247.75447,373.56754 L 247.69197,373.50504 L 246.69197,373.50504 z M 240.59822,374.28629 L 239.53572,375.34879 L 239.53572,376.34879 L 240.59822,375.28629 L 241.84822,376.50504 L 242.00447,376.34879 L 242.19197,376.50504 L 242.72322,375.97379 L 242.22322,375.47379 L 242.00447,375.69254 L 240.59822,374.28629 z M 248.47322,374.28629 L 247.06697,375.69254 L 246.84822,375.47379 L 246.34822,375.97379 L 246.87947,376.50504 L 247.06697,376.34879 L 247.22322,376.50504 L 248.47322,375.28629 L 249.53572,376.34879 L 249.53572,375.34879 L 248.47322,374.28629 z M 242.22322,377.53629 L 241.31697,378.44254 L 241.81697,378.94254 L 242.72322,378.03629 L 242.22322,377.53629 z M 246.84822,377.53629 L 246.34822,378.03629 L 247.25447,378.94254 L 247.75447,378.44254 L 246.84822,377.53629 z M 239.53572,379.50504 L 239.53572,380.50504 L 242.37947,380.50504 L 241.37947,379.50504 L 239.53572,379.50504 z M 247.69197,379.50504 L 246.69197,380.50504 L 249.53572,380.50504 L 249.53572,379.50504 L 247.69197,379.50504 z M 237.53572,380.53629 L 237.53572,381.53629 C 237.53572,382.07493 237.96583,382.50504 238.50447,382.50504 L 250.56697,382.50504 C 251.10561,382.50504 251.53572,382.07493 251.53572,381.53629 L 251.53572,380.53629 C 251.53572,381.07493 251.10561,381.50504 250.56697,381.50504 L 250.53572,381.50504 L 238.53572,381.50504 L 238.50447,381.50504 C 237.96583,381.50504 237.53572,381.07493 237.53572,380.53629 z"
         style="fill:#008080;fill-opacity:0.78431373999999998;stroke:none;stroke-width:0.30000000999999998;stroke-linecap:round;stroke-linejoin:round;stroke-miterlimit:4;stroke-dasharray:none;stroke-opacity:1;opacity:1" />
    </g>
    <g
       id="status">
      <rect
         transform="scale(-1,1)"
         y="368.50504"
         x="-274.53571"
         height="16"
         width="16"
         id="rect2428"
         style="opacity:0;fill:#000000;fill-opacity:0.49803922;fill-rule:nonzero;stroke:none;stroke-width:1.20000005;stroke-linecap:round;stroke-linejoin:miter;stroke-miterlimit:4;stroke-dasharray:none;stroke-dashoffset:0;stroke-opacity:1" />
      <path
         id="path2432"
         d="M 260.50448,370.50504 C 259.96584,370.50504 259.53573,370.93514 259.53573,371.47379 L 259.53573,380.53629 C 259.53573,381.07493 259.96584,381.50504 260.50448,381.50504 L 272.56698,381.50504 C 273.10563,381.50504 273.53573,381.07493 273.53573,380.53629 L 273.53573,371.47379 C 273.53573,370.93514 273.10563,370.50504 272.56698,370.50504 L 260.50448,370.50504 z M 260.53573,371.50504 L 272.53573,371.50504 L 272.53572,375.52066 L 269.50447,375.52066 L 269.22322,375.52066 L 269.06697,375.77066 L 268.09822,377.53629 L 265.94197,373.78629 L 265.59822,373.22379 L 265.16072,373.69254 L 263.34822,375.50504 L 260.53572,375.50504 L 260.53573,371.50504 z M 265.37947,374.84879 L 267.66072,378.78629 L 268.09822,379.53629 L 268.53572,378.78629 L 269.78572,376.52066 L 272.53572,376.52066 L 272.53573,380.50504 L 260.53573,380.50504 L 260.53572,376.50504 L 263.53572,376.50504 L 263.75447,376.50504 L 263.87947,376.34879 L 265.37947,374.84879 z"
         style="fill:#00ffff;fill-opacity:0.66666669000000001;stroke:none;stroke-width:0.30000000999999998;stroke-linecap:round;stroke-linejoin:round;stroke-miterlimit:4;stroke-dasharray:none;stroke-opacity:1"
         sodipodi:nodetypes="ccccccccccccccccccccccccccccccccccc" />
      <path
         id="path3514"
         d="M 260.53572,371.50504 L 260.53572,372.50504 L 272.53572,372.50504 L 272.53572,371.50504 L 260.53572,371.50504 z M 265.37947,374.84879 L 263.87947,376.34879 L 263.75447,376.50504 L 263.53572,376.50504 L 263.34822,376.50504 L 260.53572,376.50504 L 260.53572,377.50504 L 263.53572,377.50504 L 263.75447,377.50504 L 263.87947,377.34879 L 265.37947,375.84879 L 267.66072,379.78629 L 268.06697,380.50504 L 268.12947,380.50504 L 268.53572,379.78629 L 269.78572,377.50504 L 272.53572,377.50504 L 272.53572,376.50504 L 269.78572,376.50504 L 268.53572,378.78629 L 268.09822,379.53629 L 267.66072,378.78629 L 265.37947,374.84879 z M 259.53572,380.53629 L 259.53572,381.53629 C 259.53572,382.07493 259.96583,382.50504 260.50447,382.50504 L 272.56697,382.50504 C 273.10562,382.50504 273.53572,382.07493 273.53572,381.53629 L 273.53572,380.53629 C 273.53572,381.07493 273.10562,381.50504 272.56697,381.50504 L 272.53572,381.50504 L 260.53572,381.50504 L 260.50447,381.50504 C 259.96583,381.50504 259.53572,381.07493 259.53572,380.53629 z"
         style="fill:#008080;fill-opacity:0.78431373999999998;stroke:none;stroke-width:0.30000000999999998;stroke-linecap:round;stroke-linejoin:round;stroke-miterlimit:4;stroke-dasharray:none;stroke-opacity:1;opacity:1" />
    </g>
    <g
       id="restore">
      <rect
         style="opacity:0;fill:#000000;fill-opacity:0.49803922;stroke:none;stroke-width:1.10800004;stroke-linejoin:round;stroke-miterlimit:4;stroke-dasharray:none;stroke-dashoffset:0;stroke-opacity:1"
         id="rect3276"
         width="16"
         height="16"
         x="322.53571"
         y="367.50894" />
      <rect
         style="fill:#00ffff;fill-opacity:0.62745099999999998;stroke:none;stroke-width:0.50800002000000000;stroke-miterlimit:4;stroke-dasharray:none;stroke-dashoffset:0;stroke-opacity:1"
         id="rect3278"
         width="12"
         height="2"
         x="324.53571"
         y="379.50507"
         ry="0" />
      <path
         id="path3281"
         d="M 329.53572,377.50504 L 329.53572,372.50504 L 326.53572,372.50504 L 330.53572,368.50504 L 334.53572,372.50504 L 331.53572,372.50504 L 331.53572,377.50504 L 329.53572,377.50504 z"
         style="fill:#00ffff;fill-opacity:0.62745099999999998;fill-rule:evenodd;stroke:none;stroke-width:1px;stroke-linecap:butt;stroke-linejoin:miter;stroke-opacity:1"
         sodipodi:nodetypes="cccccccc" />
      <path
         id="rect3596"
         transform="translate(214.53572,326.50504)"
         d="M 110,55 L 110,56 L 122,56 L 122,55 L 110,55 z"
         style="fill:#008080;fill-opacity:0.78431373999999998;stroke:none;stroke-width:0.50800002000000000;stroke-miterlimit:4;stroke-dasharray:none;stroke-dashoffset:0;stroke-opacity:1;opacity:1" />
      <path
         id="path3598"
         transform="translate(214.53572,326.50504)"
         d="M 113,46 L 112,47 L 115,47 L 115,46 L 113,46 z M 117,46 L 117,47 L 120,47 L 119,46 L 117,46 z M 115,51 L 115,52 L 117,52 L 117,51 L 115,51 z"
         style="fill:#008080;fill-opacity:0.78431373999999998;fill-rule:evenodd;stroke:none;stroke-width:1px;stroke-linecap:butt;stroke-linejoin:miter;stroke-opacity:1;opacity:1" />
    </g>
    <g
       id="help">
      <path
         id="path3630"
         transform="translate(214.53572,326.50504)"
         d="M 139,50 C 138,50 138,51 138,52 L 136,52 C 136,52.333332 136,52.666665 136,53 L 138,53 C 138,52 138,51 139,51 L 143,51 C 143.75,51 143.92188,51.546875 143.96875,52.25 C 143.98462,52.166653 144,52.091189 144,52 C 144,51 144,50 143,50 L 139,50 z M 146,53 C 146,55 142,55 142,58 L 140,58 L 140,59 L 142,59 C 142,56 146,56 146,54 L 146,53 z"
         style="fill:#008080;fill-opacity:0.78431373999999998;stroke:none;stroke-width:1.10800004000000007;stroke-linejoin:round;stroke-miterlimit:4;stroke-dashoffset:0;stroke-opacity:1;opacity:1" />
      <path
         id="rect3632"
         transform="translate(214.53572,326.50504)"
         d="M 140,62 L 140,63 L 142,63 L 142,62 L 140,62 z"
         style="opacity:1;fill:#008080;fill-opacity:0.78431373999999998;stroke:none;stroke-width:1;stroke-linejoin:miter;stroke-miterlimit:4;stroke-dasharray:none;stroke-dashoffset:0;stroke-opacity:1" />
      <rect
         y="373.50504"
         x="347.53571"
         height="16"
         width="16"
         id="rect3273"
         style="opacity:0;fill:#ffffff;fill-opacity:0.49803922;stroke:none;stroke-width:1;stroke-linejoin:round;stroke-miterlimit:4;stroke-dasharray:none;stroke-dashoffset:0;stroke-opacity:1" />
      <path
         sodipodi:nodetypes="cccccccccccccc"
         id="rect2460"
         d="M 352.53572,378.50504 L 350.53572,378.50504 C 350.53572,377.83837 350.53572,377.17171 350.53572,376.50504 C 350.53572,375.50504 351.53572,374.50504 352.53572,374.50504 L 358.53572,374.50504 C 359.53572,374.50504 360.53572,375.50504 360.53572,376.50504 L 360.53572,379.50504 C 360.53572,381.50504 356.53572,381.50504 356.53572,384.50504 L 354.53572,384.50504 L 354.53572,383.50504 C 354.53572,380.50504 358.53572,380.50504 358.53572,378.50504 C 358.53572,377.50504 358.53572,376.50504 357.53572,376.50504 L 353.53572,376.50504 C 352.53572,376.50504 352.53572,377.50504 352.53572,378.50504 z"
         style="fill:#00ffff;fill-opacity:0.62745099999999998;stroke:none;stroke-width:1.10800004000000007;stroke-linejoin:round;stroke-miterlimit:4;stroke-dashoffset:0;stroke-opacity:1" />
      <rect
         y="386.50504"
         x="354.53571"
         height="2"
         width="2"
         id="rect3628"
         style="opacity:1;fill:#00ffff;fill-opacity:0.66666669000000001;stroke:none;stroke-width:1;stroke-linejoin:miter;stroke-miterlimit:4;stroke-dasharray:none;stroke-dashoffset:0;stroke-opacity:1" />
    </g>
    <rect
       style="fill:#808080;fill-opacity:1;stroke:#808080;stroke-width:0.5;stroke-linecap:round;stroke-linejoin:round;stroke-miterlimit:4;stroke-opacity:1;stroke-dasharray:none;stroke-dashoffset:0"
       id="hint-apply-color-scheme"
       width="15"
       height="10"
       x="5"
       y="-30"
       transform="translate(214.53572,326.50504)"
       inkscape:label="#rect2892" />
  </g>
</svg>
